<?xml version="1.0" encoding="UTF-8"?> <svg xmlns="http://www.w3.org/2000/svg" xmlns:xlink="http://www.w3.org/1999/xlink" version="1.1" id="Layer_1" x="0px" y="0px" viewBox="221 350 170 92" xml:space="preserve"> <g> <g> <path fill="#E5E5E5" d="M319.2,378.5c-0.8,4.2-4.2,6.7-9.2,8.9c2.1-0.4,5.2,0,7.3-1.8C319.4,383.9,319.3,381.1,319.2,378.5z"></path> <path fill="#E5E5E5" d="M315.4,374.4c-0.5,2.6-2.9,3.1-6.8,5.3c-4,2.2-4.3,5-4.8,8.4C305.2,381.4,316.2,380.9,315.4,374.4z"></path> <path fill="#E5E5E5" d="M318.2,372.1c-0.8,5.4-2.3,6.9-6.1,9.8c-3.8,2.9-7.7,3.6-7.7,10.6c0.2-1.7,0.7-3,2.5-4.4 c2-1.5,3.1-1.7,7.3-4.7C318.2,380.4,318.7,377.1,318.2,372.1z"></path> </g> <path fill="#BABABA" d="M344.6,390.4c-1.3-1.2-3.2-1.9-5.4-1.9c-3.1,0-5.2,1.1-6.5,3.2c-0.7,1.1-1,2.3-1,3.6c0,0.9,0.2,1.8,0.5,2.6 c0.4,0.9,0.9,1.7,1.6,2.4c1.3,1.2,3.1,1.9,5.4,1.9c3,0,5.2-1.1,6.5-3.2c0.7-1.1,1-2.2,1-3.5C346.8,393.3,346,391.7,344.6,390.4 L344.6,390.4z M343.5,397.1c-0.3,0.6-0.6,1.2-1.1,1.6c-0.8,0.7-1.9,1.1-3.1,1.1c-1.3,0-2.3-0.4-3.1-1.1c-1-0.9-1.5-2-1.5-3.4 s0.5-2.6,1.5-3.4c0.8-0.7,1.9-1.1,3.1-1.1c1.3,0,2.3,0.4,3.2,1.1c1,0.8,1.5,2,1.5,3.5C343.8,396,343.7,396.6,343.5,397.1 L343.5,397.1z M293.5,394.4v-5.6h-2.9v13.1h2.9v-4.5l2-1.6l5,6.1h3.6l-6.5-7.8l6.5-5.3h-3.8L293.5,394.4z M246.2,395 c1.2-0.6,1.8-1.5,1.8-2.7c0-1.1-0.4-2-1.2-2.6c-0.4-0.3-0.8-0.5-1.4-0.7c-0.5-0.1-1.2-0.2-2.1-0.2h-8.3v13.1h8.4 c0.8,0,1.6-0.1,2.1-0.2s1.1-0.4,1.5-0.7c0.9-0.7,1.3-1.6,1.3-2.8C248.5,396.6,247.7,395.5,246.2,395L246.2,395z M238,390.9h5.1 c0.8,0,1.3,0.1,1.6,0.3c0.3,0.2,0.5,0.6,0.5,1.2c0,0.5-0.2,0.9-0.5,1.2c-0.3,0.2-0.8,0.3-1.6,0.3H238 C238,393.9,238,390.9,238,390.9z M244.8,399.3c-0.4,0.3-1,0.4-2,0.4H238v-3.6h4.9c0.9,0,1.6,0.1,2,0.4c0.5,0.3,0.7,0.8,0.7,1.4 C245.5,398.5,245.3,399,244.8,399.3L244.8,399.3z M326.6,390.9h5.1v-2.1h-13.1v2.1h5.1v10.9h2.9L326.6,390.9z M367.7,394v-3.1h9.2 v-2.1h-12.1v13.1h12.1v-2.1h-9.2v-3.6h6.3V394H367.7z M288.1,397.9c0,0-0.5,0.4-1.7,1c-1.2,0.7-2.3,1-3.6,1c-1.5,0-2.7-0.4-3.6-1.1 c-1.1-0.9-1.6-2-1.6-3.4c0-1.4,0.5-2.6,1.6-3.4c0.9-0.7,2.1-1.1,3.6-1.1c1.3,0,2.5,0.3,3.6,1c1,0.5,1.7,1,1.7,1l1.2-1.8l-1.4-0.8 c-1.1-0.6-2-1.1-2.8-1.3c-0.7-0.2-1.6-0.3-2.7-0.3c-2.8,0-5,0.9-6.4,2.6c-0.9,1.2-1.4,2.5-1.4,4.1c0,1.2,0.3,2.2,0.8,3.2 c0.4,0.8,1.1,1.5,1.9,2.1c1.3,1,3,1.5,5.1,1.5c1,0,1.9-0.1,2.7-0.3c0.8-0.2,1.9-0.8,2.8-1.3c0.9-0.5,1.3-0.9,1.3-0.9L288.1,397.9 L288.1,397.9z M317.4,396.2c-0.3-0.5-0.6-0.9-1-1.2c-0.4-0.3-0.9-0.5-1.5-0.7c-0.5-0.2-1.3-0.3-2.2-0.4l-1.5-0.2 c-1-0.1-1.7-0.2-2-0.3c-0.6-0.2-0.9-0.5-0.9-1c0-0.3,0.1-0.6,0.3-0.8s0.5-0.4,0.9-0.6c0.5-0.2,1.1-0.3,1.8-0.3 c1.5,0,2.8,0.4,4.1,1.1c0.5,0.3,1,0.5,1,0.5l1.1-2c0,0-0.2-0.1-0.9-0.5c-1-0.6-2.3-0.9-3-1.1c-0.7-0.2-1.5-0.3-2.4-0.3 c-2,0-3.5,0.5-4.5,1.4c-0.8,0.7-1.2,1.6-1.2,2.7c0,0.7,0.2,1.3,0.4,1.8c0.3,0.6,0.8,1,1.4,1.3c0.4,0.2,0.8,0.4,1.2,0.4 s1.1,0.2,2.1,0.3l1.5,0.2c1,0.1,1.7,0.2,2,0.4c0.5,0.2,0.7,0.5,0.7,0.9c0,0.3-0.1,0.6-0.3,0.8c-0.2,0.3-0.5,0.5-0.8,0.6 c-0.6,0.3-1.3,0.4-2.2,0.4c-0.8,0-1.6-0.1-2.5-0.4c-0.5-0.2-0.8-0.3-1.3-0.5c-0.6-0.3-1.6-0.8-1.6-0.8l-0.9,2.1l1.6,0.8 c1.6,0.7,3.1,1,4.7,1c1,0,1.9-0.1,2.7-0.4c1.1-0.3,2-0.8,2.5-1.4c0.6-0.7,0.9-1.5,0.9-2.5C317.8,397.2,317.7,396.7,317.4,396.2 L317.4,396.2z M259.9,399.7h-7.1v-10.9h-2.9v13h9L259.9,399.7z M268.9,388.8h-2.4l-6.3,13.1h2.9l1.4-3.3h6l1.5,3.3h3.3L268.9,388.8 z M265.5,396.7l2.2-4.7l2.1,4.7H265.5z M360.1,388.8v9.3l-9.3-9.3h-2.6v13.1h2.6v-9.3l9.3,9.3h2.6v-13.1H360.1z"></path> </g> </svg> 