<?xml version="1.0" encoding="UTF-8"?> <svg xmlns="http://www.w3.org/2000/svg" xmlns:xlink="http://www.w3.org/1999/xlink" version="1.1" id="Layer_1" x="0px" y="0px" viewBox="0 0 136 68.2" style="enable-background:new 0 0 136 68.2;" xml:space="preserve"> <style type="text/css"> .st0{fill:#B5B5B5;} </style> <g> <polygon class="st0" points="91.3,35.1 95.8,35.1 95.8,32 91.3,32 91.3,29.8 97.1,29.8 97.1,26.4 86.7,26.4 86.7,41.6 97,41.6 98,37.9 91.3,37.9 "></polygon> <path class="st0" d="M39.5,35.9c0,1.3-0.7,2.6-2.3,2.6c-1.6,0-2.3-1.2-2.3-2.6l0-9.5h-4.6l0,9.5c0,3.9,2.7,6.1,6.9,6.1 c4.3,0,7-2.3,7-6.6v-9h-4.6V35.9z"></path> <path class="st0" d="M21.7,26.4h-7.1l0,15.2H21c4.8,0,8.1-3,8.1-7.7C29.1,28.1,25.1,26.4,21.7,26.4z M20.4,38.2h-1.2l0-8.3h1.2 c2.6,0,4.1,1.2,4.1,4.1C24.5,36.5,23.4,38.1,20.4,38.2z"></path> <path class="st0" d="M63.3,26.4l-4.7,13.8l-2.8-5.5l1.6-1.8c0.7-0.8,1.2-1.9,1.2-2.8c0-2.2-1.9-3.7-5-3.7c0,0-7.1,0-7.9,0l0,15.2 h4.6V29.7h2c0.9,0,1.5,0.5,1.5,1.2c0,0.5-0.3,1-0.8,1.6c-0.9,1-1.9,2.2-1.9,2.2l3.3,6.9h4.9l0,0l3.5,0l0.6-2.1h5.2l0.6,2.1h4.9 l-5.3-15.2H63.3z M64.3,36.4l1.7-5.9l1.8,5.9H64.3z"></path> <polygon class="st0" points="103.9,26.4 99.2,26.4 99.2,41.6 108.7,41.6 109.7,37.9 103.9,37.9 "></polygon> <polygon class="st0" points="115.6,26.4 110.9,26.4 110.9,41.6 120.4,41.6 121.4,37.9 115.6,37.9 "></polygon> <path class="st0" d="M82.1,29.9H85l0-3.5h-4c-1,0-2.4,0.1-4,1c-2.4,1.3-3.5,3.8-3.5,6.5c0,2.6,1.1,4.4,2,5.5c2,2.1,4.6,2.2,5.8,2.2 H85l0-3.6h-2.6c-1.2,0-2,0-2.9-1c-0.6-0.6-1.1-1.6-1.1-3.1c0-1.1,0.3-2.1,1-2.9C80,30.1,80.9,29.9,82.1,29.9z"></path> <path class="st0" d="M119.6,29.9c1,0,1.8-0.8,1.8-1.8c0-1-0.8-1.8-1.8-1.8c-1,0-1.8,0.8-1.8,1.8C117.7,29.1,118.5,29.9,119.6,29.9z M119.2,26.6c0.1,0,0.4-0.1,0.5,0h0c0,0,0.1,0,0.1,0c0.5,0,1.1,0.5,1.2,1.1c0.2,0.6-0.1,1.2-0.6,1.6c-0.5,0.4-1.1,0.4-1.6,0.1 c-0.5-0.3-0.8-0.9-0.7-1.5C118.2,27.3,118.6,26.8,119.2,26.6z"></path> <path class="st0" d="M119.3,28.4c0,0,0.1,0,0.1,0c0.1,0,0.1,0,0.3,0c0.1,0.2,0.2,0.4,0.3,0.6c0.1,0,0.1,0,0.3,0h0.1 c-0.1-0.3-0.2-0.3-0.3-0.5c0,0,0-0.1-0.1-0.1c0.1,0,0.2-0.1,0.3-0.3c0.1-0.2,0.1-0.4,0-0.6c-0.2-0.3-0.4-0.3-0.7-0.3 c-0.1,0-0.1,0-0.2,0h-0.1h0H119c-0.1,0-0.1,0-0.2,0c0,0.7,0,1.1,0,1.7c0.2,0,0.3,0,0.4,0C119.3,28.7,119.3,28.6,119.3,28.4z M119.3,27.5c0.2,0,0.3,0,0.4,0c0,0,0.2,0,0.2,0.1c0.1,0.1,0.1,0.2,0.1,0.3c0,0.1-0.1,0.1-0.2,0.2c-0.1,0-0.1,0-0.6,0 C119.3,27.9,119.3,27.7,119.3,27.5z"></path> </g> </svg> 