<?xml version="1.0" encoding="UTF-8"?> <svg xmlns="http://www.w3.org/2000/svg" xmlns:xlink="http://www.w3.org/1999/xlink" version="1.1" id="Layer_1" x="0px" y="0px" viewBox="221 350 170 92" xml:space="preserve"> <g id="SiVROz.tif"> <g id="_x31_AwsYg.tif"> <g> <path fill="#B8B9B9" d="M349.6,417.2c-0.5-0.1-1.1-0.1-1.6-0.2c-2.1-0.4-3.6-1.8-4.4-3.7c-0.8-1.7-1.3-3.5-2-5.3 c-0.3-0.9-0.7-1.7-1.1-2.5c-0.5-1-1.3-1.7-2.4-2c-0.2-0.1-0.3-0.1-0.6-0.2c0.2-0.1,0.3-0.2,0.4-0.2c2.9-0.5,4.9-3.1,5-6 c0-0.9,0-1.9-0.2-2.8c-0.3-2-1.5-3.1-3.5-3.4c-0.7-0.1-1.4-0.1-2.2-0.2c0,0.2,0,0.4,0,0.5c0,5.3,0,10.6,0,16 c0,0.8,0.2,1.6,0.4,2.4c0.1,0.4,0.4,0.7,0.7,1.1c-2.7,0-5.3,0-7.9,0c0-0.1,0-0.2,0-0.2c0.8-0.8,1-1.8,1-2.8c0-5,0-9.9,0-14.9 c0-1-0.1-2.1-1-2.9c0,0,0-0.1-0.1-0.2c0.2,0,0.3,0,0.5,0c3,0,6-0.1,9.1,0c2.4,0.1,4.6,0.6,6.5,2c3,2.2,3.2,6.6,1.1,8.9 c-1.1,1.2-2.5,1.8-4,2.2c-0.7,0.2-1.3,0.3-2,0.4c0.7,0.2,1.6,0.4,2.4,0.7c2.1,0.8,3.5,2.3,4.3,4.4c0.5,1.3,1.1,2.7,1.7,4 c0.4,0.9,1,1.8,1.8,2.4c1,0.9,2.2,1.2,3.5,1c0.1,0,0.3,0,0.4,0c0.1,0,0.1,0,0.3,0.1c-0.3,0.2-0.4,0.3-0.6,0.4 c-1.3,0.6-2.8,1.1-4.3,1.2c-0.1,0-0.3,0.1-0.4,0.1C350.1,417.2,349.8,417.2,349.6,417.2z"></path> <path fill="#B8B9B9" d="M339.7,383.1c0.6,0.6,0.7,1.4,0.3,2.2c-0.4,0.8-1.2,1.3-2.2,1.2c-0.8-0.1-1.6-0.6-1.9-1.4 c-0.3-1,0.2-2.1,1.2-2.5C337.2,382.5,338.7,382,339.7,383.1z M336.8,384.4c0,0.7,0.5,1.2,1.2,1.2c0.6,0,1.2-0.5,1.2-1.2 c0-0.6-0.5-1.2-1.2-1.2C337.3,383.3,336.8,383.8,336.8,384.4z"></path> <path fill="#B8B9B9" d="M361.2,383.1c0.6,0.6,0.8,1.3,0.5,2.1c-0.3,0.8-1,1.3-1.8,1.4c-1.2,0.1-2.1-0.6-2.4-1.7 c-0.2-0.9,0.3-1.8,1.3-2.2C358.8,382.5,360.3,382,361.2,383.1z M359.6,383.3c-0.6,0-1.2,0.5-1.2,1.1c0,0.6,0.5,1.2,1.1,1.2 c0.6,0,1.2-0.5,1.2-1.1C360.7,383.8,360.3,383.3,359.6,383.3z"></path> <path fill="#B8B9B9" d="M251.1,396c3-0.5,5.2-2,6.3-4.9c0-0.1,0-0.1,0.1-0.2c0.1-0.1,0.2-0.2,0.2-0.3c0.1,0.1,0.2,0.2,0.2,0.4 c0,1.4,0,2.7,0,4.1c0,2.1,0,4.1,0,6.2c0,0.2,0,0.4,0,0.6c-0.1,0-0.1,0.1-0.2,0.1c-0.1-0.1-0.2-0.2-0.2-0.4c-1-2.8-3.1-4.3-5.9-5 c-0.1,0-0.2,0-0.3,0c-0.1,0-0.1,0-0.2,0c0,0.3,0,0.5,0,0.8c0,2.7,0,5.4,0,8.1c0,0.9,0.2,1.7,0.5,2.6c0.5,1.4,1.9,1.8,3.4,1.6 c1.8-0.2,3.2-1.2,4.4-2.5c1.3-1.4,2.3-2.9,3-4.7c0-0.1,0.1-0.2,0.2-0.3c0.1,0.2,0.1,0.3,0.1,0.5c0,2.5,0,5.1,0,7.6 c0,0.3-0.1,0.4-0.4,0.4c-6.3,0-12.6,0-18.9,0c-0.1,0-0.1,0-0.2,0c0-0.1,0-0.1,0-0.1c1-1,1-2.3,1-3.6c0-6.9,0-13.8,0-20.6 c0-0.6-0.1-1.2-0.1-1.7c-0.1-0.7-0.3-1.4-1.1-1.9c0.3,0,0.4,0,0.6,0c6.2,0,12.4,0,18.5,0c0.3,0,0.5,0,0.5,0.5c0,2.5,0,5,0,7.5 c0,0.1,0,0.3-0.1,0.4c-0.1,0-0.1,0-0.1,0c-0.1-0.2-0.2-0.3-0.2-0.5c-1.1-2.5-2.5-4.6-4.7-6c-1-0.7-2.1-1-3.3-1 c-1.6,0.1-2.6,0.8-3,2.4c-0.1,0.6-0.2,1.2-0.2,1.8c0,2.6,0,5.3,0,7.9C251.1,395.7,251.1,395.8,251.1,396z"></path> <path fill="#B8B9B9" d="M351.2,389.5c0.2,0,0.4,0,0.5,0c5.5,0,11.1,0,16.6,0c0.4,0,0.6,0.1,0.6,0.6c0,2.3,0,4.6,0,6.9 c0,0.2,0,0.3,0,0.5c0,0-0.1,0-0.1,0c-0.1-0.1-0.2-0.3-0.2-0.4c-0.5-1.5-1.3-2.9-2.3-4.1c-1-1.2-2.1-2.2-3.7-2.5 c-0.7-0.1-1.4-0.1-2,0c-1.3,0.2-2.2,1.2-2.3,2.7c-0.2,1.9-0.1,3.8-0.2,5.8c1.2-0.2,2.3-0.6,3.2-1.4c0.9-0.7,1.4-1.7,1.8-2.8 c0.1,0,0.1,0.1,0.2,0.1c0,2.9,0,5.7,0,8.6c0,0-0.1,0-0.1,0.1c-0.1-0.2-0.2-0.3-0.2-0.5c-0.7-2-2.6-3.4-4.7-3.6c0,1.6,0,3.3,0,4.9 c0,0.9,0.1,1.8,0.2,2.8c0.3,2.1,1.8,2.8,3.8,2.6c2-0.2,3.5-1.5,4.5-3.1c0.7-1.1,1.3-2.4,1.9-3.5c0.1-0.2,0.2-0.3,0.2-0.5 c0.1,0,0.1,0,0.1,0c0,0.1,0,0.3,0,0.4c0,2.3,0,4.7,0,7c0,0.4-0.1,0.5-0.5,0.5c-3.6,0-7.1,0-10.7,0c-0.8,0-1.6-0.1-2.4-0.3 c-1.9-0.5-2.9-1.7-3-3.6c-0.1-2.1-0.1-4.2-0.1-6.3c0-2.3,0-4.7,0-7c0-0.8-0.1-1.6-0.3-2.3C351.9,390.5,351.5,390.1,351.2,389.5z"></path> <path fill="#B8B9B9" d="M306.9,389.6c2.6,0,5.2,0,7.8,0c0,0.1,0,0.1,0,0.1c-1,1-1,2.4-1,3.6c0,3.3,0,6.6,0,10 c0,1.1,0.1,2.2,0.5,3.3c0.8,2.2,2.8,3,4.8,2.8c2.2-0.2,3.2-1.7,3.7-3.7c0.2-0.9,0.4-1.9,0.4-2.9c0.1-2.5,0.1-5.1,0-7.6 c0-1.3-0.3-2.6-1-3.7c-0.4-0.7-0.9-1.3-1.7-1.6c-0.1,0-0.2-0.1-0.2-0.1c0,0,0-0.1-0.1-0.2c2.4,0,4.7,0,7.1,0 c-0.1,0.1-0.1,0.2-0.1,0.2c-1.4,0.6-2.1,1.8-2.5,3.2c-0.2,0.9-0.4,1.8-0.4,2.7c-0.1,2.5,0,5,0,7.4c0,1.4-0.2,2.7-0.7,4 c-0.9,2.1-2.5,3.2-4.6,3.6c-2.1,0.4-4.2,0.4-6.2-0.3c-2.7-0.9-4.1-2.9-4.6-5.6c-0.1-0.8-0.2-1.7-0.2-2.5c0-3,0-6,0-9.1 c0-0.7-0.1-1.4-0.2-2C307.5,390.7,307.1,390.2,306.9,389.6z"></path> <path fill="#B8B9B9" d="M279.8,410.6c-2.7,0-5.3,0-7.9,0c0-0.1,0-0.1,0-0.2c0.9-0.9,1-2.1,1-3.3c0.1-1.8,0-3.5,0-5.3 c0-0.2-0.1-0.5-0.2-0.6c-1.8-3-3.6-6-5.4-9c-0.5-0.8-1.2-1.5-1.8-2.2c-0.1-0.1-0.1-0.2-0.3-0.3c2.8,0,5.4,0,8.2,0 c-0.6,0.5-0.5,1-0.2,1.4c1.6,2.6,3.1,5.3,4.8,8c0.5-0.9,1-1.7,1.5-2.5c0.6-1,1.3-2.1,1.5-3.4c0.2-1.4-0.1-2.8-1.4-3.3 c-0.1,0-0.2-0.1-0.2-0.3c0.7,0,5.8,0,6.6,0c0,0.1-0.2,0.2-0.2,0.3c-1.2,0.8-2,1.8-2.7,3c-1.4,2.2-2.8,4.5-4.2,6.7 c-0.1,0.2-0.2,0.4-0.2,0.6c0,2.5,0,5,0.1,7.5c0,1,0.2,2,1,2.7C279.7,410.4,279.7,410.5,279.8,410.6z"></path> <path fill="#B8B9B9" d="M288.7,389.6c2.7,0,5.3,0,7.9,0c0,0.1,0,0.1,0,0.1c-0.9,1-1,2.2-1,3.5c0,4.3,0,8.6,0,12.8 c0,0.6,0.1,1.2,0.2,1.8c0.3,1.3,0.9,1.9,2.3,1.9c1.8,0,3.2-0.9,4.2-2.3c1-1.3,1.6-2.8,2.1-4.3c0.1-0.2,0.2-0.4,0.3-0.6 c0.1,0.1,0.1,0.3,0.1,0.4c0,2.4,0,4.8,0,7.1c0,0.3-0.1,0.4-0.4,0.4c-5.2,0-10.4,0-15.6,0c-0.1,0-0.1,0-0.1,0c0-0.1,0-0.2,0-0.2 c1-1,1-2.2,1-3.4c0-2.5,0-4.9,0-7.4c0-2.1,0-4.3,0-6.4c0-0.7-0.1-1.4-0.3-2.1c-0.1-0.4-0.4-0.8-0.6-1.2 C288.9,389.8,288.8,389.7,288.7,389.6z"></path> <path fill="#B8B9B9" d="M368.7,386.4c-0.6,0.1-1,0-1.3-0.5c-0.4-0.6-0.9-1.2-1.4-1.7c0,0.7,0,1.4,0,2.2c-0.3,0-0.6,0-1,0 c0-1.3,0-2.6,0-3.9c0.5-0.1,1-0.1,1.3,0.4c0.4,0.6,0.9,1.1,1.4,1.8c0-0.8,0-1.5,0-2.2c0.3,0,0.6,0,0.9,0 C368.7,383.8,368.7,385.1,368.7,386.4z"></path> <path fill="#B8B9B9" d="M346.2,382.5c0.3,0,0.6,0,0.9,0c0,1.3,0,2.6,0,3.9c-0.5,0.1-1,0.1-1.3-0.5c-0.4-0.6-0.9-1.2-1.5-1.8 c0,0.9,0,1.6,0,2.3c-0.3,0-0.6,0-0.9,0c0-1.3,0-2.6,0-3.9c0.5-0.1,1-0.1,1.3,0.4c0.4,0.6,0.9,1.2,1.5,1.7 C346.2,383.9,346.2,383.2,346.2,382.5z"></path> <path fill="#B8B9B9" d="M350.7,386.4c0-1.3,0-2.6,0-4c0.8,0.1,1.3-0.1,2.2,0.1c1,0.2,1.6,1.2,1.5,2.1c-0.1,1-0.9,1.7-1.9,1.8 C351.9,386.5,351.3,386.4,350.7,386.4z M351.6,383.4c0,0.7,0,1.4,0,2.1c0.6,0,1.2-0.1,1.5-0.6c0.2-0.4,0.2-0.8-0.1-1.2 C352.7,383.3,352.2,383.4,351.6,383.4z"></path> <path fill="#B8B9B9" d="M292.3,386.4c-0.2,0-0.3,0-0.5,0c0-1,0-1.9,0-3c-0.5,0.6-0.9,1.2-1.4,1.7c-0.5-0.6-0.9-1.1-1.4-1.7 c0,1,0,2,0,3c-0.2,0-0.4,0-0.6,0c0-1.3,0-2.5,0-3.8c0.3-0.1,0.6-0.1,0.8,0.3c0.3,0.5,0.7,0.9,1.2,1.4c0.4-0.5,0.8-0.9,1.1-1.4 c0.2-0.3,0.5-0.5,0.9-0.3C292.3,383.8,292.3,385.1,292.3,386.4z"></path> <path fill="#B8B9B9" d="M276.1,386.4c-1.2,0-2.1-0.8-2.1-2c0-1.2,0.9-2,2-2c1.3,0,2.1,0.8,2.2,2 C278.2,385.5,277.2,386.4,276.1,386.4z M276,383c-0.8,0-1.5,0.7-1.5,1.5c0,0.8,0.6,1.5,1.4,1.5c0.9,0,1.5-0.6,1.5-1.5 C277.5,383.6,276.9,383,276,383z"></path> <path fill="#B8B9B9" d="M331.3,385.5c0.6,0,1.1,0,1.7,0c0,0.3,0,0.6,0,0.9c-0.9,0-1.7,0-2.6,0c0-1.3,0-2.6,0-3.9 c0.3,0,0.6,0,0.9,0C331.3,383.5,331.3,384.5,331.3,385.5z"></path> <path fill="#B8B9B9" d="M297.1,384.5c0,0.2,0,0.3,0,0.4c0,0.3,0,0.6,0,0.9c0.6,0,1.3,0,1.9,0c0,0.2,0,0.3,0,0.5 c-0.8,0-1.6,0-2.4,0c0-1.3,0-2.5,0-3.8c0.8,0,1.6,0,2.4,0c0,0.1,0,0.2,0.1,0.5c-0.6,0-1.3,0-1.9,0c0,0.3,0,0.7,0,1 c0.5,0,0.9,0,1.4,0c0,0.2,0,0.3,0.1,0.5C298,384.5,297.6,384.5,297.1,384.5z"></path> <path fill="#B8B9B9" d="M281.8,385.5c0.2-0.1,0.3-0.2,0.4-0.3c0.1,0.1,0.2,0.3,0.2,0.4c0.3,0.3,0.7,0.5,1,0.3 c0.5-0.2,0.5-0.7,0.1-1c-0.2-0.2-0.5-0.2-0.7-0.4c-0.7-0.3-1-0.8-0.7-1.4c0.2-0.6,1-0.8,1.7-0.5c0.2,0.1,0.5,0.3,0.7,0.5 c-0.2,0.2-0.3,0.2-0.4,0.3c-0.2-0.1-0.4-0.3-0.7-0.4c-0.3-0.1-0.6,0-0.7,0.3c-0.1,0.3,0.1,0.5,0.3,0.6c0.3,0.2,0.6,0.3,0.9,0.5 c0.5,0.2,0.6,0.6,0.6,1.1c-0.1,0.5-0.4,0.8-0.9,0.9C282.9,386.6,282.1,386.3,281.8,385.5z"></path> <path fill="#B8B9B9" d="M323.8,383c-0.2,0.2-0.3,0.3-0.5,0.3c-0.2-0.1-0.4-0.3-0.6-0.4c-0.2,0-0.6,0.1-0.7,0.3 c-0.2,0.3,0.1,0.5,0.3,0.6c0.3,0.2,0.6,0.3,0.9,0.5c0.5,0.3,0.7,0.7,0.6,1.2c-0.1,0.5-0.6,0.9-1.1,0.9c-0.8,0.1-1.3-0.2-1.6-0.9 c0.1-0.1,0.3-0.2,0.4-0.3c0.1,0.1,0.2,0.3,0.3,0.4c0.3,0.3,0.7,0.4,1,0.2c0.4-0.2,0.5-0.7,0.1-1c-0.2-0.2-0.5-0.3-0.8-0.4 c-0.7-0.3-1-0.8-0.7-1.4c0.2-0.5,0.9-0.8,1.6-0.6C323.2,382.6,323.4,382.8,323.8,383z"></path> <path fill="#B8B9B9" d="M317.3,385.6c0.1,0.4,0,0.6-0.3,0.7c-1.2,0.5-2.5,0-2.9-1.1c-0.3-0.7-0.2-1.5,0.4-2.1 c0.6-0.6,1.3-0.7,2.1-0.6c0.8,0.2,0.8,0.2,0.8,0.8c-0.3-0.1-0.6-0.2-0.9-0.3c-0.6-0.2-1.3,0.1-1.6,0.6c-0.3,0.5-0.4,1.2-0.1,1.7 c0.3,0.5,1,0.8,1.6,0.7C316.6,385.8,317,385.7,317.3,385.6z"></path> <path fill="#B8B9B9" d="M270.2,383.4c-0.9-0.4-1.7-0.7-2.5,0.2c-0.4,0.5-0.4,1.3-0.1,1.7c0.7,1,1.7,0.7,2.5,0.3 c0.1,0.4,0,0.6-0.4,0.7c-1.1,0.4-2.3,0.1-2.8-0.9c-0.4-0.7-0.3-1.6,0.2-2.2c0.6-0.7,1.4-0.9,2.2-0.6 C270.3,382.7,270.3,382.8,270.2,383.4z"></path> <path fill="#B8B9B9" d="M302.6,383c0-0.2,0-0.3,0-0.5c1,0,2,0,3,0c0,0.2,0,0.3,0,0.5c-0.4,0-0.7,0-1.2,0c0,1.1,0,2.2,0,3.3 c-0.2,0-0.4,0-0.6,0c0-1.1,0-2.2,0-3.3C303.4,383,303,383,302.6,383z"></path> <path fill="#B8B9B9" d="M309.9,386.4c-0.2,0-0.3,0-0.5,0c0-1.3,0-2.5,0-3.8c0.2,0,0.3,0,0.5,0 C309.9,383.8,309.9,385.1,309.9,386.4z"></path> </g> </g> </g> </svg> 