<?xml version="1.0" encoding="UTF-8"?> <svg xmlns="http://www.w3.org/2000/svg" id="Layer_1" data-name="Layer 1" viewBox="0 0 136 68.2"><defs><style>.cls-1{fill:#b7b7b7;}</style></defs><title>havaianas</title><path class="cls-1" d="M26.47,34.19l.28,0a3.14,3.14,0,0,1,1.66.37c.09.09.31.41.31,1.62v4.13a.6.6,0,0,1-.13.44,3.1,3.1,0,0,1-1,.43,4.45,4.45,0,0,1-1.15.25,7.47,7.47,0,0,1-1.06.1,5.94,5.94,0,0,1-4.44-1.91,7.63,7.63,0,0,1-1.81-5.37c0-2.78.59-4.81,1.81-6a6,6,0,0,1,4.19-1.78A4.83,4.83,0,0,1,28.84,28a10.28,10.28,0,0,1,1.6,2.72l.09.18h1.13l-.22-6.06h-1.1l-.09.19a1.23,1.23,0,0,1-.31.5c-.06.06-.19.13-.6.13a10.39,10.39,0,0,1-1.59-.41,11.37,11.37,0,0,0-3.06-.44,8.75,8.75,0,0,0-6.9,3,9.46,9.46,0,0,0-2.38,6.4,8.49,8.49,0,0,0,3,6.81A9.81,9.81,0,0,0,25,43.28a13.42,13.42,0,0,0,4.41-.78c2-.68,2.43-1.09,2.43-1.5V35.91a1.93,1.93,0,0,1,.41-1.43,2.27,2.27,0,0,1,1.09-.26l.28,0V33.13H26.47Z"></path><path class="cls-1" d="M52.18,26.23l.28,0a2.8,2.8,0,0,1,1.72.59c.15.16.4.72.4,2.44V36A8.28,8.28,0,0,1,54,39.57c-.69,1.31-2,2-4,2-1.81,0-3-.62-3.65-1.9a7.13,7.13,0,0,1-.53-3V28.26c0-1.13.22-1.47.34-1.59s.53-.35,1.75-.41l.28,0V25.14H40.28v1.09l.28,0c1.18.09,1.59.31,1.72.44s.34.47.34,1.59v8.09a8.06,8.06,0,0,0,.87,4c1.07,1.91,3.1,2.91,6,2.91s5-1,6.06-2.94A9.22,9.22,0,0,0,56.43,36V29.26c0-1.69.25-2.22.4-2.41a2.66,2.66,0,0,1,1.75-.62l.28,0V25.14H52.24v1.09Z"></path><path class="cls-1" d="M79.85,38.1a4.92,4.92,0,0,1-2.09,2.62,9.2,9.2,0,0,1-3.75.57,15.21,15.21,0,0,1-2.84-.13c-.06,0-.25-.06-.25-.62v-6.1h3.69c1.31,0,1.75.25,1.87.38a3.64,3.64,0,0,1,.66,1.84l.06.25h1.19V30.32H77.2l-.06.25a3.74,3.74,0,0,1-.66,1.84c-.12.16-.56.41-1.87.41H70.92v-5.5a1.17,1.17,0,0,1,.06-.5,1.08,1.08,0,0,1,.47-.06H75c1.81,0,2.5.25,2.75.44a3.29,3.29,0,0,1,.88,2l.06.25h1.25l-.16-4.34H65.36v1.09l.28,0c1.16.09,1.53.31,1.66.44s.31.5.31,1.59V39.82c0,1.18-.22,1.5-.31,1.59s-.53.31-1.69.44l-.28,0v1.06H79.88l1.35-5H79.88Z"></path><path class="cls-1" d="M96.91,32.85l-2.28-1.4A7.78,7.78,0,0,1,92.82,30a2.24,2.24,0,0,1-.53-1.5A1.75,1.75,0,0,1,93,27a2.56,2.56,0,0,1,1.66-.56,4.49,4.49,0,0,1,2.59.93,5.58,5.58,0,0,1,1.91,3.32l.06.25h1.22l-.63-6.16H98.72l-.06.22a1.66,1.66,0,0,1-.22.53.64.64,0,0,1-.41.13,9.6,9.6,0,0,1-1.34-.41,6.91,6.91,0,0,0-2.25-.47,5,5,0,0,0-3.69,1.41,4.74,4.74,0,0,0-1.4,3.5,4.35,4.35,0,0,0,1.19,2.93A8.23,8.23,0,0,0,92.19,34l2.22,1.37a15.64,15.64,0,0,1,2.44,1.75,2.69,2.69,0,0,1,.81,2,2.49,2.49,0,0,1-.78,2,3,3,0,0,1-1.94.71,4.54,4.54,0,0,1-3.59-1.68,9.47,9.47,0,0,1-1.5-2.69l-.06-.19H88.63l.88,6.16H90.6l0-.25a1.21,1.21,0,0,1,.19-.5c0-.1.15-.13.34-.13a7.4,7.4,0,0,1,1.41.44,8.07,8.07,0,0,0,2.62.47A6,6,0,0,0,99.31,42,4.66,4.66,0,0,0,101,38.35a4.48,4.48,0,0,0-.94-2.84A10.12,10.12,0,0,0,96.91,32.85Z"></path><path class="cls-1" d="M119.68,35.35a12.65,12.65,0,0,0-3.09-2.5l-2.28-1.4A7.78,7.78,0,0,1,112.5,30a2.24,2.24,0,0,1-.54-1.5,1.76,1.76,0,0,1,.69-1.5,2.56,2.56,0,0,1,1.66-.56,4.49,4.49,0,0,1,2.59.93,5.63,5.63,0,0,1,1.91,3.32l.06.25h1.22l-.63-6.16H118.4l-.06.22a1.92,1.92,0,0,1-.22.53.64.64,0,0,1-.41.13,9.6,9.6,0,0,1-1.34-.41,7,7,0,0,0-2.25-.47,5,5,0,0,0-3.69,1.41,4.74,4.74,0,0,0-1.4,3.5,4.39,4.39,0,0,0,1.18,2.93A8.62,8.62,0,0,0,111.87,34l2.22,1.37a14.91,14.91,0,0,1,2.43,1.75,2.66,2.66,0,0,1,.82,2,2.39,2.39,0,0,1-.82,2,2.93,2.93,0,0,1-1.93.71A4.56,4.56,0,0,1,111,40.1a9.23,9.23,0,0,1-1.49-2.69l-.07-.19h-1.15l.87,6.16h1.09l0-.25a2.26,2.26,0,0,1,.15-.5c0-.1.16-.13.35-.13a7.24,7.24,0,0,1,1.4.44,8.12,8.12,0,0,0,2.63.47A6.06,6.06,0,0,0,118.93,42a4.68,4.68,0,0,0,1.65-3.62A4.39,4.39,0,0,0,119.68,35.35Z"></path></svg> 