<?xml version="1.0" encoding="UTF-8"?> <svg xmlns="http://www.w3.org/2000/svg" xmlns:xlink="http://www.w3.org/1999/xlink" version="1.1" id="Layer_1" x="0px" y="0px" viewBox="0 0 136 68.2" xml:space="preserve"> <g> <path fill-rule="evenodd" clip-rule="evenodd" fill="#B5B5B5" d="M14.9,23.9c-0.4,0-0.6,0.2-0.6,0.5L14.8,42c0,0.2,0,0.2,0.2,0.2 h2.1c0.2,0,0.3-0.1,0.4-0.3l0.3-8.2c0.1-0.6,0.2-1.2,0.7-1.6l1.2-1c0.1-0.1,0.2-0.1,0.3-0.1l1.6,0c0.2,0,0.3,0.1,0.4,0.2l1,0.7 c0.1,0.1,0.1,0.3,0.1,0.4l0.4,9.6c0,0.1,0.2,0.3,0.4,0.3h1.7c0.1,0,0.3-0.2,0.3-0.3l0.4-9.7c0-0.5-0.1-0.8-0.4-1.2l-1.4-1.9 c-0.1-0.2-0.4-0.3-0.9-0.3l-3.2,0.1c-0.5,0-0.9,0.2-1.3,0.7l-0.8,1c-0.1,0.1-0.3,0.1-0.3-0.1l0.3-6.1c0-0.2-0.1-0.6-0.6-0.6 L14.9,23.9L14.9,23.9z"></path> <path fill-rule="evenodd" clip-rule="evenodd" fill="#B5B5B5" d="M28.2,32.4c-0.3,0-0.4-0.2-0.4-0.4l0.3-1.9c0-0.4,0.2-0.7,0.5-1 l1.7-1.1c0.3-0.2,0.6-0.3,1-0.3H35c0.7,0,1.4,0.2,1.6,0.5l1.6,1.7c0.3,0.3,0.5,0.7,0.4,1.3L38,39.8c0,0.2,0,0.3,0.1,0.4l1.4,1.2 c0.1,0.1,0.1,0.3,0,0.4l-1.2,0.8c-0.4,0.2-0.8,0.2-1.1,0l-1.5-1.2c-0.3-0.2-0.4-0.4-0.5-0.7l-3.4,1.8c-0.7,0.1-1.4,0.1-2-0.4 l-1.9-1.4c-0.5-0.4-0.7-1-0.7-1.5l0.2-3.4c0-0.6,0.4-1,0.9-1.3l3.4-1.6c0.5-0.2,1-0.2,1.5-0.1l1.7,0.5c0.2,0.1,0.5,0,0.5-0.3l0-2.1 c0-0.2-0.2-0.5-0.4-0.7c-0.3-0.2-0.7-0.4-1-0.6c-0.2-0.1-0.5-0.1-0.8-0.1l-1.1,0.2c-0.2,0.1-0.3,0.2-0.4,0.4l-0.6,1.8 c-0.1,0.3-0.3,0.5-0.6,0.5L28.2,32.4L28.2,32.4z M33.8,34.7c-0.4-0.1-0.9-0.1-1.3,0.1l-1.8,0.9c-0.3,0.2-0.4,0.4-0.4,0.8l0.2,2.3 c0,0.3,0.2,0.5,0.4,0.7L32,40c0.5,0.2,0.7,0.1,1.1-0.1c0.3-0.2,1.7-0.9,1.8-1c0.2-0.2,0.4-0.4,0.4-0.6v-2.6 C35.2,34.9,34.4,34.9,33.8,34.7L33.8,34.7z"></path> <path fill-rule="evenodd" clip-rule="evenodd" fill="#B5B5B5" d="M51.6,32.4c-0.3,0-0.4-0.2-0.4-0.4l0.3-1.9c0-0.4,0.2-0.7,0.5-1 l1.7-1.1c0.3-0.2,0.6-0.3,1-0.3h3.6c0.7,0,1.4,0.2,1.6,0.5l1.6,1.7c0.3,0.3,0.5,0.7,0.4,1.3l-0.7,8.7c0,0.2,0,0.3,0.1,0.4l1.4,1.2 c0.1,0.1,0.1,0.3,0,0.4l-1.2,0.8c-0.4,0.2-0.8,0.2-1.1,0l-1.5-1.2c-0.3-0.2-0.4-0.4-0.5-0.7l-3.4,1.8c-0.7,0.1-1.4,0.1-2-0.4 l-1.9-1.4c-0.5-0.4-0.7-1-0.7-1.5l0.2-3.4c0-0.6,0.4-1,0.9-1.3l3.4-1.6c0.5-0.2,1-0.2,1.5-0.1l1.7,0.5c0.2,0.1,0.5,0,0.5-0.3l0-2.1 c0-0.2-0.2-0.5-0.4-0.7c-0.3-0.2-0.7-0.4-1-0.6c-0.2-0.1-0.5-0.1-0.8-0.1l-1.1,0.2c-0.2,0.1-0.3,0.2-0.4,0.4l-0.6,1.8 c-0.1,0.3-0.3,0.5-0.6,0.5L51.6,32.4L51.6,32.4z M57.2,34.7c-0.4-0.1-0.9-0.1-1.3,0.1l-1.8,0.9c-0.3,0.2-0.4,0.4-0.4,0.8l0.2,2.3 c0,0.3,0.2,0.5,0.4,0.7l1.2,0.6c0.5,0.2,0.7,0.1,1.1-0.1c0.3-0.2,1.7-0.9,1.8-1c0.2-0.2,0.4-0.4,0.4-0.6v-2.6 C58.6,34.9,57.8,34.9,57.2,34.7L57.2,34.7z"></path> <path fill-rule="evenodd" clip-rule="evenodd" fill="#B5B5B5" d="M69,32.4c-0.3,0-0.4-0.2-0.4-0.4l0.3-1.9c0-0.4,0.2-0.7,0.5-1 l1.7-1.1c0.3-0.2,0.6-0.3,1-0.3h3.6c0.7,0,1.4,0.2,1.6,0.5l1.6,1.7c0.3,0.3,0.5,0.7,0.4,1.3L79,39.6c0,0.3,0,0.4,0.1,0.6 c0.2,0.6,0.7,1.6,0.9,1.8c0.8,0.9,2.1,1,3.7,0.6c0.2,0,1.4-0.4,1.4-2.2c0-0.1,0.1-0.5,0.4-0.5l1.6-0.1c0.2,0,0.4,0.1,0.3,0.6 c-0.1,0.4-0.4,1.7-0.6,2.2c-0.2,0.6-0.5,0.8-0.9,1c-1.7,0.7-4.1,0.5-4.1,0.6c-3.2,0-4.5-1.9-5.4-3c-0.3-0.3-0.3-0.8-0.5-0.7 l-3.4,1.8c-0.7,0.1-1.4,0.1-2-0.4l-1.9-1.4c-0.5-0.4-0.7-1-0.7-1.5l0.2-3.4c0-0.6,0.4-1,0.9-1.3l3.4-1.6c0.5-0.2,1-0.2,1.5-0.1 l1.7,0.5c0.2,0.1,0.5,0,0.5-0.3l0-2.1c0-0.2-0.2-0.5-0.4-0.7c-0.3-0.2-0.7-0.4-1-0.6c-0.2-0.1-0.5-0.1-0.8-0.1l-1.1,0.2 c-0.2,0.1-0.3,0.2-0.4,0.4l-0.6,1.8c-0.1,0.3-0.3,0.5-0.6,0.5L69,32.4L69,32.4z M74.5,34.7c-0.4-0.1-0.9-0.1-1.3,0.1l-1.8,0.9 c-0.3,0.2-0.4,0.4-0.4,0.8l0.2,2.3c0,0.3,0.2,0.5,0.4,0.7l1.2,0.6c0.5,0.2,0.7,0.1,1.1-0.1c0.3-0.2,1.7-0.9,1.8-1 c0.2-0.2,0.4-0.4,0.4-0.6v-2.6C75.9,34.9,75.2,34.9,74.5,34.7L74.5,34.7z"></path> <path fill-rule="evenodd" clip-rule="evenodd" fill="#B5B5B5" d="M94.5,32.4c-0.3,0-0.4-0.2-0.4-0.4l0.3-1.9c0-0.4,0.2-0.7,0.5-1 l1.7-1.1c0.3-0.2,0.6-0.3,1-0.3h3.6c0.7,0,1.4,0.2,1.6,0.5l1.6,1.7c0.3,0.3,0.5,0.7,0.4,1.3l-0.7,8.7c0,0.2,0,0.3,0.1,0.4l1.4,1.2 c0.1,0.1,0.1,0.3,0,0.4l-1.2,0.8c-0.4,0.2-0.8,0.2-1.1,0l-1.5-1.2c-0.3-0.2-0.4-0.4-0.5-0.7l-3.4,1.8c-0.7,0.1-1.4,0.1-2-0.4 l-1.9-1.4c-0.5-0.4-0.7-1-0.7-1.5l0.2-3.4c0-0.6,0.4-1,0.9-1.3l3.4-1.6c0.5-0.2,1-0.2,1.5-0.1l1.7,0.5c0.2,0.1,0.5,0,0.5-0.3l0-2.1 c0-0.2-0.2-0.5-0.4-0.7c-0.3-0.2-0.7-0.4-1-0.6c-0.2-0.1-0.5-0.1-0.8-0.1l-1.1,0.2c-0.2,0.1-0.3,0.2-0.4,0.4l-0.6,1.8 c-0.1,0.3-0.3,0.5-0.6,0.5L94.5,32.4L94.5,32.4z M100,34.7c-0.4-0.1-0.9-0.1-1.3,0.1l-1.8,0.9c-0.3,0.2-0.4,0.4-0.4,0.8l0.2,2.3 c0,0.3,0.2,0.5,0.4,0.7l1.2,0.6c0.5,0.2,0.7,0.1,1.1-0.1c0.3-0.2,1.7-0.9,1.8-1c0.2-0.2,0.4-0.4,0.4-0.6v-2.6 C101.4,34.9,100.7,34.9,100,34.7L100,34.7z"></path> <path fill-rule="evenodd" clip-rule="evenodd" fill="#B5B5B5" d="M39.5,28.4c-0.1-0.4,0.1-0.6,0.6-0.5h2.4c0.3,0,0.5,0.2,0.6,0.6 l1.9,10c0,0.2,0.3,0.2,0.4,0l2.9-10c0.1-0.3,0.4-0.6,0.6-0.6h1.7c0.2,0,0.3,0.3,0.3,0.6L47,41.7c0,0.2-0.4,0.5-0.8,0.4 c-0.7-0.2-1.5-0.2-2.3,0c-0.4,0.1-1-0.2-1.1-0.6L39.5,28.4L39.5,28.4z"></path> <path fill-rule="evenodd" clip-rule="evenodd" fill="#B5B5B5" d="M65.6,27c1,0,1.9,0.8,1.9,1.9c0,1-0.8,1.9-1.9,1.9 c-1,0-1.9-0.8-1.9-1.9C63.7,27.8,64.5,27,65.6,27L65.6,27z"></path> <path fill-rule="evenodd" clip-rule="evenodd" fill="#B5B5B5" d="M63.8,32.4c-0.1-0.4,0.1-0.6,0.6-0.5h2.2c0.3,0,0.5,0.2,0.6,0.6 l-0.8,8.9c0,0.4-0.1,0.8-0.4,0.9c-0.4,0.1-1.9,0.2-1.9-0.5L63.8,32.4L63.8,32.4z"></path> <path fill-rule="evenodd" clip-rule="evenodd" fill="#B5B5B5" d="M119.8,26.7c1,0,1.9,0.9,1.9,1.9c0,1.1-0.8,1.9-1.9,1.9 c-1,0-1.9-0.9-1.9-1.9C118,27.6,118.8,26.7,119.8,26.7L119.8,26.7z M119,29.8v-2.1h0.9c0.2,0,0.3,0,0.4,0.1c0.1,0,0.2,0.1,0.2,0.2 c0.1,0.1,0.1,0.2,0.1,0.3c0,0.1,0,0.3-0.1,0.4c-0.1,0.1-0.2,0.2-0.4,0.2c0.1,0,0.1,0.1,0.2,0.1c0.1,0.1,0.2,0.2,0.2,0.3l0.4,0.6 h-0.4l-0.3-0.4c-0.1-0.1-0.1-0.2-0.2-0.3c-0.1-0.1-0.1-0.1-0.1-0.1c0,0-0.1,0-0.1-0.1c0,0-0.1,0-0.2,0h-0.3v0.9H119L119,29.8z M119.2,28.6h0.6c0.1,0,0.2,0,0.3,0c0.1,0,0.1-0.1,0.2-0.1c0-0.1,0.1-0.1,0.1-0.2c0-0.1,0-0.2-0.1-0.2c-0.1-0.1-0.2-0.1-0.3-0.1 h-0.7V28.6L119.2,28.6z M119.8,27.1c0.8,0,1.5,0.7,1.5,1.5c0,0.8-0.7,1.5-1.5,1.5c-0.8,0-1.5-0.7-1.5-1.5 C118.3,27.8,119,27.1,119.8,27.1L119.8,27.1z"></path> <path fill-rule="evenodd" clip-rule="evenodd" fill="#B5B5B5" d="M81.6,41.6c-0.4,0-0.6-0.3-0.6-0.8L81,28.1c0-0.4,0.2-0.5,0.5-0.5 H84c0.4,0,0.5,0.3,0.4,0.5l-0.1,1.7c0,0.1,0.1,0.2,0.2,0.1l1.2-1.2c0.3-0.3,0.6-0.5,1-0.5l2.7-0.1c0.5,0,0.8,0.1,1.1,0.4l1.8,2.1 c0.3,0.4,0.4,0.9,0.4,1.5L91.9,41c-0.1,0.4-0.3,0.6-0.5,0.6l-1.2,0c-0.3,0-0.4-0.3-0.5-0.7L89.6,32c0-0.2-0.1-0.4-0.2-0.5l-0.8-0.8 c-0.2-0.1-0.5-0.2-0.7-0.2l-1.3,0c-0.2,0-0.4,0.1-0.6,0.3l-1.4,1.2c-0.2,0.2-0.3,0.5-0.3,0.9l-0.5,8.3c0,0.3-0.2,0.6-0.4,0.6 L81.6,41.6L81.6,41.6z"></path> <path fill-rule="evenodd" clip-rule="evenodd" fill="#B5B5B5" d="M114.5,30.5c0.1,0.2,0.4,0.3,0.6,0.2l1.6-0.9 c0.1-0.1,0.3-0.3,0.1-0.6l-1.1-1.3c-0.2-0.2-0.6-0.3-1.1-0.4l-3.1-0.6c-0.3,0-0.7,0-1,0.2l-2.8,1.3c-0.3,0.1-0.4,0.4-0.6,0.7 l-0.7,1.5c-0.1,0.3-0.1,0.6,0,1l0.8,2.1c0.2,0.5,0.4,0.7,0.8,0.8l5.4,1.4c0.4,0.1,0.7,0.3,0.8,0.6l0.7,1.5c0.1,0.5,0,1-0.3,1.2 l-2.3,1.2c-0.4,0.2-0.5,0.2-1,0l-1.3-0.7c-0.4-0.2-0.6-0.3-0.8-0.5l-0.7-0.7c-0.3-0.3-0.5-0.4-0.9-0.1l-1.5,0.8 c-0.4,0.2-0.5,0.4-0.3,0.7l1.8,1.6c0.3,0.2,0.5,0.4,0.9,0.4l3.5,0.9c0.4,0.1,0.8,0.1,1.1-0.1l3.3-1.4c0.4-0.2,0.6-0.5,0.7-0.8 l0.7-2.6c0.2-0.5,0.1-1.1-0.1-1.6l-1.1-1.7c-0.3-0.4-0.8-0.7-1.4-0.8l-4.5-1.2c-0.7-0.2-1-0.6-1.1-1.1l-0.1-1.3 c0-0.2,0-0.3,0.2-0.4l1.6-0.9c0.3-0.1,0.6-0.1,1-0.1l1.5,0.6c0.2,0.1,0.4,0.2,0.5,0.4L114.5,30.5L114.5,30.5z"></path> </g> </svg> 