<?xml version="1.0" encoding="UTF-8"?> <svg xmlns="http://www.w3.org/2000/svg" xmlns:xlink="http://www.w3.org/1999/xlink" version="1.1" id="Layer_1" x="0px" y="0px" viewBox="-109.7 356 160 80" xml:space="preserve"> <g> <path fill="#B5B5B5" d="M-42.9,396.4c-1.9-3.3-4.6-6.2-7.6-8.6c-5.4-4.2-11.1-6.6-18.1-6.6c-2.7,0-5.4,0.6-7.6,2 c-1.3,0.8-2.4,1.8-3.1,3.1c-0.2,0.4-0.5,1.1,0,1.4c0.1,0.1,0.2-0.1,0.4-0.3c0.2-0.3,0.4-0.6,0.7-0.9c1.7-2.3,4.1-3.7,7-4.2 c4.2-0.7,7.4-0.2,11.3,1c5,1.7,9.1,5,12.7,8.7c2.1,2.2,3.7,4.5,4.4,7.3c0.6,2.4,0.7,5-0.1,7.3c-0.5,1.4-1.3,2.2-2.9,2.2 c-1.4,0-2.5-0.5-3.6-1c-1.5-0.7-2.8-1.8-4.2-2.7c-1.3-0.8-1.4-0.8-2.3,0.4c-0.7,1-1.2,1.4-2,0.7c-1.3-1.1-2.5-2.2-3.7-3.3 c-0.2-0.2-0.5-0.6-0.7-0.7c-0.3-0.1-0.7-0.1-0.9,0.1c-0.2,0.2-0.4,0.6-0.3,0.7c0.5,0.8,0.4,1.7,0.3,2.6c-0.1,1-0.5,1.1-1.3,0.5 c-1.3-1-2.6-2-4-2.9c-0.9-0.6-1.5-0.1-1.5,0.9c0,1.1-0.3,2.1-1,3c-0.3,0.4-0.7,0.5-1,0.1c-0.6-0.7-1.2-1.2-1.6-2.1 c-0.2-0.6,0-0.9,0-1.3c0.1-0.6,0.2-1.3,0.1-1.9c-0.1-0.6-0.6-0.8-1.2-0.5c-0.5,0.2-0.6,0.7-0.5,1.1c0.1,0.4,0.1,1-0.1,1 c-0.7,0-2.8-0.6-3.4-0.7c-0.5-0.1-0.1-0.8-0.2-1.3c-0.3-1.3-2.5-1.6-2.9-1.6c-1.7,0-2.8,0.5-4.4,1.1c-0.8,0.3-1.6,0.7-2.4,1 c-0.1-0.4-0.2-1.1-0.3-1.4c-0.7-3.4-1.4-6.9-2.3-10.4c-0.3-1.2-0.8-2.2-1.3-3.3c-0.2-0.4-0.5-0.7-1-0.4c-0.4,0.3-0.3,0.6-0.1,1 c0.5,1.1,1,1.9,1.3,3c0.9,3.4,1.5,7,2.3,10.4c0.2,0.9,0.7,1.9,0,2.7c-0.2,0.2,0.1,1.3-0.6,1.3c-2.5,0-5.6-0.1-8.2-0.1 c-0.6,0-0.6-0.5-0.8-1c-0.8-2.4-1.1-5-1.2-7.6c0-1.5,0-2.9-0.1-4.4c0-0.2-0.3-0.6-0.5-0.6c-0.4-0.1-0.6,0.3-0.7,0.5 c-0.1,0.2-0.1,0.5-0.1,0.8c0,3.4,0.4,6.7,1.3,10c0.2,0.6,0.4,1.3,0.6,2.1c-0.6,0.1-1.8-0.2-2.5-0.5c-0.4-0.2-0.7-0.2-0.9,0.3 c-0.2,0.5-0.1,0.8,0.4,1c1.6,0.7,3.1,1.5,4.6,2.3c0.7,0.4,1.6,0.8,2.3,1.1c0.1-0.1,0.2-0.2,0.1-0.3c-1.2-0.6-2.1-1.4-2.4-2.7 c2.7,0,5.6,0.1,8.3,0.1c0.4,0,0.4,0.2,0.5,0.3c0.3,0.5,0.6,1.4,1.6,1.7c0.2,0.1,0.2,0.3,0.2,0.5c0,0.7,0,1.2-0.1,1.8 c-0.1,0.8-0.4,1-1,1.1c-0.8,0.1-2-0.2-3-0.3c0.9,0.7,2.2,1.4,3.5,1c1.8-0.6,1.4-2.2,1.4-3.6c0.3,0,1.9,0.3,2.8,0.3 c2.8,0,5-1.2,4.3-4.3c0-0.2-0.1-0.6,0.1-0.9c0.5,0.1,1.5,0.5,2.2,0.7c0.9,0.2,1,0.2,1.9,0.3c0.5,0.1,0.6,0.1,0.8,0.6 c0.5,1.3,1.2,2.3,2.3,3.1c0.9,0.7,1.8,0.6,2.4-0.4c0.5-0.7,0.8-1.5,1.2-2.3c0.2-0.4,0.5-0.5,0.9-0.3c0.6,0.4,1.3,0.8,1.9,1.2 c0.7,0.4,1,0.8,1.7,1.2c1.1,0.6,2,0.5,2.3-0.7c0.2-0.7,0.3-1.6,0.4-2.5c0.2,0.2,0.6,0.6,0.8,0.8c0.7,0.6,1.4,1.3,2.1,1.7 c1.3,0.8,2.4,0.8,3.6-0.2c0.5-0.4,0.9-0.5,1.4-0.2c0.5,0.3,1.1,0.7,1.6,1c1.8,1.1,4,2.2,6.2,2.2c1.9,0,3.1-0.7,3.8-2.1 c0.8-1.5,1-3.2,0.9-5C-41.2,400.7-41.7,398.4-42.9,396.4z M-88,404.1c-0.2-0.7,0.3-1,0.8-1.2c1.2-0.5,2.2-1.1,3.7-1.4 c0.4-0.1,0.8,0,0.8,0.5c0,0.2,0.3,0.4,0.5,0.6c0.4,0.3,0.5,0.6,0.7,1.2c-0.1,0-0.2,0.1-0.2,0.3c-1.2,0.2-2.1,0.4-3.4,0.7 c-0.5,0.1-1.4,0.2-1.9,0.2C-87.5,404.9-87.8,404.8-88,404.1z M-81.1,406.5c-0.2,0.4-0.6,0.7-1.2,1c-0.6,0.3-1.7,0.4-3.1,0.4 c-1,0-2-0.5-1.9-1.5c0-0.4,0.2-0.6,0.8-0.6c1.5,0.1,3.2-0.5,4.7-1c0.4-0.1,0.5,0.1,0.6,0.4C-81,405.7-81,406.2-81.1,406.5z"></path> <path fill="#B5B5B5" d="M-25,410.2c-2.3,0.7-3.1,0.7-4.6,0.7c-3.9-0.2-4.4-1.1-5.2-1.6c-1.2-0.9-1.3-1.9-0.7-3.1 c0.7-1.3,1.8-2.6,2.9-3.6c2.7-2.3,6-4.7,9-6.8c0.3-0.2,1.2-0.8,1.2-1.3c0-0.4-0.4-0.6-0.7-0.7c-0.3-0.1-0.9,0-1.2,0.1 c-3.1,0.9-6.3,1.1-9.6,1c-0.8,0-2.3-0.5-2.2-1.4c0-0.6,0.6-1.2,1.2-1.7c2.8-2.3,5.6-3.8,9-5.1c0.6-0.2,1-0.4,1.9-0.4 c0.5,0,1.5,0.7,1.7-0.2c0.1-0.6-1.4-0.9-1.9-0.9c-1.2,0.1-1.4,0.2-2.5,0.6c-2.8,1.1-5.5,2.7-8,4.3c-0.7,0.5-1.5,1-2.1,1.7 c-1.1,1.3-0.7,3.1,0.9,3.6c1,0.3,1.5,0.4,2.6,0.3c2.3-0.1,4.9-0.4,7-0.6c0.2,0,1-0.1,0.9,0.1c0,0.2-0.6,0.6-0.9,0.8 c-2.4,1.6-4.4,3.3-6.5,5c-1.5,1.2-3.1,3.1-4,4.6c-0.7,1.1-0.6,2.2,0.2,3.3c0.9,1.1,2.2,2,3.6,2.4c3.1,0.9,7.5-0.1,8.7-0.6 c0.4-0.2,0.9-0.4,0.8-0.7C-23.7,409.8-24.7,410.1-25,410.2z"></path> <path fill="#B5B5B5" d="M5.6,401.3c0.1-0.2-0.1-0.4-0.2-0.7c-0.1-0.8-0.6-1.1-1.5-0.8c-0.2,0.1-0.5,0.4-0.4,0.6 C3.7,400.8,5.2,402.4,5.6,401.3z"></path> <path fill="#B5B5B5" d="M44.2,402.8c-0.1-0.2-0.5-0.2-0.8-0.1c-0.6,0.2-1.6,0.6-3,0.7c-2.1,0.1-2.8,0.1-4.7,0 c-0.5,0-0.5-0.3-0.5-0.6c0.2-1.2,0.1-2.3,0.1-3.5c0-0.6-0.2-1.1-0.4-1.6c-0.1-0.3-0.4-0.6-0.8-0.6c-0.4,0-0.7,0.6-0.7,0.9 c0,0.7,0.1,1.4,0.3,2.2c0.2,0.9,0.2,1.8,0.3,3.1c-1.5-0.1-2.8-0.3-4.1-0.4c-0.5-0.1-0.7-0.3-0.7-0.7c-0.1-1.3-0.4-2.5-0.4-3.7 c0-0.3,0.1-0.6,0.2-0.8c0.8-1.5,0.8-3.1,0.6-4.7c-0.1-0.7-0.7-0.9-1.2-0.4c-0.4,0.3-0.6,0.7-0.7,1.2c-0.2,1.2-0.2,2.3-0.2,3.5 c0,0.5-0.1,0.9-0.5,1.2c-1.6,1.4-3.6,2.5-5.7,3.1c-1.4,0.5-1.2,0.6-1.2,1.9c0,0.1,0,0.1,0,0.2c0,0.6-0.3,0.7-0.8,0.6 c-0.8-0.2-1.7-0.5-2.5-0.7c-0.4-0.1-0.6-0.3-0.5-0.8c0.1-0.8-0.5-1.7-1.3-1.8c-1.4-0.2-2.8-0.2-4.2,0.4c-1.3,0.5-2.5,1-3.8,1.5 c-0.8,0.3-1.4,0.8-1.5,1.6c0,0.3-0.1,0.7-0.2,0.8c-0.1,0.1-0.3,0.1-0.3,0c-0.2-0.4-0.1-0.8-0.1-1.2c0-0.6-0.5-1.1-0.9-1.1 c-0.2,0-0.6,0.3-0.8,0.6c-0.6,1-1.2,1.5-1.8,2c-0.7,0.6-1.5,0.8-2.4,0.3c-1.4-0.9-2.4-3.7-1.9-5.4c0.5-1.5,0.9-3.1,1.4-4.7 c0.2-0.6-0.1-1.1-0.6-1.2c-0.4-0.1-0.9,0-1.2,0.2c-0.4,0.3-0.6,0.9-0.8,1.4c-0.7,1.6-0.5,3.4-0.5,5.1c0,0.3,0,0.6-0.1,0.8 c-0.8,1.4-1.2,2.7-2.4,4c-1.8,2-4.3,1.9-6-0.2c-0.8-0.9-1.3-2.2-1.6-3.3c-0.4-1.4-0.6-1.9,0.5-3.4c1.8-2.5,3.5-5.3,4.7-8.1 c0.6-1.5,1.4-3.4,1.7-4.7c0.1-0.2,0.1-0.8-0.2-0.8c-0.2,0-0.3,0.4-0.4,0.6c-0.5,1.7-1,3.1-1.8,4.6c-1.5,2.7-2,3.6-3.7,6.3 c-0.1,0.1-1.1,1.7-1.3,1.9c0-2.7,0.3-5.4,1-7.9c0.9-3.1,2-6,3.9-8.6c1-1.3,1.9-1.7,2.7-0.9c0.4-0.4,0.4-0.9,0-1.2 c-0.9-0.9-1.9-1-2.7,0.1c-1,1.3-2.1,2.6-2.8,4.1c-2.3,4.8-3.4,9.9-3.2,15.3c0,0.4-0.1,1-0.4,1.4c-1.3,1.7-2.7,3.2-4.1,5 c-0.2,0.3-0.4,0.4-0.8,0.2c-0.5-0.2-0.9,0-1.1,0.5c-0.2,0.5-0.1,0.9,0.3,1.2c0.5,0.3,1,0.3,1.5,0c0.3-0.2,0.6-0.4,0.8-0.7 c1.4-1.5,2.4-3,3.6-4.7c0.1-0.1,0.2-0.3,0.4-0.5c0,0.2,1.6,4.3,3.4,5.5c1.4,0.9,2.6,1.4,4.4,0.8c1.1-0.4,1.8-1.3,2.5-2.2 c0.7-0.9,1.1-2,1.7-3c0.6,0.7,1.2,1.9,1.7,2.8c0.7,1.1,2.1,1.4,3.3,1c1-0.3,1.7-0.7,2.4-1.5c0.6,0.5,1.1,0.5,1.7,0.5 c0.5,0.1,0.7,0.2,0.9,0.7c0.4,1.1,1.3,1.7,2.4,2.1c1.6,0.6,3.3,0.7,5,0.1c1.9-0.6,2.5-1.3,2.4-3.1c-0.1-1.4-0.1-1.7-0.1-1.8 c0.4,0.1,0.8,0.2,1.2,0.3c1.2,0.3,2.2,0.5,3.5,0.7c1.2,0.1,2-0.8,1.7-2c-0.1-0.4,0.1-0.7,0.4-0.8c2.9-1.3,5.2-3.2,5.4-3.3 c0.2,1.2,0.4,2.2,0.6,3.3c-0.3,0-2.4-0.1-2.7-0.1c-1.5,0-1.2,0-2.6,0c-0.6,0-0.9,0.6-0.7,1c0.1,0.2,3.1,3.3,4.7,4.8 c0.6,0.5,1.2,0.8,1.7,1c0.6,0.3,1.5,0.5,2.1,0.1c0.6-0.4,0.2-1.1,0.1-1.8c-0.3-1.2-0.6-2.6-0.9-4c1.5,0.2,2.9,0.3,4.1,0.4 c0.3,1.4,0.7,2.6,1.1,3.7c0.1,0.3,0.6,0.7,0.9,0.8c0.5,0.1,0.9-0.6,0.7-0.7c-0.9-0.3-0.9-2.3-1.4-3.7c0.4,0,2.6,0.1,3.9,0 c1.3-0.1,3.7-0.2,4.7-1C44.2,403,44.2,403,44.2,402.8z M-3.4,397.5C-3.3,397.4-3,397-3,397s0.1,0.3,0,0.8c-0.1,0.2-0.4,0.6-0.4,0.6 S-3.4,397.8-3.4,397.5z M7.5,405.3c-0.5-0.6-0.4-1.1,0.3-1.4c1.3-0.7,2.5-1.4,3.8-1.7c0.2,0,0.6-0.1,0.7,0.3 c0.3,0.9,0.7,0.8,1.1,1.3c0.4,0.5,0.2,0.9-0.4,1c-1.5,0.5-2.9,0.8-4.4,0.8C8.1,405.6,7.7,405.6,7.5,405.3z M12.7,408.3 c-1.3,0.4-2.2,0.4-3.6,0.2c-0.3-0.1-0.8-0.4-1-0.7c-0.5-1.1-0.2-1.3,0.7-1.3c1.3,0,3-0.1,5.3-1C14.8,406.8,14.3,407.9,12.7,408.3z M14.5,402.5c-0.1-0.1-0.1-0.3-0.1-0.3s0.3,0,0.4,0.1c0.1,0.1,0.3,0.4,0.3,0.4S14.6,402.6,14.5,402.5z M28.3,408.2 c-1.5-1.3-2.5-2.3-4.1-3.6c-0.5-0.4,0-0.8,0.9-0.8c1,0.1,1.9,0.1,2.9,0.1c0.2,0,0.5,0.2,0.5,0.4c0.2,1.4,0.7,2.6,1.1,4.2 C28.9,408.6,28.6,408.4,28.3,408.2z"></path> <path fill="#B5B5B5" d="M41.1,406.2c-0.7,0-1.3,0.6-1.3,1.3c0,0.7,0.6,1.3,1.3,1.3c0.7,0,1.3-0.6,1.3-1.3 C42.4,406.8,41.8,406.2,41.1,406.2z M41.1,408.5c-0.6,0-1-0.5-1-1c0-0.6,0.4-1,1-1c0.6,0,1,0.5,1,1 C42.1,408.1,41.7,408.5,41.1,408.5z"></path> <path fill="#B5B5B5" d="M41.4,407.6L41.4,407.6c0.2-0.1,0.3-0.2,0.3-0.3c0-0.1-0.1-0.2-0.1-0.3c-0.1-0.1-0.2-0.1-0.4-0.1 c-0.2,0-0.4,0-0.5,0v1.3h0.3v-0.5H41c0.2,0,0.2,0.1,0.3,0.2c0,0.1,0.1,0.3,0.1,0.3h0.3c0,0-0.1-0.1-0.1-0.3 C41.6,407.7,41.5,407.6,41.4,407.6z M41,407.5h-0.1v-0.4c0,0,0.1,0,0.2,0c0.2,0,0.3,0.1,0.3,0.2C41.3,407.4,41.2,407.5,41,407.5z"></path> </g> </svg> 