<?xml version="1.0" encoding="UTF-8"?> <svg xmlns="http://www.w3.org/2000/svg" xmlns:xlink="http://www.w3.org/1999/xlink" version="1.1" id="Layer_1" x="0px" y="0px" viewBox="0 0 136 68.2" xml:space="preserve"> <g> <path fill="#B5B5B5" d="M46.3,40.2c0-0.1-0.1-0.2-0.1-0.4c0-0.2,0-0.5,0-0.7C46,38.6,46,38,45.8,37.5c-0.3-1.3-0.3-2.7-0.4-4 c-0.2-1-0.4-2-0.9-3c-0.1-0.1-0.2-0.2-0.2-0.3c-0.1-0.1-0.1-0.3-0.2-0.4c-0.2-0.4-0.5-0.6-0.7-1c-0.1-0.2-0.2-0.4-0.4-0.5 c-0.2-0.1-0.4-0.3-0.5-0.4c-0.4-0.4-0.9-0.7-1.4-0.9c-0.4-0.2-0.9-0.3-1.4-0.3c-0.4,0-0.9,0.2-1.3,0.3c-0.2,0-0.3,0-0.5,0 c-0.1,0-0.2,0.1-0.3,0.3c-0.2,0.2-0.5,0.4-0.7,0.5c-0.1,0.1-0.3,0.1-0.4,0.2c-0.2,0.1-0.4,0.3-0.5,0.4c-0.1,0.2-0.3,0.3-0.4,0.5 c-0.4,0.4-0.7,0.8-0.9,1.3c-0.1,0.2-0.2,0.5-0.3,0.7c0,0.1-0.5,0.8-0.5,0.8c-0.1-0.5,0-1.1,0.1-1.6c0.1-2.9,0.2-5.8,0.3-8.7 c0-1,0.2-1.9,0.3-2.9c0-1.3,0.1-2.6-0.1-3.9c0-0.2,0-0.5-0.1-0.7c-0.1-0.1-0.2-0.1-0.3-0.3c0-0.1,0-0.3,0-0.4 c-0.2-0.1-0.2-0.2-0.3-0.4c0-0.1-0.1-0.1-0.1-0.2c0-0.1,0-0.1-0.1-0.2c-0.1-0.1-0.3-0.2-0.5-0.2c-0.1,0-0.4-0.1-0.6-0.1 c-0.1,0.1-0.2,0.3-0.4,0.3c-0.1,0-0.4-0.1-0.5,0c-0.4,0.1-0.2,1-0.2,1.3c-0.1,0.6,0,1.3-0.3,1.9c0.5,0.9,0,1.7,0,2.6 c0.1,1.4-0.2,2.9-0.3,4.3c-0.1,2.7-0.2,5.4-0.3,8.1c0,0.7-0.1,1.3-0.1,2c0,0.4,0.1,0.8,0.1,1.3c0,1.8-0.1,3.5-0.2,5.3 c0,0.8,0,1.5,0,2.3c0,0.4,0,0.8,0.1,1.2c0,0.3,0,0.7,0.1,1c0.1,0.2,0.3,0.2,0.5,0.2c0,0.1,0,0.1,0.1,0.2c0,0,0,0.1,0,0.1 c0,0,0.1,0,0.1,0c0.1,0.1,0,0.2,0.1,0.3c0,0,0,0.1,0.1,0.1c0,0,0.1,0,0.1,0c0,0,0,0.1,0,0.1c0.2,0.2,0.4,0.3,0.7,0.5 c0.8,0.7,1.9,0.4,2.2-0.6c0.2-0.6,0.2-1.1,0.3-1.7c0.1-0.4,0-0.8,0.1-1.2c0-0.3,0.1-0.7,0.2-1c0-0.1,0.1-0.2,0.1-0.3 c0-0.1,0-0.2,0-0.3c0-0.4,0.2-0.8,0.2-1.2c0-0.3,0.2-0.4,0.3-0.7c0.1-0.3,0.1-0.6,0.2-0.8c0.1-0.2,0.1-0.5,0.1-0.7 c0.1-0.3,0.3-0.7,0.4-1c0-0.1,0-0.2,0.1-0.4c0.1-0.1,0.3-0.2,0.4-0.4c0.1-0.1,0.1-0.4,0.2-0.5c0.1-0.4,0.4-0.5,0.6-0.9 c0.2-0.3,0.4-0.7,0.6-1c0.4-0.6,0.8-1.2,1.4-1.5c0.4-0.2,0.8-0.1,1.1,0.1c0.2,0.1,0.3,0.3,0.4,0.5c0.1,0.2,0.1,0.4,0.2,0.6 c0,0.1,0.1,0.2,0.1,0.3c0.1,0.2,0,0.4,0.1,0.7c0,0.5,0.3,1,0.4,1.6c0,0.4,0.1,0.9,0.1,1.3c0.2,1.1,0.6,2.2,0.7,3.3 c0,0.2,0,0.3,0,0.5c0,0.2,0,0.5,0.1,0.7c0,0.1,0.1,0.2,0.2,0.3c0.1,0.1,0.1,0.1,0.2,0.1c0.1,0.1,0,0.2,0.1,0.3c0.1,0,0.2,0,0.3,0 s0.1,0,0.1,0.1c0.3,0.2,0.7,0.4,1,0.5c0.2,0.1,0.3,0,0.5,0c0,0,0,0.1,0.1,0.1c0.1,0,0.2,0,0.3,0c0.3-0.1,0.5-0.2,0.6-0.4 c0.1-0.2,0.1-0.4,0.1-0.7C46.2,40.5,46.3,40.3,46.3,40.2z"></path> <path fill="#B5B5B5" d="M46.8,32.4c0.1,0.3,0,0.6,0.1,0.8c0.1,0.3,0.1,0.6,0.1,1c0.1,0.5,0.3,0.9,0.3,1.4c0,0.4,0.1,0.8,0.3,1.2 c0.1,0.3,0.2,0.6,0.3,1c0.5,1.2,0.9,2.3,1.7,3.3c0.8,0.9,1.7,1.6,2.9,1.9c1.7,0.4,4-0.6,5.3-1.7c0.6-0.5,1-1.1,1.4-1.7 c0.2-0.3,0.3-0.6,0.5-0.9c0.2-0.3,0.3-0.6,0.4-1c0-0.1,0.1-0.1,0.2-0.2c0.1-0.1,0.1-0.2,0.2-0.3c0.2-0.2,0.3-0.3,0.3-0.6 c0-0.1,0-0.2,0-0.3c0-0.1,0.1-0.3,0.2-0.4c0.1-0.2,0.1-0.5,0.2-0.7c0.1-0.1,0.1-0.1,0.1-0.2c0-0.1,0-0.2,0-0.2 c0.1-0.4,0.3-0.8,0.2-1.1c0-0.2-0.1-0.3-0.1-0.4c0-0.1,0.2-0.3,0.2-0.4c0.1-0.3,0.1-0.5,0.1-0.8c0.1-0.9,0.3-1.9,0.6-2.8 c0.2-0.6,0.4-1.6,0.2-2.3c-0.1-0.2-0.3-0.2-0.3-0.4c-0.3,0-0.3-0.3-0.5-0.3c0.1-0.3-0.2-0.5-0.5-0.4c0-0.4-0.2-0.3-0.4-0.6 C60.6,25,60.6,25,60.2,25c-0.3-0.6-1.1,0-1.3,0.4c-0.3,0.8,0,1.7-0.1,2.5c-0.1,0.5-0.2,1-0.3,1.5c0,0.4,0.1,0.8,0,1.2 c-0.1,0.5-0.3,0.9-0.4,1.4c-0.1,0.6-0.1,1.3-0.4,1.9c-0.2,0.4-0.3,0.7-0.4,1.1c-0.3,0.6-0.4,1.3-0.6,1.8c-0.8,1.6-1.9,2.6-3.8,2.4 c-0.8-0.1-1-0.4-1.2-1.2c-0.1-0.3-0.1-0.6-0.3-0.9c-0.1-0.3-0.3-0.5-0.3-0.7c-0.1-0.2,0-0.5-0.1-0.7c-0.1-0.2-0.2-0.2-0.3-0.4 c-0.1-0.2,0-0.5-0.1-0.7c0-0.2,0-0.5,0-0.7c-0.1-0.6-0.3-1.2-0.3-1.8c-0.1-0.6-0.1-1.2-0.1-1.8c0,0,0,0,0-0.1c0-0.3,0-1-0.2-1.2 c-0.1-0.1-0.5-0.1-0.7-0.2c-0.2-0.1-0.4,0-0.7-0.1c-0.3-0.1-0.1-0.1-0.4,0.1c-0.1,0.1-0.4,0.1-0.6,0.2c-0.3,0-0.8,0.1-1,0.3 c-0.1,0.1-0.1,0.2-0.1,0.3c-0.1,0.1-0.1,0.1-0.1,0.3c-0.1,0.7,0.3,1.3,0.3,2.1C46.6,32,46.7,32.2,46.8,32.4z"></path> <path fill="#B5B5B5" d="M103.5,38.1c0-0.1,0-0.3,0-0.4c0-0.2-0.1-0.4-0.2-0.6c-0.1-0.2-0.2-0.3-0.3-0.5c0-0.1,0-0.3-0.1-0.4 c-0.1-0.1-0.1-0.3-0.2-0.4c-0.1-0.1,0-0.3-0.1-0.4c-0.1-0.3-0.1-0.7-0.3-0.9c-0.1-0.1-0.2-0.2-0.2-0.4c0-0.1,0-0.1-0.1-0.2 c0-0.1-0.1-0.1-0.2-0.2c-0.1-0.2-0.2-0.3-0.3-0.5c-0.1-0.1-0.1-0.2-0.3-0.3c-0.1-0.1-0.1-0.1-0.1-0.2c-0.1-0.1-0.1-0.2-0.2-0.3 c0-0.1-0.1-0.1-0.2-0.2c-0.1-0.1-0.1-0.2-0.2-0.2c0,0-0.1,0-0.1-0.1c0,0,0,0,0,0c0,0-0.1,0-0.1-0.1c0,0,0-0.1,0-0.1c0,0,0,0-0.1,0 c0,0,0,0,0-0.1c-0.1-0.1-0.3-0.1-0.4-0.1c0,0-0.1,0-0.1-0.1c0-0.1-0.1-0.1-0.1-0.1c-0.1-0.1-0.3-0.1-0.4-0.1 c-0.1,0-0.2-0.1-0.3-0.1c-0.3,0-0.6,0-0.9,0c-0.1,0,0.1,0-0.1,0c-0.1,0-0.3,0-0.3,0c0,0,0,0.1-0.1,0.1c-0.1,0.1-0.3,0-0.4,0.1 c-0.1,0.1-0.1,0.1-0.2,0.2c-0.1,0.1-0.2,0.1-0.3,0.1c-0.1,0.1-0.3,0.2-0.4,0.3c-0.1,0.1-0.2,0.1-0.3,0.2c0,0-0.1,0.1-0.1,0.1 c0,0-0.1,0-0.1,0c0,0,0,0,0,0c0,0-0.1,0-0.1,0.1c0,0,0,0.1,0,0.1c0,0-0.1,0.1-0.1,0.1c0,0-0.1,0-0.1,0.1c0,0-0.1,0.1-0.1,0.1 c0,0.1-0.1,0.1-0.2,0.2c-0.1,0.1-0.1,0.1-0.1,0.2c0,0.1-0.1,0.1-0.2,0.2c-0.1,0.1-0.1,0.1-0.1,0.2c0,0-0.1,0.1-0.1,0.1 c0,0-0.1,0-0.1,0c-0.1,0-0.1,0.1-0.2,0.1c-0.1,0-0.1-0.2-0.1-0.3c0-0.2,0-0.3-0.1-0.4c-0.1-0.2-0.1-0.5-0.3-0.8 c-0.1-0.1-0.1-0.3-0.1-0.4c0-0.2-0.3-0.3-0.4-0.4c0-0.1,0-0.2-0.1-0.3c-0.1-0.1-0.3-0.1-0.4-0.2c-0.2-0.1-0.4-0.3-0.7-0.4 c-0.3-0.1-0.5-0.2-0.8-0.2c-0.1,0-0.2,0-0.4,0c-0.2,0-0.4,0-0.6,0c-0.1,0-0.2,0-0.3,0.1c-0.1,0-0.2,0-0.3,0.1c0,0-0.1,0-0.1,0 c-0.1,0-0.1,0-0.1,0.1c-0.1,0.1-0.3,0.2-0.4,0.2c-0.1,0-0.2,0-0.4,0.1c-0.1,0-0.1,0.1-0.2,0.1c0,0-0.1,0.1-0.1,0.1 c-0.2,0.1-0.4,0.3-0.5,0.5c-0.1,0.1-0.2,0.2-0.3,0.2c-0.1,0.1-0.1,0.1-0.2,0.2c-0.1,0.1-0.2,0.1-0.3,0.2c-0.1,0.1-0.2,0.2-0.3,0.3 c-0.1,0.1-0.3,0.2-0.4,0.4c-0.1,0.2-0.2,0.3-0.3,0.5c-0.1,0.1-0.2,0.3-0.3,0.4c0,0-0.1,0.1-0.1,0.1c-0.1,0.2-0.3,0.4-0.4,0.6 c0-0.3,0-0.5,0-0.8c0-0.4-0.1-0.8-0.2-1.2c0-0.1-0.1-0.3-0.1-0.4c0-0.2-0.1-0.4-0.1-0.7c0-0.2-0.1-0.3-0.2-0.4c0-0.1,0-0.2-0.1-0.3 c-0.1-0.1-0.1-0.2-0.1-0.4c0-0.1-0.1-0.2-0.1-0.2c-0.1-0.1-0.1-0.2-0.1-0.3c-0.1-0.2-0.3-0.4-0.5-0.6c-0.2-0.3-0.3-0.6-0.5-0.8 c-0.3-0.3-0.7-0.6-1-0.8c-0.4-0.1-0.8-0.3-1.2-0.4c-0.4-0.1-0.8,0-1.2,0.1c-0.3,0-0.5,0.2-0.8,0.2c-0.3,0-0.1,0.1-0.3,0.2 c-0.1,0.1-0.3,0-0.5,0.1C78.2,28,78.2,28,78,28.1c-0.1,0.1-0.3,0.1-0.4,0.2c-0.2,0.1-0.3,0.3-0.5,0.4c-0.3,0.3-0.6,0.6-0.8,0.9 s-0.5,0.6-0.7,0.9c-0.1,0.1-0.2,0.2-0.3,0.3c-0.1,0.1-0.2,0.3-0.3,0.5c-0.1,0.2-0.2,0.2-0.4,0.2c-0.2-0.1-0.1-0.4-0.1-0.6 c0-0.2-0.1-0.4-0.2-0.6c-0.2-0.3-0.2-0.7-0.4-1.1c-0.1-0.2-0.1-0.4-0.1-0.6c-0.1-0.3-0.4-0.4-0.5-0.6c-0.1-0.1,0-0.3-0.1-0.4 c-0.1-0.1-0.4-0.2-0.5-0.3c-0.3-0.2-0.5-0.4-0.8-0.6c-0.3-0.2-0.7-0.3-1.1-0.3c-0.1,0-0.3,0-0.4,0c-0.2,0-0.4-0.1-0.6,0 c-0.3,0-0.5,0.1-0.8,0.2c-0.5,0.2-0.9,0.4-1.4,0.6c-0.2,0.1-0.3,0.3-0.5,0.4c-0.1,0.1-0.3,0.1-0.4,0.2c-0.1,0.1-0.1,0.1-0.2,0.2 c-0.1,0.1-0.1,0.1-0.2,0.2c-0.3,0.3-0.4,0.5-0.6,0.8c-0.1,0.1-0.2,0.3-0.3,0.4c-0.1,0.1-0.2,0.3-0.3,0.4c-0.1,0.1-0.2,0.2-0.3,0.4 c-0.1,0.2-0.2,0.4-0.3,0.5c-0.1,0.2-0.3,0.4-0.4,0.6c-0.1,0.3-0.2,0.5-0.3,0.8c-0.1,0.2-0.1,0.4-0.3,0.7c0,0.1-0.1,0.1-0.1,0.2 c-0.1,0.4-0.4,0.7-0.5,1.1c0,0.2-0.2,0.5-0.3,0.7c-0.1,0.3-0.2,0.6-0.3,0.9c0,0.3-0.2,0.6-0.3,0.9c0,0.1-0.1,0.2-0.1,0.3 c-0.3,0.6-0.4,1.2-0.5,1.8c0,0.1-0.1,0.3-0.1,0.4c0,0.1,0,0.3,0,0.4c0.1,0,0.1,0.1,0.1,0.2c0,0.1,0,0.1,0,0.2c0,0,0.1,0,0.1,0.1 c0,0.1,0,0.2,0,0.3c0,0.1,0.1,0,0.1,0.1c0.1,0.1,0,0.3,0.1,0.4c0,0.1,0.1,0.3,0.2,0.4c0.1,0.1,0.3,0.2,0.4,0.4 c0.2,0.2,0.4,0.3,0.7,0.4c0.3,0,0.8-0.1,0.9-0.4c0-0.1,0-0.1,0.1-0.2c0-0.1,0.1-0.1,0.1-0.2c0-0.1,0-0.1,0-0.2c0-0.1,0-0.1,0.1-0.3 c0-0.1,0-0.3,0-0.4c0-0.1,0.1-0.3,0.1-0.4c0-0.1,0-0.1,0-0.2c0-0.1,0-0.1,0.1-0.2c0-0.1,0-0.3,0-0.4c0-0.2,0-0.3,0-0.5 c0.1-0.2,0.1-0.2,0.1-0.4c0-0.2,0-0.4,0.1-0.5c0.1-0.2,0.1-0.4,0.2-0.6c0.1-0.2,0.2-0.4,0.2-0.7c0-0.2,0.1-0.4,0.2-0.7 c0.1-0.3,0.2-0.6,0.4-0.9c0.1-0.2,0.2-0.4,0.4-0.7c0.1-0.1,0.1-0.2,0.2-0.4c0-0.1,0-0.3,0.1-0.4c0.1-0.1,0.3-0.2,0.3-0.4 c0-0.1,0-0.3,0.1-0.4c0-0.1,0.1-0.1,0.2-0.1c0.1-0.1,0.2-0.3,0.3-0.5c0.1-0.1,0.1-0.2,0.2-0.3c0.1-0.3,0.3-0.5,0.5-0.7 c0.1-0.1,0-0.1,0.1-0.2c0.1-0.1,0.1-0.1,0.3-0.2c0.2-0.1,0.3-0.2,0.5-0.2c0.2-0.1,0.5-0.1,0.7-0.1c0.3,0,0.6,0,0.9,0.1 c0.2,0,0.4,0.1,0.6,0.3c0.2,0.1,0.2,0.3,0.3,0.4c0.2,0.3,0.1,0.7,0.2,1.1c0.1,0.6,0.1,1.1,0,1.6c0,0.6-0.1,1.2,0,1.8 c0,0.1,0.1,0.1,0.1,0.2s0.1,0.2,0,0.3c0,0.5-0.1,0.4,0,1c0,0.1,0,0.2,0,0.3c0,0,0.1,0.1,0.1,0.1c0,0.1-0.1,0.2-0.1,0.3 c0,0.1,0.1,0.1,0,0.3c0,0.1-0.1,0.2,0,0.4c0,0.1,0.1,0.1,0.1,0.2c0,0.1,0,0.3,0,0.4c0,0.2,0,0.2,0.1,0.3c0.2,0.1,0.5,0.1,0.6,0.4 c0.4,0,0.9-0.1,1.3-0.1c0.3,0,0.4-0.1,0.3-0.4c0.1,0,0.3,0,0.4-0.1c0,0,0-0.2,0-0.3c0.1-0.9,0.6-1.1,0.8-1.9 c0.1-0.2,0.1-0.4,0.2-0.6c0-0.1,0-0.2,0.1-0.2c0.1-0.1,0.1-0.1,0.2-0.3c0-0.1,0-0.2,0-0.3c0-0.1,0.1-0.1,0.1-0.2 c0.1-0.1,0.1-0.2,0.1-0.3c0-0.1,0.1-0.2,0.1-0.3c0.1-0.3,0.2-0.5,0.3-0.7c0.1-0.2,0.1-0.4,0.2-0.6c0.1-0.3,0.4-0.6,0.6-0.9 c0.1-0.1,0.1-0.3,0.2-0.4c0.1-0.1,0.3-0.2,0.4-0.3c0.1-0.1,0.1-0.1,0.2-0.2c0.1-0.1,0.2-0.2,0.4-0.3c0,0,0.1,0,0.1,0 c0,0,0.1-0.1,0.1-0.1c0.1-0.1,0.3-0.1,0.4-0.1c0.1,0,0.2-0.1,0.4-0.1c0.2,0,0.3-0.1,0.5-0.1c0.2,0,0.4,0.1,0.6,0.1 c0.4,0.2,0.9,0.4,1.2,0.7c0.2,0.2,0.3,0.5,0.4,0.8c0.2,0.4,0.3,0.9,0.4,1.3c0.3,1.2,0.3,2.4,0.3,3.6c0,0.2,0,0.4,0,0.5 c0,0.1,0,0.2,0,0.3c0,0.1,0,0.2,0.1,0.3c0,0.1,0.1,0.3,0.1,0.4c0,0.2,0,0.2,0.1,0.3c0.4,0.3,0.6,0.9,1.2,0.9c0.1,0,0.2,0,0.3,0 c0.1,0,0.1,0,0.2-0.1c0.1-0.1,0.2-0.1,0.2-0.2c0.1-0.2,0.3-0.5,0.4-0.7c0,0,0-0.1,0-0.2c0-0.1,0-0.1,0.1-0.1c0-0.1,0-0.2,0.1-0.3 c0-0.1,0-0.2,0.1-0.3c0.1-0.1,0.1-0.1,0.1-0.3c0-0.1,0.1-0.2,0.1-0.3c0.1-0.1,0.1-0.3,0.2-0.4c0.1-0.1,0.2-0.3,0.2-0.4 c0.1-0.1,0.1-0.3,0.2-0.4c0.1-0.2,0.2-0.4,0.4-0.6c0.1-0.1,0.2-0.3,0.3-0.4c0.1-0.1,0.1-0.1,0.2-0.2c0-0.1,0-0.2,0.1-0.3 c0.1-0.1,0.2-0.1,0.3-0.2c0-0.1,0-0.2,0.1-0.3c0,0,0.1,0,0.1-0.1c0.1-0.1,0.2-0.2,0.3-0.3c0.2-0.2,0.4-0.3,0.7-0.5 c0.2-0.1,0.3-0.2,0.4-0.3c0.2-0.1,0.3-0.1,0.5-0.1c0.4-0.1,0.3-0.1,0.7-0.1c0.1,0,0.3,0.1,0.4,0.1c0,0,0.1,0,0.1,0.1 c0.1,0,0.1,0.1,0.1,0.2c0.1,0.1,0.2,0.3,0.2,0.4c0,0.1,0,0.1,0.1,0.2c0,0.1,0.1,0.1,0.1,0.2c0,0.1,0,0.2,0.1,0.4 c0,0.2,0,0.3,0.1,0.5c0,0.2,0,0.3,0,0.5c0,0.1,0,0.2,0,0.3s0,0.2,0,0.3c0,0.1,0,0.2,0,0.3c0,0.2,0,0.4,0,0.6c0,0.1,0,0.1,0,0.1 c0,0,0,0.1,0,0.1c0,0.1,0,0.1,0,0.2c0,0.1,0,0.1,0,0.2c0,0.1-0.1,0.1,0,0.2c0,0,0,0,0,0.1c0,0,0,0.1,0,0.1c0,0.1,0,0.1,0,0.2 c0,0,0,0.1,0.1,0.1c0,0,0,0.1,0.1,0.1c0,0,0.1,0,0.1,0.1c0.1,0,0.1,0,0.1,0c0.1,0,0.1,0,0.2,0c0,0,0.1,0,0.1,0c0,0,0.1,0,0.1,0 c0,0,0.1,0,0.1,0c0,0,0,0,0.1-0.1c0,0,0,0,0.1,0c0,0,0.1,0,0.1,0c0.1,0,0.1,0,0.2-0.1c0,0,0.1,0,0.1-0.1c0.1,0,0.1,0,0.2,0 c0.1,0,0.1-0.1,0.2-0.2c0.1-0.1,0.1-0.1,0.2-0.1c0.1-0.1,0.1-0.2,0.2-0.3c0,0,0.1,0,0.1-0.1c0-0.1,0-0.1,0-0.2 c0-0.1,0.1-0.2,0.1-0.3c0-0.1,0.1-0.1,0.1-0.2c0,0,0.1-0.1,0.1-0.2c0.1-0.1,0.1-0.3,0.2-0.4c0,0,0.1,0,0.1,0c0,0,0-0.1,0-0.1 c0,0,0-0.1,0.1-0.1c0,0,0-0.1,0.1-0.1c0.1-0.2,0.2-0.3,0.4-0.5c0.1-0.1,0.2-0.3,0.3-0.4c0.2-0.2,0.4-0.4,0.6-0.7 c0.1-0.1,0.2-0.1,0.3-0.2c0.1-0.1,0.1-0.1,0.2-0.1c0.1,0,0.2-0.1,0.3-0.2c0,0,0.1,0,0.1,0c0.1,0,0.1-0.1,0.1-0.1c0,0,0.1,0,0.1,0 c0.1,0,0.1,0,0.2-0.1c0.1,0,0.3,0,0.4,0.1c0.1,0.1,0.2,0,0.3,0s0.2,0,0.3,0c0.3,0,0.3,0.5,0.6,0.5c0,0.1,0.1,0.2,0.2,0.3 c0,0,0.1,0.1,0.1,0.1c0,0,0,0.1,0,0.1c0,0,0.1,0,0.1,0c0.1,0.1,0.1,0.1,0.1,0.2c0.1,0.1,0.1,0.2,0.1,0.3c0.1,0.1,0.2,0.1,0.2,0.3 c0,0.1,0,0.1,0,0.2c0,0.1,0.1,0.1,0.2,0.2c0.1,0.1,0.1,0.3,0.2,0.4c0.2,0.3,0.3,0.7,0.4,1.1c0.1,0.2,0.2,0.3,0.2,0.5 c0.1,0.3,0.2,0.4,0.3,0.7c0.1,0.3,0.1,0.5,0.3,0.8c0.1,0.3,0.3,0.9,0.7,0.8c0.1,0,0.3-0.1,0.3-0.2c0.1-0.1,0.1-0.1,0.1-0.3 c0-0.1,0-0.2,0.1-0.3c0-0.3,0-0.5,0-0.7C103.6,38.4,103.5,38.3,103.5,38.1z"></path> <path fill="#B5B5B5" d="M90.6,49.9c0-0.1,0-0.2,0-0.3c-0.1-0.3-0.1-0.7-0.1-1c0-0.3-0.1-0.6-0.2-0.9c-0.1-0.1-0.1-0.3-0.2-0.4 c0-0.1-0.1-0.1-0.1-0.2c0,0-0.1-0.1-0.1-0.1c0,0,0-0.1-0.1-0.1c-0.1,0-0.1-0.1-0.2-0.2c0-0.1-0.1-0.1-0.1-0.1c-0.1,0-0.1,0-0.2,0 c0,0-0.1,0-0.1-0.1c-0.1,0-0.1,0-0.2,0c0,0,0,0-0.1,0c-0.1,0-0.2,0-0.3,0c-0.1,0-0.1,0-0.2,0c-0.1,0-0.2,0-0.3,0.1 c-0.1,0-0.1,0-0.2,0.1c-0.1,0-0.1,0.1-0.2,0.2c-0.2,0.1-0.3,0.3-0.4,0.4c-0.1,0.1-0.1,0.1-0.2,0.2c0,0.1,0,0.1-0.1,0.2 c0,0-0.1,0-0.1,0c0,0,0-0.1,0-0.1c0-0.2,0-0.4,0-0.6c0-0.1,0-0.3,0-0.4c0-0.1,0-0.2,0-0.3c0-0.3,0-0.6,0-0.9c0-0.2,0-0.4,0.1-0.6 c0-0.1,0-0.2,0-0.2c0-0.1,0-0.1,0-0.2c0-0.1,0-0.1,0-0.2c0,0,0-0.1,0-0.1c0-0.1,0-0.2,0-0.3c0-0.1,0-0.3,0.1-0.4c0,0,0-0.1,0-0.2 c0-0.1-0.1-0.1-0.1-0.2c0-0.1,0-0.2-0.1-0.2c0-0.1-0.1-0.1-0.1-0.2c-0.1-0.1-0.2-0.1-0.4-0.1c-0.1,0-0.2,0-0.3,0 C86,42.6,86,42.7,86,42.9c0,0,0,0.1,0,0.1c0,0.1,0,0.1,0,0.2s0,0.1,0,0.2c0,0.1,0,0.3,0,0.4c0,0.1-0.1,0.2,0,0.3c0,0.1,0,0.2,0,0.3 c0,0.5-0.1,0.9-0.1,1.4c0,0.2,0,0.5,0,0.7c0,0.1,0,0.2,0,0.3c0,0.1-0.1,0.2,0,0.3s0,0.2,0,0.3c0,0.1,0,0.2,0,0.3 c0,0.2-0.1,0.4-0.1,0.6c0,0.1,0,0.3,0,0.4c0,0.4,0,0.8-0.1,1.3c0,0.2,0,0.3-0.1,0.5c0,0.1-0.1,0.2-0.2,0.2 c-0.1,0.1-0.1,0.1-0.2,0.2c-0.1,0.1-0.3,0.1-0.4,0.2c-0.3,0-0.6,0-0.9,0c-0.3,0-0.6,0-0.9-0.1c-0.2,0-0.3-0.1-0.5-0.1 c-0.1,0-0.2-0.1-0.3-0.2c-0.1-0.1-0.2-0.1-0.2-0.2c0-0.1-0.1-0.1-0.1-0.3c0-0.1,0-0.2,0-0.3c0-0.1,0-0.3,0-0.4c0-0.1,0-0.1,0.1-0.2 c0.1-0.2,0.1-0.3,0.2-0.5c0.1-0.1,0.1-0.2,0.2-0.3c0-0.1,0.1-0.2,0.1-0.2c0,0,0.1-0.1,0.1-0.1c0.1-0.1,0.1-0.2,0.2-0.3 c0.1-0.1,0.2-0.1,0.3-0.2c0.1-0.1,0.2-0.1,0.3-0.2c0.1-0.1,0.2-0.1,0.4-0.2c0,0,0.1,0,0.1,0c0.1,0,0.1,0,0.2-0.1c0.1,0,0.2,0,0.3,0 c0.1-0.1,0.2-0.1,0.2-0.3c0-0.1,0-0.2,0-0.3c0-0.1,0-0.2,0-0.3c-0.1-0.1-0.1-0.1-0.2-0.2c-0.2-0.1-0.4-0.1-0.5-0.1 c-0.2,0-0.4,0-0.5,0.1c-0.1,0-0.1,0-0.2,0c-0.1,0-0.2,0.1-0.3,0.1c-0.1,0-0.1,0.1-0.2,0.2c-0.1,0-0.1,0.1-0.2,0.1 c-0.1,0-0.1,0.1-0.2,0.1c0,0-0.1,0.1-0.1,0.1c-0.1,0-0.1,0.1-0.2,0.2c-0.1,0.1-0.1,0.1-0.2,0.2c-0.1,0.1-0.1,0.1-0.2,0.2 c0,0,0,0.1-0.1,0.1c-0.1,0.1-0.1,0.2-0.2,0.3C81,47.9,81,48,81,48.1c0,0.1,0,0.1-0.1,0.2c-0.1,0.2-0.2,0.3-0.2,0.6 c0,0.1,0,0.2,0,0.4c0,0.1,0,0.2,0,0.3c0,0.1,0.1,0.3,0.1,0.4c0,0.2,0,0.3,0.1,0.5c0,0.1,0.1,0.2,0.1,0.3c0,0.1,0.1,0.1,0.1,0.2 c0.1,0.1,0.2,0.2,0.3,0.3c0.1,0.1,0.2,0.2,0.3,0.3c0.1,0.1,0.1,0.2,0.2,0.2c0.1,0,0.2,0,0.2,0c0,0,0,0.1,0.1,0.1 c0.2,0.1,0.4,0.1,0.6,0.1c0.2,0,0.5,0.1,0.7,0.1c0.1,0,0.2,0,0.3,0c0,0,0.1,0,0.2,0c0.4-0.1,0.8-0.2,1.2-0.4 c0.2-0.1,0.3-0.2,0.5-0.3c0,0,0,0,0,0.1c0,0,0,0.1,0,0.1c0,0,0,0.1,0,0.1c0.1,0.1,0.1,0.2,0.2,0.3c0.1,0.1,0.2,0.1,0.3,0.2 c0.3,0.2,0.6,0.1,0.7-0.2c0.1-0.2,0.1-0.4,0.1-0.6c0-0.2,0-0.3,0.1-0.5c0-0.2,0-0.3,0.1-0.5c0-0.1,0-0.1,0.1-0.2 c0-0.1,0-0.2,0.1-0.3c0.1-0.1,0.1-0.3,0.2-0.4c0.1-0.1,0.1-0.3,0.2-0.4c0.1-0.1,0.1-0.2,0.1-0.3c0-0.1,0.1-0.2,0.1-0.3 c0-0.1,0.1-0.1,0.1-0.1c0,0,0-0.1,0-0.1c0,0,0.1-0.1,0.1-0.1c0,0,0-0.1,0-0.1c0,0,0,0,0.1-0.1c0.2-0.1,0.3-0.4,0.5-0.5 c0.3-0.1,0.4,0.1,0.5,0.3c0.1,0.3,0.1,0.6,0.2,0.9c0,0.1,0,0.1,0,0.2c0,0.1,0,0.1,0,0.2c0,0.1,0,0.1,0,0.2c0,0.2,0,0.3,0.1,0.5 c0,0,0,0.1,0,0.1c0,0,0,0.1,0,0.1c0,0.1,0,0.1,0,0.2c0,0.1,0,0.1,0,0.1c0,0.2,0,0.3,0.1,0.4c0.1,0.1,0.4,0.2,0.6,0.3 c0.2,0.1,0.4,0.1,0.4-0.2c0-0.2,0-0.4,0-0.7C90.6,50.3,90.6,50.1,90.6,49.9z"></path> <path fill="#B5B5B5" d="M52,47.8c-0.1-0.1,0-0.1-0.1-0.2c0,0-0.1-0.1-0.1-0.1c0,0,0-0.1,0-0.1c0,0-0.3,0-0.4,0 c-0.4-0.1-0.8,0.3-1.1,0.5C50.2,48,50.2,48,50,48.1c-0.3,0.1-0.2,0.1-0.3,0.3c-0.1,0.2-0.3,0.3-0.5,0.4c-0.2,0.2-0.4,0.4-0.5,0.6 c-0.2,0.3-0.4,0.6-0.6,0.8c-0.1,0-0.2,0-0.2,0.1c0-0.3,0.1-1,0.1-1.2c0-0.4,0.1-0.9,0.1-1.3c0-0.4,0.1-0.7,0.1-1.1 c0-0.1,0-0.2,0-0.3c0-0.1,0.1-0.1,0-0.2c0.1-0.2,0-0.4,0-0.6c0-0.3,0-0.5,0-0.8c0-0.1,0-0.1,0-0.1c0-0.1-0.1-0.1-0.2-0.1 c0,0,0-0.1,0-0.2c0,0-0.1-0.1-0.1-0.1c-0.1-0.1-0.2-0.1-0.4-0.1c-0.1,0-0.3-0.1-0.3,0.1c-0.3,0-0.2,0.2-0.2,0.4 c0,0.3,0,0.6-0.1,0.9c0,0,0.1,0.3,0.1,0.3c0,0.1,0,0.2-0.1,0.3c0,0.2-0.1,0.4-0.1,0.6c0,0,0,0.1,0,0.1c0,0-0.1,0.1,0,0.1 c0,0.1,0.1,0.1,0.1,0.1s-0.1,0.1-0.1,0.2c-0.1,0.2,0,0.5,0,0.8c-0.1,1-0.1,1.2-0.2,2.2c0,0.3,0,0.5-0.1,0.8c0,0.2,0,0.3,0,0.5 c0,0.4,0,0.8-0.1,1.1c0,0.3,0,0.6,0,0.9c0,0.1-0.1,0.2-0.1,0.3c0,0,0.1,0.1,0.1,0.1c0,0.1,0,0.2,0,0.3c0,0.1,0,0.3,0,0.4 c0,0.1-0.1,0.1-0.1,0.2c0,0.1,0.1,0.1,0.2,0.2c0.1,0.1,0.1,0.2,0.1,0.3c0.1,0.1,0.2,0.1,0.3,0.2c0.1,0.1,0.1,0.1,0.2,0.2 c0.1,0,0.2,0,0.3,0.1c0.1,0,0.1,0.1,0.2,0c0.1,0,0.2-0.1,0.3-0.1c0.1-0.1,0-0.3,0-0.4c0-0.3,0.1-0.5,0.1-0.8c0-0.2,0-0.4,0.1-0.6 c0-0.1,0.1-0.3,0.2-0.4c0-0.2,0-0.3,0.1-0.5c0-0.4,0.2-0.7,0.4-1c0.1-0.2,0.2-0.4,0.3-0.5c0,0,0,0.1,0.1,0.1 c0.1,0.2,0.2,0.4,0.2,0.7c0.1,0.3,0.2,0.6,0.3,0.9c0,0.2,0.1,0.3,0.1,0.4c0,0.1,0.1,0.6,0.3,0.6c0,0.2,0.1,0.4,0.1,0.6 c0,0,0,0.1,0,0.1c0,0,0.1,0.1,0.1,0.2c0.1,0.1,0,0.1,0.2,0.1c0.2,0.1,0.3,0.2,0.5,0.2c0.1,0,0.2,0.1,0.4,0.1c0.1,0,0.1,0,0.2,0 c0.1,0,0.1,0,0.1,0c0.1,0,0.1,0.2,0.2,0.1c0.2,0.1,0.2-0.1,0.2-0.3c0-0.4-0.1-0.8-0.2-1.1c-0.1-0.2-0.1-0.3-0.2-0.5 c0-0.2,0-0.4-0.1-0.5c0-0.1-0.1-0.1-0.1-0.2c0-0.1,0-0.1,0-0.2c0,0-0.1,0-0.1-0.1c-0.1-0.2-0.1-0.4-0.2-0.6 c-0.1-0.2-0.1-0.3-0.2-0.5c-0.1-0.2-0.2-0.4-0.3-0.5c-0.1-0.1-0.1-0.3-0.3-0.4c-0.1-0.1-0.2-0.1-0.2-0.2c-0.1-0.1-0.1-0.2-0.2-0.2 c0,0,0,0,0,0c0.1-0.1,0.2-0.3,0.3-0.4s0.3-0.2,0.4-0.3c0.1-0.1,0.2-0.2,0.3-0.2c0.1-0.1,0.2-0.2,0.3-0.3c0.2-0.2,0.5-0.3,0.7-0.5 c0.1,0,0-0.1,0.1-0.1c0.1-0.1,0.4-0.1,0.4-0.3c0-0.1,0-0.3-0.1-0.4C52.1,47.9,52,47.8,52,47.8z"></path> <path fill="#B5B5B5" d="M80,46.7c0-0.1-0.1-0.1-0.1-0.2c-0.1-0.1-0.1-0.1-0.2-0.1c-0.1,0-0.2-0.2-0.4-0.2c-0.1,0-0.3,0-0.4,0.1 c-0.1,0.2-0.1,0.5-0.1,0.7c0,0.1,0,0.1,0,0.2c0,0.1,0,0.2,0,0.3c0,0.1,0,0.2,0,0.3c0,0.1,0,0.3-0.1,0.4c-0.1,0.1,0,0.2-0.1,0.3 c0,0.1,0,0.2-0.1,0.3c0,0.1-0.1,0.1-0.1,0.2c-0.1,0.4-0.2,0.8-0.4,1.1c-0.1,0.2-0.2,0.4-0.4,0.5c-0.1,0.1-0.2,0.1-0.3,0.2 c0,0-0.1,0-0.1,0c0,0-0.1,0-0.1,0c0,0-0.1,0-0.1,0c0,0-0.1,0-0.1,0c0,0-0.1,0-0.1,0c0,0-0.1,0-0.1,0c-0.1,0-0.2,0-0.2-0.1 c0,0-0.1,0-0.1-0.1c-0.1,0-0.1-0.1-0.2-0.2c0-0.1-0.1-0.1-0.1-0.2c-0.1-0.1-0.1-0.3-0.1-0.5c0-0.1,0-0.1,0-0.2c0,0,0-0.1,0-0.1 c0,0,0-0.1,0-0.1c0-0.1,0-0.2,0-0.3c0-0.4,0.1-0.7,0.1-1.1c0,0,0,0,0-0.1c0,0,0-0.1,0-0.1c0-0.2,0.1-0.3,0.1-0.5 c0-0.1,0-0.1-0.1-0.1c0,0-0.1,0-0.1,0c-0.1,0-0.1,0.1-0.2,0.1c-0.1,0-0.2,0.1-0.3,0.1c-0.1,0-0.1,0.1-0.1,0.1c0,0,0,0.1,0,0.1 c0,0.1-0.1,0.1-0.1,0.2c0,0.1,0,0.2-0.1,0.3c-0.1,0.3-0.1,0.7-0.1,1c0,0.2,0,0.5,0,0.7c0,0.1,0,0.3,0,0.4c0,0.1,0,0.2,0.1,0.3 c0,0.1,0,0.1,0.1,0.2c0,0.1,0,0.1,0.1,0.1c0,0.1,0,0.2,0,0.3c0,0.1,0.1,0.1,0.2,0.2c0,0,0,0.1,0,0.1c0,0,0.1,0,0.1,0 c0,0,0.1,0.1,0.1,0.1c0,0,0.1,0,0.1,0c0.1,0,0.1,0,0.2,0.1c0,0,0,0,0,0.1c0,0,0.1,0,0.1,0c0,0,0,0.1,0,0.1c0,0,0.1,0,0.1,0.1 c0.1,0,0.2,0.1,0.3,0.1c0.3,0.1,0.6,0.1,0.9,0.1c0.1,0,0.2-0.1,0.4-0.1c0.1,0,0.1-0.1,0.2-0.1c0,0,0.1,0,0.1,0c0.1,0,0.1,0,0.1-0.1 c0.1,0,0.1,0,0.2-0.1c0,0,0.1,0,0.1-0.1c0,0,0-0.1,0-0.1c0.1-0.1,0.1-0.1,0.2-0.1c0.1-0.1,0.2-0.1,0.2-0.2c0-0.1,0.1-0.2,0.2-0.3 c0.1-0.3,0.3-0.6,0.5-0.9c0.1-0.2,0.2-0.4,0.2-0.6c0-0.1,0.1-0.2,0.1-0.3c0,0,0-0.1,0-0.1c0-0.1,0.1-0.1,0.1-0.2 c0-0.1,0.1-0.3,0.1-0.4c0-0.1,0-0.2,0-0.4c0-0.2,0.1-0.3,0.1-0.5c0-0.2,0.1-0.3,0.1-0.5c0-0.1,0-0.2-0.1-0.4 C80,46.8,80.1,46.7,80,46.7z"></path> <path fill="#B5B5B5" d="M67.8,48.8c0-0.1-0.1-0.2-0.2-0.3c0-0.1-0.1-0.1-0.2-0.1c0,0,0-0.1,0-0.1c0-0.1-0.1-0.1-0.1-0.1 c0,0,0,0-0.1-0.1c-0.1,0-0.2-0.1-0.3-0.2c-0.1,0-0.1,0-0.2,0c-0.5-0.2-1,0-1.4,0.2c-0.3,0.1-0.5,0.4-0.7,0.6 c-0.1,0.1-0.2,0.2-0.3,0.4c-0.1,0.1-0.1,0.2-0.2,0.3c0,0-0.1,0.1-0.1,0.1c0,0.1-0.1,0.2-0.2,0.2c0-0.4-0.1-0.8-0.3-1.2 c-0.2-0.4-0.5-0.7-0.9-0.9c-0.3-0.2-0.7-0.2-1.1-0.1c-0.2,0-0.4,0.1-0.6,0.2c-0.1,0-0.2,0-0.2,0.1c0,0,0,0.1,0,0.1 c0,0-0.1,0-0.1,0.1c-0.1,0.1-0.1,0.1-0.2,0.1c-0.1,0-0.1,0-0.1,0.1c-0.1,0.1-0.3,0.3-0.4,0.4c-0.2,0.3-0.4,0.6-0.7,0.9 c-0.1,0.2-0.2,0.4-0.3,0.6c0,0.1-0.1,0.2-0.1,0.3c0,0.1,0,0.1-0.1,0.2c0,0.1-0.1,0.1-0.1,0.1c0,0.1,0,0.2-0.1,0.2 c0,0-0.1,0.1-0.1,0.1c0,0.1,0,0.1-0.1,0.2c0,0.1-0.1,0.1-0.1,0.2c0,0.1-0.1,0.3-0.1,0.4c0,0.1,0,0.1-0.1,0.2 c-0.1,0.1,0,0.3-0.1,0.4c-0.1,0.1-0.1,0.3-0.1,0.4c0,0.1,0,0.3,0.1,0.4c0,0.1,0.1,0.1,0.1,0.2c0,0.1,0,0.1,0,0.2c0,0.1,0,0,0.1,0.1 c0.1,0,0,0,0.1,0.1c0.1,0.1,0.3,0.2,0.5,0.1c0.2-0.1,0.3-0.4,0.3-0.6c0.1-0.3,0.1-0.7,0.2-1c0-0.2,0.1-0.3,0.2-0.5 c0-0.1,0.1-0.1,0.1-0.2c0-0.1,0-0.1,0-0.2c0-0.1,0.1-0.1,0.1-0.2c0,0,0-0.1,0-0.1c0-0.1,0-0.1,0.1-0.1c0.1-0.1,0.1-0.3,0.1-0.4 c0.1-0.4,0.4-0.6,0.7-0.9c0.2-0.3,0.4-0.5,0.7-0.6c0.1,0,0.3-0.1,0.5,0c0.1,0,0.2,0,0.2,0.1c0.1,0,0.1,0.1,0.2,0.1 c0,0,0.1,0,0.1,0.1c0,0,0,0.1,0,0.2c0,0.1,0,0.1,0,0.2c0,0.1,0,0.2,0,0.4c0,0.1,0,0.1,0,0.2c0,0.1,0,0.1,0,0.2c0,0.2,0,0.4,0,0.6 c0,0.4,0,0.8,0,1.2c0,0.1,0,0.2,0,0.3c0,0.1-0.1,0.2,0,0.3c0,0,0.1,0,0.1,0.1c0,0,0,0.1,0,0.1c0,0.1,0.1,0.1,0.2,0.1 c0.1,0,0.2,0,0.2,0c0.1,0,0.1-0.1,0.2-0.1c0.1,0,0.2,0,0.2-0.1l0,0c0,0,0.1,0,0.1,0c0.1,0,0.1-0.1,0.2-0.2c0.1-0.1,0.1-0.3,0.1-0.4 c0,0,0.1-0.1,0.1-0.1c0,0,0-0.1,0-0.1c0-0.1,0-0.2,0.1-0.2c0-0.1,0.1-0.1,0.1-0.2c0-0.1,0-0.1,0.1-0.2c0.1-0.1,0.1-0.2,0.1-0.3 c0.1-0.2,0.1-0.3,0.2-0.5c0.1-0.1,0.1-0.3,0.3-0.4c0,0,0.1-0.1,0.1-0.1c0,0,0-0.1,0.1-0.1c0,0,0,0,0.1,0c0,0,0-0.1,0-0.1 c0,0,0.1-0.1,0.1-0.1c0,0,0.1,0,0.1,0c0,0,0-0.1,0.1-0.1c0,0,0,0,0.1,0c0,0,0.1-0.1,0.1-0.1c0.1,0,0.2-0.1,0.3-0.1 c0.2,0,0.3,0,0.5,0.1c0.2,0.1,0.3,0.2,0.3,0.4c0.1,0.5,0.1,1,0.1,1.5c0,0.3-0.1,0.5-0.1,0.8c0,0.1,0,0.2,0,0.3 c0,0.2-0.1,0.4,0.1,0.6c0,0,0.1,0,0.1,0.1c0,0,0,0.1,0.1,0.1c0.1,0,0.1,0,0.2,0c0,0,0.1,0,0.1,0c0.1,0,0.2,0,0.3,0 c0.2-0.1,0.2-0.4,0.2-0.5c0-0.2,0.1-0.4,0.1-0.6c0-0.1,0.1-0.1,0.1-0.2c0,0,0-0.1,0-0.1c0-0.1,0-0.2,0.1-0.4c0-0.1,0-0.2,0-0.3 c0-0.2,0-0.5,0-0.7C68.1,49.7,68,49.2,67.8,48.8z"></path> <path fill="#B5B5B5" d="M57.7,49.7c0-0.1-0.1-0.2-0.1-0.3c0-0.1,0-0.2-0.1-0.3c0-0.1,0-0.2-0.1-0.4c0-0.1-0.1-0.1-0.1-0.2 c0-0.1,0-0.1-0.1-0.2c0,0,0-0.1-0.1-0.2c-0.1-0.1-0.2-0.2-0.3-0.2c0,0-0.1-0.1-0.1-0.1c-0.1,0-0.1-0.1-0.2-0.1 c-0.1-0.1-0.1,0-0.3-0.1c-0.2,0-0.4-0.1-0.6-0.1c-0.1,0-0.3,0-0.4,0c-0.1,0-0.2,0.1-0.3,0.1c0,0-0.1,0-0.1,0c0,0-0.1,0.1-0.1,0.1 c0,0-0.1,0-0.1,0c-0.1,0-0.1,0.1-0.1,0.1c-0.1,0.1-0.2,0.1-0.3,0.1c-0.1,0.1-0.2,0.2-0.3,0.3c-0.1,0.1-0.1,0.1-0.2,0.2 c-0.1,0.1-0.1,0.2-0.2,0.3c-0.1,0.1-0.1,0.2-0.2,0.3c-0.1,0.2-0.2,0.4-0.3,0.5c-0.5,1.1-0.8,2.5-0.5,3.6c0.1,0.2,0.1,0.4,0.3,0.6 c0.1,0.1,0.1,0.3,0.3,0.3c0.1,0,0.1,0.1,0.2,0.1c0.1,0.1,0.3,0.1,0.4,0.1c0.2,0.1,0.4,0.1,0.5,0.1c0.5,0,0.9,0,1.4-0.2 c0.2-0.1,0.6-0.2,0.8-0.3c0.1,0,0.2-0.1,0.3-0.2c0.1-0.1,0.3-0.2,0.4-0.3c0,0,0.1-0.1,0.1-0.2c0-0.1,0.1-0.1,0.1-0.2 c0.1-0.1,0.1-0.1,0.1-0.3c0-0.1,0-0.1,0.1-0.2c0.1-0.1,0.1-0.3,0.1-0.4c0-0.1,0.1-0.2,0.1-0.3c0.1-0.2,0.1-0.5,0.1-0.7 c0-0.4,0.1-0.8,0-1.2C57.8,50.1,57.8,49.9,57.7,49.7z M56.4,52.4c0,0,0,0.1-0.1,0.1c0,0-0.1,0-0.1,0.1c0,0-0.1,0-0.1,0.1 c0,0.1-0.1,0.1-0.1,0.2c0,0.1,0,0.1-0.1,0.1c0,0-0.1,0-0.1,0c-0.1,0-0.1,0.1-0.2,0.1c0,0-0.1,0-0.2,0c-0.1,0-0.1,0-0.1,0.1 c-0.1,0-0.1,0.1-0.2,0.1c0,0-0.1,0-0.1,0c0,0-0.1,0-0.1,0.1c-0.1,0-0.1,0-0.1,0c-0.1,0-0.2,0-0.3,0c-0.1,0-0.2,0-0.3-0.1 c0,0-0.1,0-0.2,0c-0.1-0.1-0.2-0.2-0.3-0.3c-0.1-0.2-0.1-0.4-0.1-0.6c0-0.5,0.1-0.9,0.2-1.4c0.1-0.2,0.1-0.4,0.2-0.6 c0.1-0.1,0.1-0.3,0.2-0.4c0.1-0.2,0.2-0.3,0.3-0.5c0.2-0.3,0.6-0.4,1-0.4c0.2,0,0.3,0,0.5,0.1c0.1,0,0.1,0.1,0.2,0.1 c0,0,0.2,0.2,0.2,0.1c0,0.1,0,0.1,0.1,0.2c0,0.2,0.1,0.5,0.1,0.7c0,0.2,0.1,0.5,0,0.7C56.8,51.5,56.6,52,56.4,52.4z"></path> <path fill="#B5B5B5" d="M95.9,50.4c0-0.1-0.1-0.2-0.1-0.3c0-0.1,0-0.3,0-0.4c0-0.2-0.1-0.4-0.1-0.6c0-0.2,0-0.4,0-0.6 c0-0.2,0-0.5,0-0.7c0-0.3,0-0.6,0-0.9c0-0.1,0-0.2,0-0.3c0,0,0-0.1,0-0.1c0-0.1,0-0.1-0.1-0.1c0,0,0-0.1,0-0.1 c-0.1-0.1-0.1-0.1-0.2-0.2c0,0-0.1-0.1-0.1-0.1c-0.1,0-0.1-0.1-0.2-0.1c-0.1-0.1-0.1,0-0.3-0.1c-0.2,0-0.3-0.1-0.5,0 c-0.1,0-0.2,0-0.3,0c-0.1,0-0.1,0-0.2,0.1c0,0-0.1,0-0.1,0c0,0-0.1,0-0.1,0.1c0,0-0.1,0-0.1,0c0,0-0.1,0.1-0.1,0.1 c-0.1,0.1-0.2,0.1-0.3,0.1c-0.1,0-0.2,0.1-0.3,0.2c-0.1,0.1-0.1,0.1-0.2,0.2c-0.1,0.1-0.1,0.2-0.2,0.3c-0.1,0.1-0.1,0.2-0.2,0.3 c-0.1,0.1-0.1,0.3-0.2,0.4c-0.4,0.9-0.7,2.1-0.4,3c0,0.2,0.1,0.3,0.3,0.4c0.1,0.1,0.1,0.3,0.2,0.3c0.1,0,0.1,0.1,0.2,0.1 c0.1,0.1,0.2,0.1,0.4,0.1c0.1,0,0.3,0.1,0.4,0.1c0.3,0,0.6,0,1-0.1c0.1,0,0.1,0,0.2-0.1c0,0,0.1-0.1,0.1-0.1c0.1,0,0.2,0,0.3-0.1 c0,0,0.1-0.1,0.1-0.1c0.1,0,0.1,0,0.2,0c0.1,0,0.2,0.1,0.3,0.1c0.1,0,0.2,0,0.3,0c0,0,0.1,0,0.1,0c0,0,0,0,0.1,0 c0.1,0,0.1,0,0.2-0.1c0.1,0,0.1-0.1,0.2-0.2c0-0.1,0.1-0.1,0.1-0.2c0,0,0.1-0.1,0.1-0.1c0-0.1,0-0.2-0.1-0.2 C96,50.5,95.9,50.4,95.9,50.4z M94.7,47.4c0,0.1,0,0.2,0,0.3c0,0.1,0,0.3,0,0.4c0,0.1,0,0.2,0,0.3c0,0.1,0,0.3,0,0.4 c0,0.1,0,0.1,0,0.2c0,0.1,0,0.1,0,0.2c0,0.2,0,0.4,0,0.6c0,0.1,0,0.3-0.2,0.4c-0.1,0-0.2,0.1-0.3,0.1c-0.1,0-0.2,0-0.3,0 c0,0-0.1,0-0.1,0.1c0,0-0.1,0-0.1,0c0,0-0.1,0-0.1,0c0,0-0.1,0-0.1,0c-0.1,0-0.1,0-0.2,0c-0.1,0-0.2,0-0.2-0.1c0,0-0.1,0-0.1,0 c-0.1-0.1-0.2-0.2-0.2-0.3c-0.1-0.1-0.1-0.3-0.1-0.5c0-0.4,0.1-0.8,0.2-1.2c0.1-0.2,0.1-0.3,0.2-0.5c0.1-0.1,0.1-0.3,0.2-0.3 c0.1-0.1,0.2-0.3,0.3-0.4c0.2-0.3,0.5-0.3,0.8-0.3c0.1,0,0.3,0,0.4,0.1c0.1,0,0.1,0.1,0.2,0.1c0,0,0,0,0,0.1 C94.7,47.2,94.7,47.3,94.7,47.4z"></path> <path fill="#B5B5B5" d="M73.7,48.8c-0.4-0.8-1.2-1.3-2.1-1.3c-0.2,0-0.3,0-0.5,0c-0.1,0-0.2,0.1-0.3,0.1c-0.2,0-0.2-0.5-0.2-0.6 c0-0.2,0-0.3,0-0.5c0-0.1,0-0.3,0-0.5c0-0.1,0-0.1,0-0.2c0-0.1,0.1-0.1,0.1-0.2c0-0.1-0.1-0.2-0.1-0.3c0-0.1,0-0.1,0-0.2 c0,0,0-0.1-0.1-0.1c0-0.1,0-0.1-0.1-0.2c-0.1,0-0.1-0.1-0.2-0.1c0,0-0.1-0.1-0.2-0.1c0,0-0.1,0-0.1,0c-0.1,0-0.1,0-0.1,0.1 c0,0.1-0.1,0.1-0.1,0.2c0,0.1,0,0.1,0,0.2c0,0.1-0.1,0.1-0.1,0.2c-0.1,0.2,0,0.4,0,0.6c0,0.2,0,0.4-0.1,0.6c-0.1,0.7-0.2,1.3-0.3,2 c0,0.3-0.1,0.7-0.1,1c0,0.1,0,0.3-0.1,0.4c0,0.1,0,0.2,0,0.3c0,0.1-0.1,0.2-0.1,0.3c0,0.1,0,0.2,0,0.3c-0.1,0.3-0.1,0.6-0.1,0.9 c0,0.1,0,0.3,0.1,0.4c0.1,0.1,0.1,0.1,0.2,0.2c0.1,0.1,0.1,0.1,0.3,0.1c0,0,0.1,0.2,0.1,0.2c0.1,0.1,0.1,0.1,0.2,0.1 c0.1,0,0.1,0,0.2,0.1c0.1,0,0.2,0.1,0.3,0.1c0.2,0.1,0.5,0.1,0.7,0.1c0.1,0,0.2,0,0.3,0c0.1,0,0.2,0,0.3,0c0,0,0.1,0,0.1-0.1 c0,0,0.1,0,0.1,0c0.1,0,0.1-0.1,0.2-0.1c0.3,0,0.6-0.1,0.9-0.3c0,0,0.1,0,0.1-0.1c0.1,0,0.1-0.1,0.2-0.1c0,0,0.1,0,0.1-0.1 c0.2-0.1,0.2-0.3,0.3-0.4c0-0.1,0.1-0.1,0.1-0.2c0-0.1,0.1-0.1,0.1-0.2c0-0.1,0.1-0.2,0.1-0.4c0-0.1,0-0.3,0-0.4c0-0.2,0-0.4,0-0.5 c0-0.1-0.1-0.3-0.1-0.4C73.9,49.4,73.8,49.1,73.7,48.8z M73.1,50.9c0,0.1,0,0.1-0.1,0.2c0,0,0,0.1,0,0.1c0,0.1,0,0-0.1,0.1 c-0.1,0.1-0.2,0.1-0.3,0.2c-0.2,0.1-0.4,0.2-0.6,0.2c0,0-0.1,0-0.1,0c-0.1,0-0.2,0-0.3,0.1c-0.2,0-0.3,0-0.5,0c-0.1,0-0.2,0-0.3,0 c0,0,0,0-0.1,0c-0.4-0.1-0.3-0.6-0.3-0.9c0-0.3,0-0.6,0-0.9c0-0.1,0-0.3,0-0.4c0-0.1,0.1-0.2,0.1-0.4c0-0.2,0.1-0.3,0.3-0.4 c0.1,0,0.2-0.1,0.3-0.1c0.1-0.1,0.3-0.1,0.4-0.1c0.1,0,0.3,0,0.4,0c0.2,0.1,0.3,0.1,0.5,0.2c0.1,0.1,0.2,0.2,0.3,0.3 c0,0.1,0.1,0.1,0.1,0.1c0.1,0.1,0.1,0.2,0.1,0.3c0.1,0.2,0.1,0.4,0.2,0.7C73.2,50.5,73.1,50.7,73.1,50.9z"></path> <path fill="#B5B5B5" d="M104.8,30.6C104.8,30.6,104.7,30.6,104.8,30.6c0-0.1,0-0.1,0-0.1s0,0,0,0c0,0,0,0,0,0c0,0,0-0.1,0-0.1 c0-0.1-0.1-0.1-0.1-0.2c0,0,0,0,0,0c0,0,0,0-0.1-0.1c0,0,0,0,0,0c0.1,0,0.1,0,0.2-0.1c0,0,0,0,0,0c0,0,0.1,0,0.1-0.1 c0.1-0.1,0.1-0.1,0.1-0.2c0-0.1,0-0.2,0-0.3c0,0,0,0,0-0.1c0,0,0-0.1-0.1-0.2c0,0,0-0.1-0.1-0.1c-0.1,0-0.1-0.1-0.2-0.1 c-0.1,0-0.2,0-0.2,0c-0.1,0-0.2,0-0.3,0.1c-0.1,0-0.3,0-0.4,0c0,0,0,0.1,0,0.1c0,0,0,0,0,0.1c0,0,0,0,0,0.1v0c0,0,0,0,0,0 c0,0,0,0,0,0c0,0,0,0,0,0.1c0,0.1,0,0.1,0,0.2c0,0.1,0,0.1,0,0.2c0,0.1,0,0.1,0,0.2c0,0.1,0,0.1,0,0.1c0,0,0,0,0,0.1 c0,0.1,0,0.2,0,0.3c0,0,0,0.1,0,0.1c0,0,0,0,0,0c0,0,0,0,0,0c0,0,0,0,0,0c0,0,0,0,0,0c0,0,0,0,0,0c0,0,0,0,0,0c0,0,0,0,0,0 c0,0,0,0.1,0.1,0.1c0,0,0,0,0,0c0,0,0,0,0,0c0,0,0,0,0,0c0,0,0.1,0,0.1,0c0,0,0,0,0-0.1c0,0,0,0,0-0.1c0,0,0-0.1,0-0.1 c0,0,0-0.1,0-0.1c0,0,0,0,0-0.1c0,0,0-0.1,0-0.1c0-0.1,0.1-0.1,0.1-0.2c0,0,0,0,0,0c0,0,0,0.1,0.1,0.1c0,0,0,0.1,0.1,0.1 c0,0,0,0.1,0,0.1c0,0,0,0,0,0.1c0,0,0,0,0,0c0,0,0,0.1,0,0.1c0,0,0,0.1,0.1,0.1c0,0,0,0,0.1,0c0.1,0,0.1,0,0.2,0c0,0,0,0,0,0h0 c0,0,0,0,0,0c0,0,0,0,0,0c0,0,0,0,0,0C104.8,30.8,104.8,30.8,104.8,30.6C104.8,30.7,104.8,30.7,104.8,30.6z M104.3,29.8 c-0.1,0-0.1,0-0.1,0c0,0-0.1,0-0.1-0.1c0,0,0-0.1,0-0.1s0-0.1,0-0.1c0,0,0,0,0,0s0,0,0,0c0,0,0,0,0-0.1c0,0,0,0,0.1,0 c0.1,0,0.1,0,0.2,0c0,0,0,0,0,0c0,0,0,0,0,0c0,0,0,0,0,0c0.1,0,0.1,0.1,0.1,0.2c0,0,0,0.1,0,0.1c0,0.1-0.1,0.1-0.1,0.1 c0,0-0.1,0-0.1,0C104.4,29.8,104.3,29.8,104.3,29.8z"></path> <path fill="#B5B5B5" d="M105.7,29.8c-0.1-0.2-0.1-0.4-0.2-0.5c-0.2-0.5-0.7-0.8-1.2-0.7c-0.1,0-0.2,0-0.3,0c-0.1,0-0.1,0.1-0.2,0.1 c-0.1,0-0.4,0.1-0.5,0.1c0,0-0.1,0-0.1,0c-0.1,0-0.1,0.1-0.1,0.1c-0.1,0-0.1,0.1-0.2,0.1c-0.1,0.1-0.2,0.3-0.3,0.4 c0,0.1-0.1,0.2-0.1,0.3c0,0.1,0,0.1,0,0.1c0,0.1,0,0.1,0,0.2c0,0,0,0.1,0,0.1c0,0,0,0.1,0,0.1c0,0,0,0.1,0,0.1c0,0,0,0,0,0.1 c0,0.1,0.1,0.1,0.1,0.2c0,0,0,0.1,0.1,0.1c0,0.1,0.1,0.2,0.2,0.3c0.1,0.1,0.2,0.3,0.3,0.4c0.1,0,0.3,0.1,0.4,0.1 c0.1,0,0.3,0.1,0.4,0.1c0.1,0,0.1,0,0.1,0c0.1,0,0.1,0,0.2,0c0,0,0,0,0.1,0c0,0,0,0,0.1,0c0,0,0.1,0,0.1,0c0.2,0,0.3-0.1,0.5-0.1 c0,0,0,0,0.1,0c0.1,0,0.1,0,0.1-0.1c0,0,0,0,0.1,0c0.1,0,0.1-0.2,0.2-0.2c0,0,0.1-0.1,0.1-0.1c0,0,0-0.1,0.1-0.1 c0-0.1,0-0.1,0.1-0.2c0-0.1,0-0.2,0-0.2c0-0.1,0-0.2,0-0.3C105.8,29.9,105.8,29.9,105.7,29.8z M105.3,30.6c0,0.1,0,0.1-0.1,0.2 c0,0,0,0.1,0,0.1c0,0.1,0,0-0.1,0.1c-0.1,0-0.1,0.1-0.2,0.1c-0.1,0.1-0.3,0.1-0.5,0.2c0,0-0.1,0-0.1,0c-0.1,0-0.1,0-0.2,0.1 c-0.1,0-0.2,0-0.4,0c-0.1,0-0.2-0.1-0.3-0.1c-0.2-0.1-0.4-0.3-0.5-0.5c0,0,0,0,0-0.1c0,0,0,0,0-0.1c0,0,0,0,0-0.1c0,0,0-0.1,0-0.1 c0,0,0,0,0-0.1c0,0,0,0,0-0.1c0,0,0-0.1,0-0.1c0,0,0-0.1,0-0.1c0,0,0,0,0-0.1s0-0.1,0-0.1c0,0,0,0,0-0.1c0,0,0,0,0-0.1 c0,0,0,0,0-0.1c0,0,0-0.1,0.1-0.1c0,0,0.1-0.1,0.1-0.1c0,0,0-0.1,0.1-0.1c0.1,0,0.1-0.1,0.1-0.1c0.1-0.1,0.1-0.1,0.3-0.2 c0.1,0,0.1-0.1,0.2-0.1c0.1,0,0.2-0.1,0.3-0.1c0.1,0,0.2,0,0.3,0c0.1,0,0.3,0.1,0.4,0.1c0.1,0.1,0.1,0.1,0.2,0.3 c0,0,0.1,0.1,0.1,0.1c0,0.1,0.1,0.1,0.1,0.2c0.1,0.2,0.1,0.4,0.1,0.5C105.4,30.3,105.4,30.4,105.3,30.6z"></path> </g> </svg> 