<?xml version="1.0" encoding="UTF-8"?> <svg xmlns="http://www.w3.org/2000/svg" xmlns:xlink="http://www.w3.org/1999/xlink" version="1.1" id="Layer_1" x="0px" y="0px" viewBox="0 0 136 68.2" xml:space="preserve"> <g> <polygon fill-rule="evenodd" clip-rule="evenodd" fill="#B4B4B5" points="66.2,16.6 68.1,15.2 70.1,16.6 69.3,14.3 71.3,12.9 68.9,12.9 68.1,10.6 67.4,12.9 65,12.9 66.9,14.3 "></polygon> <path fill-rule="evenodd" clip-rule="evenodd" fill="#B4B4B5" d="M81.9,49.8c-0.4,0.5-0.6,0.7-1,1c0.8,0.3,8.1,1.9,10.2,1.6 c1.6-0.2,2.5-0.8,3.3-1.2C91.5,51.8,82.6,50.1,81.9,49.8z"></path> <path fill-rule="evenodd" clip-rule="evenodd" fill="#B4B4B5" d="M89.1,52.8c-2,0-7.7-1.3-8.6-1.6c-0.4,0.4-1.1,0.8-1.2,0.9 c1.4,0.8,6.7,1.6,9.3,1.5c0.9,0,1.9-0.3,2.5-0.7C90.5,53,89.6,52.8,89.1,52.8z"></path> <path fill-rule="evenodd" clip-rule="evenodd" fill="#B4B4B5" d="M90.6,48.9c-2.3-0.2-5.8-0.5-7.5-0.6c-0.2,0.4-0.6,0.9-0.9,1.2 c0.4,0.2,8.8,1.4,11.1,1.2c1.3-0.1,3.4-1.2,4.2-1.8c-0.5,0.1-1.6,0.2-2,0.2C93.9,49.2,92.2,49.1,90.6,48.9z"></path> <path fill-rule="evenodd" clip-rule="evenodd" fill="#B4B4B5" d="M78.7,52.5c0.1,0-1.3,0.7-1.4,0.7c0.8,0.5,6.3,2.2,10.7,0.8 C85.2,54.1,80.9,53.5,78.7,52.5z"></path> <path fill-rule="evenodd" clip-rule="evenodd" fill="#B4B4B5" d="M98.4,46.6c-2,0.2-7.5,0.1-8.1,0.1c0,0-6.4-0.3-6.3-0.3 c-0.1,0.3-0.4,1.1-0.6,1.4c0.9-0.1,8.2,0.9,12.9,0.5c2.5-0.2,3.9-1.4,5.3-2.6c0.3-0.2,0.4-0.4,0.2-0.4 C101.1,46,99.3,46.5,98.4,46.6z"></path> <path fill-rule="evenodd" clip-rule="evenodd" fill="#B4B4B5" d="M74.1,54.2l-0.6,1.3c0,0,3.3,0.5,9-0.5c0,0-3.6-0.5-5.9-1.5 C75.4,53.8,75,54,74.1,54.2z"></path> <path fill-rule="evenodd" clip-rule="evenodd" fill="#B4B4B5" d="M55.8,50.8c-0.4-0.3-0.6-0.5-1-1c-0.7,0.3-9.6,2-12.5,1.4 c0.8,0.4,1.7,1,3.3,1.2C47.7,52.7,55.1,51.1,55.8,50.8z"></path> <path fill-rule="evenodd" clip-rule="evenodd" fill="#B4B4B5" d="M57.5,52.2c-0.1-0.1-0.8-0.6-1.2-0.9c-0.9,0.4-6.6,1.6-8.6,1.6 c-0.6,0-1.4,0.2-2,0.1c0.6,0.4,1.7,0.7,2.5,0.7C50.8,53.8,56.1,52.9,57.5,52.2z"></path> <path fill-rule="evenodd" clip-rule="evenodd" fill="#B4B4B5" d="M53.3,47.9c-0.1-0.3-0.5-1.1-0.6-1.4c0-0.1-6.3,0.3-6.3,0.3 c-0.5,0-6,0.1-8.1-0.1c-1-0.1-2.7-0.7-3.4-1.3c-0.1,0,0,0.2,0.2,0.4c1.4,1.2,2.7,2.4,5.3,2.6C45.1,48.8,52.4,47.8,53.3,47.9z"></path> <path fill-rule="evenodd" clip-rule="evenodd" fill="#B4B4B5" d="M54.4,49.5c-0.3-0.3-0.7-0.8-0.8-1.2c-1.7,0.1-5.2,0.4-7.5,0.6 c-1.5,0.1-3.2,0.2-4.9,0.2c-0.4,0-1.5-0.2-2-0.2c0.8,0.6,2.9,1.7,4.2,1.8C45.6,50.9,54,49.7,54.4,49.5z"></path> <path fill-rule="evenodd" clip-rule="evenodd" fill="#B4B4B5" d="M58,52.5c-2.1,0.9-6.5,1.6-9.2,1.5c4.4,1.4,9.9-0.3,10.7-0.8 C59.2,53.2,57.9,52.5,58,52.5z"></path> <path fill-rule="evenodd" clip-rule="evenodd" fill="#B4B4B5" d="M60.1,53.4c-2.3,1-5.9,1.5-5.9,1.5c5.7,1,9,0.5,9,0.5l-0.6-1.3 C61.8,54,61.3,53.8,60.1,53.4z"></path> <path fill-rule="evenodd" clip-rule="evenodd" fill="#B4B4B5" d="M68.4,48.6c-1.3,0.1-3,0.5-2.6,1.9c0.8,1.2,3.6,1.4,4.9,0.4 c0.1-0.1,0.3-0.3,0.4-0.5C71.5,49.2,69.5,48.5,68.4,48.6z M69.4,50.7c-1.2,0.2-2.9,0-3.3-0.6c-0.1-0.4,0.2-0.7,0.5-0.6 c0.1,0,0.1,0.2,0.1,0.3c0.3,0.5,2.3,0.8,2.7,0.4c-0.6,0-0.6,0.1-1.1,0c-0.6-0.1-1.2-0.3-1.5-0.6c0-0.4,0.3-0.6,0.6-0.4 c0.1,0.9,1.7,0.9,1.8,0c0.2,0,0.4,0.1,0.5,0.2c0,0.3-0.2,0.3-0.2,0.6c0.3,0.4,0.5-0.2,0.7-0.3C71.4,50.1,70.1,50.6,69.4,50.7z"></path> <path fill-rule="evenodd" clip-rule="evenodd" fill="#B4B4B5" d="M106.5,35.7c-0.2,0.4-3.5,4.4-7.2,6c-5.5,2.4-7.9,2.7-19,2.7 c-2.2,0-3.7,0.7-3.7,2.2c0,2.2-2.6,2.8-3.7,2l-0.7-0.8c-0.1-0.1-1.1-1.1-3.7-1.1c0,0,0,0-0.1,0c0,0,0,0-0.1,0c-2.6,0-3.6,1-3.7,1.1 l-0.7,0.8c-1.1,0.8-3.7,0.2-3.7-2c0-1.5-1.4-2.2-3.7-2.2c-11.1,0-13.5-0.3-19-2.7c-3.7-1.6-6.9-5.6-7.2-6c0,0-0.1-0.1-0.1-0.1 c0,0,0,0.1,0,0.2c0,0,0,0.3,0,0.4c0.1,1,2.9,8.4,6.9,9.4c1.8,0.5,7,0.6,8.6,0.6c2,0,7.3-0.2,7.6-0.2c1.1,3.8,5.6,7.1,9.9,7.8 c0.4,0.4,1.1,3.7,5.1,3.7c0,0,0,0,0,0c0,0,0,0,0,0c4,0,4.8-3.3,5.1-3.7c4.3-0.7,8.8-4,9.9-7.8c0.3,0,5.6,0.2,7.6,0.2 c1.6,0,6.7-0.1,8.6-0.6c4.1-1.1,6.9-8.4,6.9-9.4c0-0.1,0-0.4,0-0.4C106.6,35.7,106.5,35.6,106.5,35.7 C106.5,35.6,106.5,35.7,106.5,35.7z M68.3,55.7c-1.4-0.1-3.3-2.3-3.3-5.5c0-0.9,1.1-2.1,3.3-2.1c2.2,0,3.3,1.2,3.3,2.1 C71.6,53.4,69.7,55.6,68.3,55.7z"></path> <path fill-rule="evenodd" clip-rule="evenodd" fill="#B4B4B5" d="M67,35.3c-0.1,0-0.2,0-0.3-0.1c-0.1,0-0.2-0.1-0.3-0.2v0.4 c0.1,0.1,0.2,0.1,0.3,0.1c0.1,0,0.2,0,0.3,0c0.2,0,0.4,0,0.5-0.1c0.1-0.1,0.2-0.2,0.2-0.4c0-0.1,0-0.2-0.1-0.3 c0-0.1-0.1-0.1-0.2-0.2c-0.1,0-0.2-0.1-0.4-0.2c0,0-0.1,0-0.1,0c-0.1,0-0.1-0.1-0.2-0.1c0,0-0.1-0.1-0.1-0.1c0,0,0-0.1,0.1-0.1 c0,0,0.1,0,0.2,0c0.1,0,0.2,0,0.3,0c0.1,0,0.2,0.1,0.3,0.1v-0.4c-0.1,0-0.2-0.1-0.3-0.1c-0.1,0-0.2,0-0.3,0c-0.2,0-0.4,0-0.5,0.1 c-0.1,0.1-0.2,0.2-0.2,0.4c0,0.1,0,0.3,0.1,0.4c0.1,0.1,0.3,0.2,0.5,0.3c0.1,0,0.2,0.1,0.2,0.1c0,0,0,0.1,0,0.1 c0,0.1,0,0.1-0.1,0.1C67.1,35.3,67.1,35.3,67,35.3z"></path> <polygon fill-rule="evenodd" clip-rule="evenodd" fill="#B4B4B5" points="69.5,35.6 69.5,34.1 70.1,34.1 70.1,33.8 68.4,33.8 68.4,34.1 69,34.1 69,35.6 "></polygon> <polygon fill-rule="evenodd" clip-rule="evenodd" fill="#B4B4B5" points="82.7,34.8 83.4,34.8 83.4,34.5 82.7,34.5 82.7,34.1 83.4,34.1 83.4,33.8 82.2,33.8 82.2,35.6 82.7,35.6 "></polygon> <polygon fill-rule="evenodd" clip-rule="evenodd" fill="#B4B4B5" points="72.1,34.1 72.1,33.8 70.9,33.8 70.9,35.6 72.1,35.6 72.1,35.2 71.3,35.2 71.3,34.8 72,34.8 72,34.5 71.3,34.5 71.3,34.1 "></polygon> <polygon fill-rule="evenodd" clip-rule="evenodd" fill="#B4B4B5" points="89.8,34.1 89.8,33.8 88.6,33.8 88.6,35.6 89.8,35.6 89.8,35.2 89,35.2 89,34.8 89.7,34.8 89.7,34.5 89,34.5 89,34.1 "></polygon> <path fill-rule="evenodd" clip-rule="evenodd" fill="#B4B4B5" d="M79.9,33.8c-0.1,0-0.2,0.1-0.3,0.2c-0.1,0.1-0.2,0.2-0.2,0.3 c0,0.1-0.1,0.2-0.1,0.4c0,0.1,0,0.3,0.1,0.4c0,0.1,0.1,0.2,0.2,0.3c0.1,0.1,0.2,0.2,0.3,0.2c0.1,0,0.2,0.1,0.4,0.1 c0.1,0,0.3,0,0.4-0.1c0.1,0,0.2-0.1,0.3-0.2c0.1-0.1,0.2-0.2,0.2-0.3c0-0.1,0.1-0.2,0.1-0.4c0-0.1,0-0.3-0.1-0.4 c0-0.1-0.1-0.2-0.2-0.3c-0.1-0.1-0.2-0.1-0.3-0.2c-0.1,0-0.2-0.1-0.4-0.1C80.1,33.7,80,33.8,79.9,33.8z M80.8,34.7 c0,0.2,0,0.3-0.1,0.4c-0.1,0.1-0.2,0.2-0.4,0.2c-0.1,0-0.3-0.1-0.4-0.2c-0.1-0.1-0.1-0.2-0.1-0.4c0-0.2,0-0.3,0.1-0.4 c0.1-0.1,0.2-0.2,0.4-0.2c0.2,0,0.3,0.1,0.4,0.2C80.7,34.4,80.8,34.5,80.8,34.7z"></path> <polygon fill-rule="evenodd" clip-rule="evenodd" fill="#B4B4B5" points="87.5,34.1 87.5,33.8 86.3,33.8 86.3,35.6 87.5,35.6 87.5,35.2 86.8,35.2 86.8,34.8 87.5,34.8 87.5,34.5 86.8,34.5 86.8,34.1 "></polygon> <path fill-rule="evenodd" clip-rule="evenodd" fill="#B4B4B5" d="M77.7,34.1c0.1,0,0.2,0,0.3,0c0.1,0,0.2,0.1,0.3,0.1v-0.4 c-0.1,0-0.2-0.1-0.3-0.1c-0.1,0-0.2,0-0.3,0c-0.3,0-0.6,0.1-0.7,0.3c-0.2,0.2-0.3,0.4-0.3,0.7c0,0.1,0,0.3,0.1,0.4s0.1,0.2,0.2,0.3 c0.1,0.1,0.2,0.1,0.3,0.2c0.1,0,0.2,0.1,0.4,0.1c0.1,0,0.2,0,0.4,0c0.1,0,0.2-0.1,0.3-0.1V35c-0.1,0.1-0.2,0.1-0.3,0.2 c-0.1,0-0.2,0.1-0.3,0.1c-0.2,0-0.3-0.1-0.4-0.2c-0.1-0.1-0.1-0.2-0.1-0.4c0-0.2,0.1-0.3,0.2-0.4C77.4,34.2,77.6,34.1,77.7,34.1z"></path> <path fill-rule="evenodd" clip-rule="evenodd" fill="#B4B4B5" d="M74.1,35.5c0.1,0,0.2-0.1,0.3-0.1c0.1-0.1,0.2-0.2,0.3-0.3 c0.1-0.1,0.1-0.3,0.1-0.4c0-0.1,0-0.3-0.1-0.4c-0.1-0.1-0.1-0.2-0.3-0.3c-0.1-0.1-0.2-0.1-0.3-0.1c-0.1,0-0.3,0-0.5,0H73v1.8h0.7 C73.8,35.6,74,35.6,74.1,35.5z M73.4,34.1h0.3c0.2,0,0.3,0,0.4,0.1c0.1,0.1,0.1,0.2,0.1,0.4c0,0.2,0,0.3-0.1,0.4 c-0.1,0.1-0.2,0.2-0.4,0.2h-0.3V34.1z"></path> <polygon fill-rule="evenodd" clip-rule="evenodd" fill="#B4B4B5" points="85.4,34.1 85.4,33.8 84.3,33.8 84.3,35.6 84.7,35.6 84.7,34.8 85.4,34.8 85.4,34.5 84.7,34.5 84.7,34.1 "></polygon> <polygon fill-rule="evenodd" clip-rule="evenodd" fill="#B4B4B5" points="47,34.8 47.7,34.8 47.7,34.5 47,34.5 47,34.1 47.7,34.1 47.7,33.8 46.6,33.8 46.6,35.6 47,35.6 "></polygon> <polygon fill-rule="evenodd" clip-rule="evenodd" fill="#B4B4B5" points="56.9,35.6 56.9,33.8 56.5,33.8 56.5,34.5 55.6,34.5 55.6,33.8 55.2,33.8 55.2,35.6 55.6,35.6 55.6,34.9 56.5,34.9 56.5,35.6 "></polygon> <path fill-rule="evenodd" clip-rule="evenodd" fill="#B4B4B5" d="M50,34.3c0-0.2-0.1-0.3-0.2-0.4c-0.1-0.1-0.3-0.1-0.5-0.1h-0.7 v1.8h0.5v-0.7c0,0,0,0,0,0c0,0,0,0,0,0c0.1,0,0.2,0,0.2,0c0,0,0.1,0.1,0.1,0.2l0.2,0.5h0.5L49.9,35c0-0.1-0.1-0.1-0.1-0.1 c0,0-0.1-0.1-0.1-0.1c0.1,0,0.2-0.1,0.2-0.2C50,34.5,50,34.4,50,34.3z M49.5,34.5c0,0-0.1,0.1-0.2,0.1h-0.2v-0.4h0.2 c0.1,0,0.1,0,0.2,0.1c0,0,0.1,0.1,0.1,0.2C49.5,34.4,49.5,34.4,49.5,34.5z"></path> <path fill-rule="evenodd" clip-rule="evenodd" fill="#B4B4B5" d="M53.6,34.9c0.1,0,0.2,0.1,0.2,0.1c0,0,0,0.1,0,0.1 c0,0.1,0,0.1-0.1,0.1c0,0-0.1,0-0.2,0c-0.1,0-0.2,0-0.3-0.1c-0.1,0-0.2-0.1-0.3-0.2v0.4c0.1,0.1,0.2,0.1,0.3,0.1c0.1,0,0.2,0,0.3,0 c0.2,0,0.4,0,0.5-0.1c0.1-0.1,0.2-0.2,0.2-0.4c0-0.1,0-0.2-0.1-0.3c0-0.1-0.1-0.1-0.2-0.2c-0.1,0-0.2-0.1-0.4-0.2c0,0-0.1,0-0.1,0 c-0.1,0-0.1-0.1-0.2-0.1c0,0-0.1-0.1-0.1-0.1c0,0,0-0.1,0.1-0.1c0,0,0.1,0,0.2,0c0.1,0,0.2,0,0.3,0c0.1,0,0.2,0.1,0.3,0.1v-0.4 c-0.1,0-0.2-0.1-0.3-0.1c-0.1,0-0.2,0-0.3,0c-0.2,0-0.4,0-0.5,0.1C53,34,53,34.1,53,34.3c0,0.1,0,0.3,0.1,0.4 C53.2,34.7,53.4,34.8,53.6,34.9z"></path> <polygon fill-rule="evenodd" clip-rule="evenodd" fill="#B4B4B5" points="52.1,34.1 52.1,33.8 50.9,33.8 50.9,35.6 52.1,35.6 52.1,35.2 51.4,35.2 51.4,34.8 52.1,34.8 52.1,34.5 51.4,34.5 51.4,34.1 "></polygon> <path fill-rule="evenodd" clip-rule="evenodd" fill="#B4B4B5" d="M58.9,35.6h0.5v-0.7c0,0,0,0,0,0c0,0,0,0,0,0c0.1,0,0.2,0,0.2,0 c0,0,0.1,0.1,0.1,0.2l0.2,0.5h0.5L60.2,35c0-0.1-0.1-0.1-0.1-0.1c0,0-0.1-0.1-0.1-0.1c0.1,0,0.2-0.1,0.2-0.2 c0.1-0.1,0.1-0.2,0.1-0.3c0-0.2-0.1-0.3-0.2-0.4c-0.1-0.1-0.3-0.1-0.5-0.1h-0.7V35.6z M59.4,34.1h0.2c0.1,0,0.1,0,0.2,0.1 c0,0,0.1,0.1,0.1,0.2c0,0.1,0,0.1-0.1,0.2c0,0-0.1,0.1-0.2,0.1h-0.2V34.1z"></path> <path fill-rule="evenodd" clip-rule="evenodd" fill="#B4B4B5" d="M64.1,35.6l0.1-0.4h0.8l0.1,0.4h0.5L65,33.8h-0.5l-0.8,1.8H64.1z M64.7,34.2l0.3,0.7h-0.5L64.7,34.2z"></path> <path fill-rule="evenodd" clip-rule="evenodd" fill="#B4B4B5" d="M61.4,35.4c0.1,0.1,0.2,0.2,0.3,0.2c0.1,0,0.2,0.1,0.4,0.1 c0.1,0,0.3,0,0.4-0.1c0.1,0,0.2-0.1,0.3-0.2c0.1-0.1,0.2-0.2,0.2-0.3c0-0.1,0.1-0.2,0.1-0.4c0-0.1,0-0.3-0.1-0.4 c0-0.1-0.1-0.2-0.2-0.3c-0.1-0.1-0.2-0.1-0.3-0.2c-0.1,0-0.2-0.1-0.4-0.1c-0.1,0-0.3,0-0.4,0.1c-0.1,0-0.2,0.1-0.3,0.2 c-0.1,0.1-0.2,0.2-0.2,0.3c0,0.1-0.1,0.2-0.1,0.4c0,0.1,0,0.3,0.1,0.4C61.2,35.2,61.3,35.3,61.4,35.4z M61.7,34.3 c0.1-0.1,0.2-0.2,0.4-0.2c0.2,0,0.3,0.1,0.4,0.2c0.1,0.1,0.1,0.2,0.1,0.4c0,0.2,0,0.3-0.1,0.4c-0.1,0.1-0.2,0.2-0.4,0.2 c-0.1,0-0.3-0.1-0.4-0.2c-0.1-0.1-0.1-0.2-0.1-0.4C61.6,34.5,61.6,34.4,61.7,34.3z"></path> <path fill-rule="evenodd" clip-rule="evenodd" fill="#B4B4B5" d="M118.2,25.7l-0.1-0.1c-0.1-0.1-0.2-0.3-0.2-0.4 c0-0.1-0.1-0.1-0.2-0.2l-0.1,0c-0.4-0.1-0.8-0.2-1.2-0.2c-0.2,0-0.5,0.1-0.6,0.3c-0.9,2-1.8,4.1-2.6,6.2c-0.1,0.2,0,0.3,0.2,0.4 c0.2,0.1,0.5,0.3,0.7,0.3c0.2,0,0.4,0.1,0.7,0.1c0.1,0,0.1,0,0.2,0c0.1,0,0.1-0.1,0.1-0.1l0.1-0.1c0-0.1,0.1-0.1,0.1-0.2 c0.1-0.1,0.1-0.1,0.2-0.1c0.2,0,0.5,0.1,0.6,0.3c0.1,0.1,0.1,0.1,0.2,0.2c0.4,0.3,0.9,0.5,1.5,0.4c0.1,0,0.2-0.1,0.2-0.3 c0.1-1.5,0.2-3,0.2-4.5c0-0.5,0.1-1.1,0-1.6L118.2,25.7z M117.5,27.2c0,1.3-0.1,2.7-0.2,4c0,0.1,0,0.2,0,0.3c0,0.1-0.1,0.1-0.1,0.1 c-0.1,0-0.2,0-0.2,0c-0.1,0-0.2,0-0.3,0c-0.1,0-0.1-0.1-0.1-0.2c0-0.1,0-0.2,0-0.2c0-0.1,0-0.1,0-0.2c0,0,0,0,0,0c0,0,0,0-0.1,0 c-0.2-0.1-0.3-0.1-0.5-0.1c-0.4-0.1-0.7-0.1-1.1-0.1c-0.1,0-0.2,0-0.2,0.1c0,0.1-0.1,0.2-0.1,0.3c0,0.1-0.2,0.2-0.3,0.1 c-0.1,0-0.2,0-0.3,0c-0.1,0-0.1,0-0.1-0.1c0,0,0-0.1,0-0.2c0.7-1.7,1.5-3.5,2.2-5.2c0.1-0.2,0.2-0.4,0.3-0.6 c0.1-0.1,0.1-0.1,0.2-0.1c0.3,0,0.6,0,0.8,0.1c0.2,0,0.3,0.2,0.3,0.3C117.5,26.1,117.5,26.7,117.5,27.2z"></path> <path fill-rule="evenodd" clip-rule="evenodd" fill="#B4B4B5" d="M20.4,28.2c-0.2-0.8-0.4-1.5-0.6-2.3l-0.1-0.2l-0.1-0.1 c-0.1-0.1-0.3-0.3-0.4-0.4C19.2,25.1,19,25,18.9,25c-0.3,0-0.5,0.1-0.8,0.1c-0.2,0.1-0.4,0.3-0.3,0.5c0.5,2,1.1,4,1.7,6 c0.1,0.2,0.2,0.4,0.4,0.4c0.4,0.2,0.9,0.3,1.4,0.1c0.1,0,0.1-0.1,0.2-0.1c0,0,0-0.1,0-0.1c0-0.2-0.1-0.4-0.1-0.6L20.4,28.2z M20.4,31.7c-0.1,0-0.1,0-0.2,0.1c-0.1,0-0.2,0-0.2,0c-0.1,0-0.1-0.1-0.1-0.2c-0.5-1.9-1.1-3.9-1.6-5.8c0-0.1,0-0.1,0-0.2 c0-0.1,0.1-0.1,0.2-0.1c0.1,0,0.3,0,0.4,0c0.1,0,0.1,0,0.1,0.1c0.1,0.5,0.3,1,0.4,1.5c0.4,1.4,0.7,2.7,1.1,4.1 c0,0.1,0.1,0.2,0.1,0.4C20.5,31.6,20.5,31.7,20.4,31.7z"></path> <path fill-rule="evenodd" clip-rule="evenodd" fill="#B4B4B5" d="M28.1,24.7c-0.1-0.1-0.1-0.2-0.2-0.2c-0.1-0.1-0.2-0.2-0.3-0.4 c-0.1-0.1-0.1-0.1-0.2-0.1c-0.4,0-0.9,0-1.3,0.1c0,0-0.1,0-0.1,0.1c0,0.1,0,0.1,0,0.2c0.1,0.6,0.3,1.1,0.4,1.7c0,0,0,0.1,0,0.1 c0,0,0,0,0,0c0,0,0,0-0.1,0c-0.2-0.3-0.4-0.5-0.6-0.8c-0.3-0.4-0.6-0.7-1.1-0.9c-0.2,0-0.5,0-0.7,0c-0.2,0-0.4,0.1-0.6,0.2 c-0.1,0-0.1,0.1-0.1,0.2c0,0.6,0.1,1.2,0.3,1.8c0.4,1.6,0.8,3.2,1.2,4.7c0.1,0.1,0.2,0.2,0.3,0.3c0.2,0,0.4,0.1,0.5,0.2 c0.1,0,0.1,0,0.2,0c0.2,0,0.5-0.1,0.7-0.1c0.1,0,0.1,0,0.1-0.1c0,0,0-0.1,0-0.1c0-0.1,0-0.2-0.1-0.3c-0.1-0.5-0.2-1-0.4-1.6 c0,0,0,0,0,0c0,0,0.1,0,0.1,0c0.1,0.1,0.2,0.2,0.3,0.4c0.2,0.3,0.4,0.6,0.6,0.8c0.3,0.3,0.8,0.5,1.2,0.6c0.3,0,0.7,0,0.9-0.2 c0.1-0.1,0.2-0.2,0.2-0.4l0-0.1C29.1,28.7,28.6,26.7,28.1,24.7z M28.6,30.5c-0.3,0.3-0.8,0.3-1.1,0c-0.7-0.9-1.3-1.9-1.9-2.9 l-0.1-0.1c-0.1,0-0.1,0-0.2,0c-0.1,0-0.2,0.1-0.3,0.1c0,0.1-0.1,0.1,0,0.2c0.2,0.8,0.4,1.5,0.5,2.3c0.1,0.2,0.1,0.4,0.1,0.6 c0,0,0,0.1,0,0.1l-0.1,0c-0.1,0-0.2,0.1-0.4,0.1c-0.1,0-0.1,0-0.2,0C25,31.1,25,31,25,31c-0.5-2-1-3.9-1.5-5.9c0-0.1,0-0.1,0-0.1 c0-0.1,0.1-0.1,0.2-0.1c0.2,0,0.4,0,0.7,0l0.1,0l0.3,0.2c0.5,0.7,1.1,1.4,1.5,2.2c0.1,0.1,0.1,0.2,0.2,0.3c0.1,0,0.1,0.1,0.2,0 c0.1,0,0.2-0.1,0.2-0.1c0-0.1,0.1-0.1,0-0.2c-0.1-0.5-0.2-1.1-0.4-1.6c-0.1-0.3-0.1-0.6-0.2-0.9c0-0.1,0-0.1,0-0.1 c0.1-0.1,0.1-0.1,0.2-0.1c0.1,0,0.1,0,0.2,0c0.1,0,0.2,0,0.3,0c0.1,0,0.1,0.1,0.1,0.1c0.4,1.9,0.9,3.9,1.3,5.8 C28.7,30.4,28.6,30.4,28.6,30.5z"></path> <path fill-rule="evenodd" clip-rule="evenodd" fill="#B4B4B5" d="M111.2,24.5L111.2,24.5c-0.1-0.1-0.1-0.2-0.1-0.2 c-0.1-0.3-0.3-0.4-0.6-0.4c-0.2,0-0.4,0-0.6,0c-0.2,0-0.4,0.2-0.4,0.5c-0.5,2-0.9,4-1.3,6c0,0.2,0.1,0.5,0.3,0.6 c0.3,0.2,0.7,0.3,1,0.4c0.2,0,0.3,0,0.4-0.2c0.4-1.5,0.7-3.1,1.1-4.6c0.1-0.4,0.2-0.8,0.3-1.2c0-0.2,0.1-0.4,0-0.5c0,0,0-0.1,0-0.1 C111.3,24.6,111.3,24.6,111.2,24.5z M110.3,26c-0.3,1.5-0.7,3-1,4.5c0,0.1-0.1,0.1-0.2,0.1c-0.1,0-0.2,0-0.3,0 c-0.1,0-0.2-0.1-0.2-0.2c0-0.1,0-0.1,0-0.2l1.2-5.5c0-0.1,0-0.2,0.1-0.3c0,0,0.1-0.1,0.1-0.1c0.2-0.1,0.4-0.1,0.5,0 c0.1,0,0.1,0.1,0.1,0.2L110.3,26z"></path> <path fill-rule="evenodd" clip-rule="evenodd" fill="#B4B4B5" d="M104.3,30.4c0.9-0.5,1.2-1.5,0.9-2.4c-0.1-0.2-0.3-0.5-0.4-0.7 c-0.4-0.6-1-1.1-1.6-1.5c-0.1-0.1-0.1-0.2-0.2-0.3c-0.1-0.2,0-0.5,0.2-0.6c0.1-0.1,0.2-0.1,0.3-0.1c0.1,0,0.2,0,0.3,0.1 c0.1,0.1,0.2,0.3,0.3,0.4c0.1,0.1,0.1,0.1,0.2,0.1c0.1,0,0.1,0,0.2,0c0,0,0,0,0.1,0c0,0,0,0,0,0c0,0,0.1,0.1,0.1,0.1 c0.1,0.1,0.2,0.1,0.3,0c0.2-0.2,0.5-0.4,0.7-0.6c0-0.1,0-0.2,0-0.3c-0.4-0.9-1.2-1.6-2.2-1.7c-1.1-0.2-2.1,0.4-2.5,1.4 c-0.2,1,0.2,2.1,1.1,2.7c0.4,0.3,0.7,0.7,1,1.1c0.1,0.2,0.1,0.5-0.1,0.6c-0.2,0.2-0.4,0.2-0.6,0.1c-0.4-0.2-0.7-0.5-0.9-0.9 c-0.1-0.1-0.2-0.2-0.4-0.1c-0.4,0.2-0.7,0.4-0.9,0.8c0,0.1,0,0.2,0,0.3C100.9,30.4,102.7,31.1,104.3,30.4z M100.8,28.6 c0.1-0.1,0.1-0.1,0.2-0.2c0,0,0.1,0,0.1,0l0.1,0.1c0.2,0.2,0.4,0.5,0.7,0.7c0.3,0.3,0.8,0.3,1.1,0.1c0.4-0.2,0.5-0.6,0.4-1.1 c-0.3-0.6-0.8-1.1-1.3-1.5c-0.7-0.5-1-1.4-0.8-2.2c0.3-0.6,0.9-1,1.6-1c0.7,0,1.3,0.3,1.7,0.8c0.1,0.1,0.1,0.1,0.1,0.2 c0,0.1,0,0.1-0.1,0.2c0,0-0.1,0-0.1,0.1c0,0-0.1,0.1-0.1,0.1c0,0-0.1,0.1-0.2,0c-0.1,0-0.1,0-0.1-0.1c-0.2-0.2-0.4-0.4-0.6-0.5 c-0.3-0.3-0.8-0.3-1.1-0.1c-0.4,0.2-0.5,0.7-0.3,1.1c0.3,0.6,0.8,1.1,1.3,1.4c0.2,0.1,0.3,0.2,0.4,0.4c0.6,0.5,0.8,1.4,0.3,2 c-0.4,0.6-1.1,0.9-1.9,0.9c-0.7,0-1.4-0.4-1.8-1.1c0,0,0-0.1-0.1-0.1C100.7,28.7,100.7,28.6,100.8,28.6z"></path> <path fill-rule="evenodd" clip-rule="evenodd" fill="#B4B4B5" d="M31.3,24.9L31.3,24.9c0.1,0,0.2,0,0.2,0c0.1,0,0.1,0,0.2,0 c0.1,0,0.2,0,0.2,0.1l0.1,0.1c0.1,0.1,0.2,0.1,0.3,0.1c0.2,0,0.4,0,0.6-0.1c0.1,0,0.1,0,0.2,0.1c0.1,0.3,0.2,0.5,0.2,0.8 c0.2,1.3,0.5,2.6,0.8,4c0,0.2,0.2,0.3,0.4,0.4c0.2,0,0.4,0.1,0.5,0.2c0.1,0.1,0.2,0.1,0.3,0.1c0.3,0,0.6-0.1,0.9-0.1c0,0,0,0,0.1,0 c0,0,0,0,0-0.1c-0.2-1.3-0.4-2.5-0.7-3.8c-0.1-0.5-0.2-1-0.2-1.5c0-0.1,0.1-0.2,0.2-0.2c0.5,0,0.9-0.1,1.4-0.2c0.1,0,0.1,0,0.2,0 c0,0,0.1,0,0.1-0.1c0-0.1,0-0.1,0-0.2c-0.1-0.2-0.1-0.5-0.1-0.7c0-0.1,0-0.1-0.1-0.2c-0.2-0.1-0.3-0.3-0.4-0.5 c-0.1-0.2-0.3-0.2-0.5-0.2c-1.5,0.1-2.9,0.3-4.4,0.5c-0.1,0-0.3,0.1-0.3,0.2C31,23.6,31,23.8,31,23.9c0.1,0.3,0.1,0.6,0.2,0.9 C31.2,24.9,31.2,24.9,31.3,24.9z M31.5,23.8c0.1-0.1,0.1-0.1,0.2-0.1c1-0.1,2.1-0.2,3.1-0.3c0.3,0,0.6-0.1,0.9-0.1 c0.1,0,0.2,0.1,0.2,0.2c0,0.1,0,0.2,0,0.3c0,0.1,0,0.1,0,0.1c0,0-0.1,0.1-0.1,0.1c-0.4,0-0.8,0.1-1.3,0.1c-0.1,0-0.2,0-0.3,0 c0,0-0.1,0-0.1,0.1c0,0.1,0,0.1,0,0.2c0.1,0.3,0.1,0.6,0.2,0.9c0.3,1.4,0.5,2.8,0.8,4.2c0,0.1,0,0.1-0.1,0.2c0,0.1-0.1,0.1-0.2,0.1 c-0.1,0-0.1,0-0.2,0c-0.1,0-0.2,0-0.3,0c-0.1,0-0.1-0.1-0.1-0.1c-0.3-1.6-0.6-3.2-0.9-4.9c0-0.1,0-0.2-0.1-0.3 c0-0.1-0.1-0.1-0.2-0.1c-0.2,0-0.5,0-0.7,0c-0.3,0-0.5,0.1-0.8,0.1c-0.1,0-0.2-0.1-0.2-0.1C31.5,24.2,31.4,24.1,31.5,23.8 L31.5,23.8z"></path> <path fill-rule="evenodd" clip-rule="evenodd" fill="#B4B4B5" d="M116.2,27.3c-0.1,0.1-0.3,0.2-0.3,0.3c-0.3,0.7-0.5,1.3-0.8,2 c0,0.1,0,0.2,0,0.3c0,0.1,0.1,0.1,0.1,0.1c0.3,0.1,0.6,0.2,0.8,0.1c0.2,0,0.4-0.2,0.4-0.4c0.1-0.7,0.2-1.3,0.2-2c0-0.1,0-0.2,0-0.4 C116.6,27.3,116.4,27.3,116.2,27.3z"></path> <path fill-rule="evenodd" clip-rule="evenodd" fill="#B4B4B5" d="M41.2,29.6c0.5,0.2,1.1,0.3,1.6,0.2c0.8-0.1,1.6-0.2,2.5-0.2 c0.1,0,0.2-0.1,0.3-0.1c0.1-0.1,0.1-0.1,0.1-0.2c-0.1-0.2-0.1-0.5-0.1-0.7c0-0.1-0.1-0.2-0.1-0.2c0,0-0.1,0-0.1-0.1 c0,0,0,0-0.1-0.1c0,0,0-0.1-0.1-0.1c0,0,0,0,0-0.1c0,0,0-0.1,0-0.1c0,0-0.1-0.1-0.1-0.1c-0.1,0-0.2,0-0.3,0 c-0.6,0.1-1.2,0.1-1.8,0.1c-0.1,0-0.1,0-0.1-0.1c0-0.1,0-0.2,0-0.3c0-0.1,0-0.2,0-0.2c0-0.1,0-0.2,0-0.2c0,0,0.1-0.1,0.1-0.1 c0.4,0,0.8-0.1,1.3-0.1c0.1,0,0.2,0,0.2-0.1c0,0,0-0.1,0-0.2c0-0.2,0-0.4,0-0.6c0-0.1-0.1-0.3-0.1-0.4L44,25.5 c-0.1-0.2-0.3-0.3-0.4-0.5c0-0.1-0.1-0.1-0.2-0.1c-0.4,0-0.7,0.1-1.1,0.1c-0.1,0-0.1,0-0.1-0.1c0-0.1-0.1-0.2-0.1-0.3 c0-0.1,0-0.2,0-0.3l0-0.1c0,0,0.1-0.1,0.1-0.1c0.1,0,0.2-0.1,0.3-0.1c0.7-0.1,1.3-0.1,2-0.1c0.1,0,0.1,0,0.2-0.1c0,0,0-0.1,0-0.2 c0-0.3-0.1-0.6-0.1-0.9c0-0.1-0.1-0.1-0.1-0.2c-0.2-0.1-0.3-0.3-0.4-0.4c-0.1-0.1-0.2-0.2-0.4-0.2c-1.2,0.1-2.4,0.2-3.6,0.3 c-0.1,0-0.3,0.1-0.3,0.2c-0.1,0.1-0.1,0.2-0.1,0.4c0.3,2,0.6,4.1,0.9,6.1C40.8,29.3,41,29.5,41.2,29.6z M40.3,22.9 c0.1-0.1,0.1-0.1,0.2-0.1l3-0.2c0.1,0,0.1,0,0.2,0c0.1,0,0.1,0.1,0.2,0.2c0,0.1,0,0.2,0.1,0.3c0,0.1,0,0.1,0,0.2 c0,0-0.1,0.1-0.2,0.1c-0.7,0.1-1.3,0.1-2,0.2c-0.1,0-0.2,0-0.3,0c-0.1,0-0.1,0.1-0.1,0.2c0,0.1,0,0.2,0,0.2c0.1,0.5,0.1,1,0.3,1.4 c0,0,0,0,0.1,0.1c0,0,0,0,0.1,0c0.1,0,0.2,0,0.3,0c0.4,0,0.9-0.1,1.3-0.1c0.1,0,0.1,0,0.1,0.1c0,0.1,0.1,0.2,0,0.4 c0,0.1,0,0.2,0,0.3c0,0.1-0.1,0.1-0.2,0.1c-0.4,0-0.8,0.1-1.3,0.1c-0.1,0-0.2,0-0.3,0c0,0-0.1,0.1-0.1,0.1c0.1,0.5,0.2,0.9,0.2,1.4 c0,0.1,0,0.2,0.1,0.3c0,0.1,0.1,0.1,0.2,0.1c0.8-0.1,1.5-0.1,2.3-0.2l0.1,0l0.1,0.1c0.1,0.1,0.1,0.2,0.1,0.4c0,0,0,0.1,0,0.1 c0,0,0,0.1,0,0.1c0,0-0.1,0.1-0.2,0.1c-1.1,0.1-2.1,0.2-3.2,0.3c-0.1,0-0.3-0.1-0.3-0.2c-0.3-2-0.6-3.9-0.9-5.9 C40.3,23,40.3,22.9,40.3,22.9z"></path> <path fill-rule="evenodd" clip-rule="evenodd" fill="#B4B4B5" d="M92.2,23.7c0.1,0,0.1,0,0.2,0c0.1,0,0.3,0.1,0.4,0.2 c0.2,0.1,0.3,0.2,0.5,0.2c0.1,0,0.2,0,0.3,0c0.1,0,0.1,0,0.1,0.1c0,0.1,0,0.2,0,0.3L93.1,29c0,0.2,0.1,0.4,0.3,0.4 c0.4,0.3,0.9,0.4,1.5,0.4c0.1,0,0.2,0,0.2-0.1c0.1-0.5,0.2-1,0.2-1.4c0.1-1,0.3-2,0.4-3c0-0.3,0.1-0.5,0.1-0.8 c0-0.1,0.1-0.1,0.1-0.2c0,0,0.1,0,0.1,0c0.2,0,0.4,0,0.6,0.1c0.3,0,0.6,0,0.9,0l0.2,0c0,0,0.1-0.1,0.1-0.1c0-0.1,0-0.2,0-0.3l0-0.4 c0-0.1,0-0.2-0.1-0.3c-0.1-0.1-0.1-0.1-0.2-0.2c0-0.1-0.1-0.2-0.1-0.2c-0.1-0.1-0.2-0.2-0.3-0.2c-1.5-0.2-3-0.3-4.5-0.4 c-0.2,0-0.4,0.1-0.5,0.4c-0.1,0.3-0.1,0.7-0.1,1C92.1,23.6,92.1,23.7,92.2,23.7z M92.6,22.8c0-0.1,0.1-0.2,0.2-0.2 c1.4,0.1,2.8,0.2,4.1,0.3c0.1,0,0.2,0.1,0.2,0.3c0,0.1,0,0.3-0.1,0.4c0,0.1-0.1,0.2-0.2,0.2c-0.5-0.1-1-0.1-1.5-0.1 c-0.1,0-0.1,0-0.2,0.1c0,0-0.1,0.1-0.1,0.2c0,0.1,0,0.3,0,0.4c-0.2,1.6-0.4,3.1-0.7,4.7c0,0.1,0,0.1-0.1,0.2 c-0.1,0-0.1,0.1-0.2,0.1c-0.1,0-0.2,0-0.3,0c-0.1,0-0.1,0-0.2,0c0,0-0.1-0.1-0.1-0.1l0-0.2c0.2-1.7,0.4-3.4,0.7-5.1 c0,0,0-0.1,0-0.1c0,0,0,0,0,0c0,0-0.1-0.1-0.2-0.1c-0.2,0-0.3,0-0.5,0c-0.3,0-0.6,0-0.9-0.1c-0.1,0-0.1-0.1-0.1-0.2 C92.6,23,92.6,22.9,92.6,22.8z"></path> <path fill-rule="evenodd" clip-rule="evenodd" fill="#B4B4B5" d="M83.5,28.7c0.1,0,0.2,0.1,0.3,0.1c0.1,0.1,0.2,0.1,0.3,0.2 c0.1,0,0.3,0.1,0.4,0.1c0.1,0,0.3,0,0.4,0c0.1,0,0.1,0,0.2,0c0.1,0,0.1-0.1,0.1-0.2c0-0.5,0.1-0.9,0.1-1.4c0-0.1,0-0.1,0.1-0.2 c0,0,0,0,0,0c0,0,0,0,0,0c0,0,0.1,0.1,0.1,0.1c0.1,0.5,0.3,0.9,0.5,1.3c0.2,0.2,0.4,0.3,0.7,0.4c0,0,0.1,0,0.1,0.1 c0.1,0,0.1,0.1,0.2,0.1c0.1,0,0.2,0,0.3,0c0.1,0,0.3,0,0.4,0c0.3,0,0.5-0.3,0.5-0.6c0.1-1.2,0.3-2.4,0.4-3.6 c0.1-0.8,0.2-1.6,0.2-2.3c0-0.1,0-0.2-0.1-0.2c-0.1-0.2-0.2-0.3-0.3-0.5c0-0.1-0.1-0.1-0.2-0.2c-0.4-0.1-0.8-0.1-1.2-0.1 c-0.1,0-0.2,0-0.2,0.1c0,0.1,0,0.2,0,0.3c0,0.4-0.1,0.8-0.1,1.1l0,0.1c0,0,0,0,0,0c0,0,0,0,0,0c-0.1-0.1-0.1-0.2-0.1-0.3 c-0.2-0.5-0.5-1-0.9-1.4c-0.2-0.1-0.4-0.1-0.7-0.1c-0.2,0-0.4,0-0.6,0c-0.2,0-0.4,0.2-0.4,0.4c-0.2,2.1-0.3,4.1-0.5,6.2 c0,0.1,0,0.2,0.1,0.3C83.4,28.7,83.4,28.7,83.5,28.7z M84.2,22.3c0-0.1,0.1-0.2,0.3-0.2c0.2,0,0.4,0,0.6,0c0.1,0,0.3,0.1,0.3,0.2 c0.2,0.6,0.4,1.2,0.6,1.8c0.1,0.4,0.2,0.7,0.3,1.1c0,0.1,0.1,0.1,0.2,0.1l0.1,0c0.1,0,0.2,0,0.2,0c0.1,0,0.1-0.1,0.1-0.1 c0.1-0.9,0.2-1.7,0.3-2.6c0-0.1,0.1-0.2,0.2-0.2c0.2,0,0.4,0,0.5,0.1c0.1,0,0.1,0.1,0.1,0.2c0,0.6-0.1,1.1-0.2,1.7 c-0.1,1.4-0.3,2.7-0.4,4.1c0,0.1,0,0.1-0.1,0.2c-0.2,0.1-0.4,0.2-0.6,0.2c-0.2,0-0.4-0.1-0.5-0.3c-0.4-1-0.7-2-0.9-3.1 c0-0.1-0.1-0.2-0.3-0.2c-0.1,0-0.2,0-0.3,0.1c-0.1,0-0.1,0.1-0.1,0.2l-0.3,2.9c0,0.1-0.1,0.2-0.2,0.2c-0.1,0-0.3,0-0.4,0 c-0.1,0-0.2-0.1-0.2-0.2C83.8,26.2,84,24.3,84.2,22.3z"></path> <path fill-rule="evenodd" clip-rule="evenodd" fill="#B4B4B5" d="M48.6,28.4c0,0.2,0.2,0.4,0.5,0.5c0.1,0.1,0.3,0.1,0.4,0.2 c0.3,0.1,0.6,0.1,1,0.1c0.6-0.1,1.3-0.1,1.9-0.1c0.1,0,0.2-0.1,0.2-0.1l0-0.1l-0.1-0.6l0-0.2c0,0,0,0,0,0c0,0-0.1-0.1-0.1-0.1 c0,0-0.1,0-0.1,0c0,0,0,0,0,0c0-0.1-0.1-0.1-0.1-0.2c0,0,0-0.1-0.1-0.1l0-0.1c0,0-0.1,0-0.1,0c-0.4,0-0.9,0-1.3,0 c-0.1,0-0.1,0-0.1-0.1c0-0.1,0-0.2,0-0.3c-0.2-1.5-0.3-2.9-0.4-4.4c0-0.1-0.1-0.3-0.2-0.4c0,0-0.1-0.1-0.1-0.1 c0-0.1-0.1-0.2-0.1-0.3c-0.1-0.1-0.2-0.2-0.4-0.2c-0.2,0-0.5,0-0.7,0c-0.2,0-0.3,0.1-0.4,0.3c-0.1,0.1-0.1,0.3,0,0.5L48.6,28.4z M48.4,22.3c0-0.1,0.1-0.1,0.1-0.1c0.1,0,0.2,0,0.3,0c0.1,0,0.1,0,0.2,0c0,0,0,0,0,0c0.1,0,0.1,0.1,0.1,0.2c0.2,1.7,0.4,3.4,0.5,5 c0,0.1,0,0.2,0.1,0.3c0,0,0,0,0,0.1c0,0,0,0,0.1,0c0.2,0,0.4,0,0.6,0c0.3,0,0.7,0,1,0c0.1,0,0.1,0,0.2,0.1c0,0,0,0,0,0.1 c0,0,0,0.1,0,0.1c0,0.1,0,0.1,0,0.2c0,0.1-0.1,0.1-0.1,0.1c-0.7,0.1-1.4,0.1-2.1,0.1c-0.1,0-0.2,0-0.3,0c-0.1,0-0.1-0.1-0.1-0.2 c-0.2-1.9-0.4-3.7-0.6-5.6C48.3,22.6,48.3,22.4,48.4,22.3z"></path> <path fill-rule="evenodd" clip-rule="evenodd" fill="#B4B4B5" d="M55.8,28.6c0.6,0.3,1.3,0.4,1.9,0.2c0.5,0,0.9,0,1.4,0 c0,0,0.1,0,0.1,0c0,0,0-0.1,0-0.1c0-0.2,0-0.4,0-0.6l0-0.2c0,0,0,0,0,0c0,0,0,0-0.1-0.1c0,0-0.1-0.1-0.1-0.1c0,0-0.1,0-0.1-0.1 c0,0,0,0,0,0c0-0.1,0-0.2-0.1-0.2c0,0,0-0.1,0-0.1c0,0,0,0,0,0c0,0-0.1-0.1-0.1-0.1c-0.1,0-0.2,0-0.3,0c-0.3,0-0.6,0-0.9,0 c-0.1,0-0.2-0.1-0.2-0.1c0-0.1-0.1-0.2,0-0.3c-0.1-1.5-0.2-3-0.3-4.5c0-0.1,0-0.1-0.1-0.1c-0.1-0.1-0.2-0.2-0.3-0.4 c0-0.1-0.1-0.1-0.1-0.2c-0.1-0.1-0.2-0.1-0.2-0.1c-0.3,0-0.5,0-0.8,0C55.1,21.5,55,21.7,55,22c0.1,2.1,0.2,4.1,0.4,6.2 C55.5,28.3,55.6,28.5,55.8,28.6z M55.5,21.9c0.1,0,0.1-0.1,0.2-0.1c0.1,0,0.2,0,0.2,0c0.1,0,0.1,0.1,0.1,0.2 c0.1,1.7,0.3,3.5,0.4,5.2c0,0.1,0,0.2,0,0.3c0,0.1,0.1,0.1,0.1,0.1c0.1,0,0.1,0,0.2,0l1.4,0c0,0,0,0,0.1,0c0,0,0,0,0,0 c0,0.1,0.1,0.1,0.1,0.2c0,0.1,0,0.2,0,0.2c0,0.1-0.1,0.1-0.2,0.1c-0.7,0-1.5,0-2.2,0.1c-0.1,0-0.2-0.1-0.3-0.3 c-0.2-2-0.3-3.9-0.4-5.9C55.4,22,55.4,21.9,55.5,21.9z"></path> <path fill-rule="evenodd" clip-rule="evenodd" fill="#B4B4B5" d="M70.7,21.4c-0.8-0.3-1.7-0.3-2.5,0.1c-0.7,0.5-1,1.3-0.9,2.1 c-0.1,1.2-0.1,2.4,0.2,3.6c0.2,0.7,0.8,1.3,1.6,1.4c0.8,0.4,1.7,0.3,2.5-0.2c0.5-0.5,0.8-1.2,0.9-2c0-0.4,0.1-0.8,0-1.2 c0-0.1,0-0.1-0.1-0.2l-0.1,0c-0.1,0-0.2-0.1-0.2-0.2c0-0.1-0.1-0.2-0.1-0.2c0-0.1-0.1-0.1-0.1-0.1c-0.1,0-0.2,0-0.3,0 c-0.5,0-1.1,0-1.6,0c-0.2,0-0.3,0.2-0.3,0.3c0,0.2,0,0.5,0,0.7c0,0.1,0,0.1,0.1,0.1c0.1,0,0.2,0,0.3,0c0.1,0,0.1,0,0.2,0 c0.1,0,0.1,0.1,0.1,0.1c0,0.1,0.1,0.2,0.1,0.3c0,0.2,0,0.4-0.1,0.5C70,26.9,69.9,27,69.7,27c-0.1,0-0.2-0.1-0.2-0.2 c-0.1-1-0.1-2.1,0-3.1c0-0.3,0.2-0.5,0.5-0.5c0.1,0,0.1,0,0.2,0.1c0,0.1,0.1,0.2,0.1,0.3l0,0.1c0,0,0,0.1,0.1,0.1l0.1,0 c0.1,0,0.2,0,0.2,0c0.1,0,0.1,0,0.2,0c0,0,0.1,0,0.1,0.1c0,0,0.1,0.1,0.1,0.1c0.1,0,0.1,0,0.2,0c0.3,0,0.6-0.1,0.9-0.2 c0.1,0,0.1-0.1,0.1-0.1l0-0.1c0-0.1,0-0.1,0-0.2C72,22.6,71.5,21.9,70.7,21.4z M71.4,23c0,0.1-0.1,0.1-0.2,0.1c-0.1,0-0.2,0-0.4,0 c-0.1,0-0.2,0-0.3,0c0,0-0.1-0.1-0.1-0.1c-0.2-0.4-0.5-0.6-0.9-0.6c-0.4,0-0.8,0.3-0.9,0.6c-0.1,0.6-0.1,1.3-0.1,1.9 c0,0.5,0,1.1,0.1,1.6c0.1,0.4,0.5,0.7,0.9,0.7c0.4,0,0.8-0.2,1-0.6c0.1-0.3,0.1-0.6,0.2-1c0-0.1,0-0.2,0-0.3c0-0.1-0.1-0.1-0.2-0.1 c-0.1,0-0.2,0-0.3,0c-0.1,0-0.1,0-0.2,0c0,0-0.1,0-0.1-0.1c0-0.1,0-0.2,0-0.2c0-0.1,0.1-0.1,0.1-0.1c0.4,0,0.8,0,1.2,0 c0.1,0,0.1,0,0.2,0c0.1,0,0.1,0.1,0.1,0.1c0,0.5,0,1.1-0.1,1.6c-0.1,0.8-0.8,1.5-1.6,1.5c-0.9,0.2-1.8-0.4-2.1-1.3 c-0.1-1-0.1-2.1-0.1-3.2c-0.1-0.7,0.2-1.4,0.7-1.8c0.5-0.3,1.1-0.4,1.7-0.3c0.6,0.2,1.1,0.6,1.3,1.2C71.4,22.9,71.4,23,71.4,23z"></path> <path fill-rule="evenodd" clip-rule="evenodd" fill="#B4B4B5" d="M75.8,28.5c0.6,0.3,1.3,0.4,1.9,0.3c0.7,0,1.5,0,2.2,0 c0.1,0,0.2,0,0.3-0.1c0,0,0.1-0.1,0.1-0.2c0-0.2,0-0.5,0-0.7l0-0.2c0,0,0,0,0,0c0,0-0.1,0-0.1-0.1c0,0-0.1-0.1-0.1-0.1 c0,0,0-0.1,0-0.1c0-0.1,0-0.1,0-0.2l0-0.1c0,0-0.1-0.1-0.1-0.1c-0.1,0-0.2,0-0.3,0c-0.5,0-1.1,0-1.6,0l-0.2,0l0,0 c0,0,0-0.1-0.1-0.1c0-0.2,0-0.4,0-0.7c0-0.1,0.1-0.2,0.2-0.2c0.5,0,1,0,1.5,0c0.1,0,0.1,0,0.1-0.1c0.1-0.3,0.2-0.7,0.1-1 c0-0.1-0.1-0.1-0.1-0.2c0,0,0,0,0,0c0,0-0.1-0.1-0.1-0.1c0,0-0.1-0.1-0.1-0.2c0,0,0,0,0-0.1c0,0,0-0.1,0-0.1c0-0.1-0.1-0.1-0.2-0.1 c-0.3,0-0.6-0.1-0.9-0.1c-0.1,0-0.1,0-0.2-0.1c-0.1,0-0.1-0.1-0.1-0.2c0-0.1,0-0.3,0.1-0.4c0-0.1,0.1-0.2,0.2-0.2 c0.8,0,1.5,0,2.3,0.1c0.1,0,0.2-0.1,0.2-0.2c0-0.3,0-0.6,0-0.8c0-0.1,0-0.1-0.1-0.2c-0.1-0.1-0.2-0.2-0.3-0.4 c0-0.1-0.1-0.2-0.2-0.3c-0.1,0-0.2-0.1-0.3,0c-1.1-0.1-2.3-0.1-3.4-0.1c-0.1,0-0.3,0-0.3,0.1c-0.1,0.1-0.2,0.2-0.2,0.3l-0.2,5.3 c0,0.3,0,0.6,0,1C75.5,28.2,75.7,28.4,75.8,28.5z M76.1,22c0-0.1,0-0.2,0.1-0.3c0.1-0.1,0.1-0.1,0.2-0.1c1,0,2,0.1,3,0.1 c0.1,0,0.2,0,0.3,0c0,0,0.1,0,0.1,0.1c0,0.1,0,0.1,0,0.2c0,0.1,0,0.3-0.1,0.4c0,0.1-0.1,0.1-0.2,0.1c-0.8,0-1.6-0.1-2.4-0.1 c0,0-0.1,0-0.1,0c0,0,0,0.1,0,0.1c0,0.5,0,1.1-0.1,1.6c0,0.1,0.1,0.1,0.1,0.2c0.5,0,0.9,0.1,1.4,0.1c0.1,0,0.2,0,0.3,0 c0.1,0,0.1,0.1,0.1,0.2c0,0.1,0,0.2,0,0.3c0,0.1,0,0.1,0,0.2c0,0.1-0.1,0.1-0.2,0.1c-0.3,0-0.6,0-0.9,0c-0.2,0-0.4,0-0.6,0 c-0.1,0-0.1,0.1-0.1,0.2c0,0.6-0.1,1.1,0,1.7c0,0.1,0,0.1,0.1,0.1c0,0,0.1,0,0.2,0l2.2,0.1c0,0,0.1,0,0.1,0c0,0,0,0,0,0 c0.1,0,0.1,0.1,0.1,0.2c0,0.1,0,0.2,0,0.3c0,0.1-0.1,0.2-0.2,0.2c-1.1,0-2.1,0-3.2,0c-0.1,0-0.2,0-0.2-0.1c0-0.1,0-0.1,0-0.2 C76,25.9,76,23.9,76.1,22z"></path> <path fill-rule="evenodd" clip-rule="evenodd" fill="#B4B4B5" d="M62.5,28.4c0.4,0.3,0.9,0.4,1.4,0.3c0.1,0,0.1-0.1,0.1-0.2 c0-1.3,0-2.7,0-4c0-0.8-0.1-1.6-0.1-2.4c0-0.1-0.1-0.2-0.1-0.2c-0.1-0.1-0.2-0.2-0.3-0.3c0-0.1-0.1-0.1-0.1-0.2 c0,0-0.1-0.1-0.2-0.1c-0.3,0-0.6,0-0.9,0c-0.2,0-0.4,0.2-0.4,0.5c0.1,2.1,0.1,4.1,0.2,6.2C62.2,28.1,62.3,28.3,62.5,28.4z M62.6,21.6c0.1,0,0.3,0,0.4,0c0.1,0,0.2,0.1,0.2,0.2c0,0.6,0.1,1.1,0.1,1.7c0,1.2,0,2.5,0.1,3.7c0,0.2,0,0.4,0,0.6 c0,0.1-0.1,0.1-0.2,0.2c-0.1,0-0.2,0-0.4,0l-0.1,0c-0.1,0-0.1-0.1-0.1-0.2c0-0.1,0-0.3,0-0.4l-0.1-5.5 C62.4,21.7,62.5,21.6,62.6,21.6z"></path> </g> </svg> 