<?xml version="1.0" encoding="UTF-8"?> <svg xmlns="http://www.w3.org/2000/svg" xmlns:xlink="http://www.w3.org/1999/xlink" version="1.1" id="Layer_1" x="0px" y="0px" viewBox="0 0 136 68.2" style="enable-background:new 0 0 136 68.2;" xml:space="preserve"> <style type="text/css"> .st0{fill-rule:evenodd;clip-rule:evenodd;fill:#B5B5B5;} </style> <g> <path class="st0" d="M36.3,38.5v-0.3c0-3.8,3.7-9,7.3-9c1.3,0,2.2,0.9,2.2,2.2c0,2.9-2.1,5.6-5.2,7.6c0.2,0.3,0.4,0.4,0.8,0.4 c1.3,0,3.3-1.2,4.7-2.3l0-0.2c0.6-3.7,1.9-7.3,4.6-10.8c2.7-3.6,6-6,8.1-6c1.2,0,1.9,0.9,1.9,1.8c0,4-6.2,11.1-10.5,15.1l0,0.2 c0.2,0.7,0.7,1.1,1.4,1.1c1.5,0,2.9-0.8,4.7-2.2l0-0.2c0.7-3.8,2.2-7.4,5.3-11.5c3-4.1,6.6-6.9,8.5-6.9c1.2,0,1.8,0.8,1.8,1.7 C72,23,66.3,31.8,60.1,37v0.2c0.1,1.1,1,1.8,1.9,1.8c0.5,0,0.8-0.1,1.4-0.5c0.1,0.2,0.1,0.3,0.1,0.5c0,2.4-2.2,4.2-3.8,4.2 c-2,0-2.9-1.3-3.3-3.2l-0.2,0.1c-3.1,2-4.3,2.7-6.4,2.7c-1.6,0-2.7-1.1-3.3-2.6l-0.1,0.1c-2.6,1.8-3.9,2.5-6.1,2.5 c-1.7,0-2.4-0.6-3.3-1.7l-0.1,0c-0.6,0.2-1.1,0.3-1.6,0.3c-0.8,0-1.4-0.5-1.4-1.1C33.8,39.7,33.8,39.7,36.3,38.5L36.3,38.5z M60.6,32.6l0,0.1c3.5-3.4,6.8-8.1,6.8-9.5c0-0.3-0.1-0.4-0.3-0.4C65.5,22.9,61.8,28.9,60.6,32.6L60.6,32.6z M50.2,33.4l0,0.2 c3.8-3.5,6.4-8.1,6.4-8.7c0-0.3-0.2-0.4-0.3-0.4c-0.7,0-2.4,1.9-3.8,3.9C51.2,30.3,50.5,31.7,50.2,33.4L50.2,33.4z M39.8,36.6v0.2 c1.1-0.6,3-2.7,3-4c0-0.2-0.1-0.3-0.4-0.3C41.3,32.5,39.9,35,39.8,36.6L39.8,36.6z"></path> <path class="st0" d="M96,41.7l0.9-1.4l-0.1,0.1c-2,1.3-2.3,1.5-3.4,1.5c-1.7,0-2.9-1.1-2.9-2.8c0-4.4,6.1-9.4,10.6-9.4 c0.7,0,1.4,0.2,1.4,0.9c0,1.3-7.2,3-7.2,6.2c0,0.4,0.3,0.8,0.9,0.8c2.9,0,4-6,6.5-6c0.8,0,1.3,0.6,1.3,1.1c0,1-0.7,2.4-2.9,5.8 l0.1,0c6.4-4,10.9-10,15.1-10c1.1,0,1.8,0.6,1.8,1.8c0,2.4-3,0-3,3.7c0,0.5,0,1.3,0,1.8c0,3.7-3.2,8-6.9,8c-2.2,0-3.6-1.2-3.6-3.1 c0-0.3,0.1-0.8,0.3-1.6l-0.1,0.1c-1.4,1-4.2,3-6,3.8c-0.3,0.5-1.2,2.1-1.9,3.2c-0.7,1.1-1.5,2-2.3,2.9c-2,2.2-4.5,3.6-6.3,3.6 c-1.2,0-2.3-1.1-2.3-2.5c0-1.7,1.3-3.9,3.8-5.6C91.4,43.5,92.7,43.3,96,41.7L96,41.7z M111.9,33.5l-5.1,4.3c0.3,0,0.6-0.1,0.7-0.1 c1.6,0,0.7,1.8,1.8,1.8c1.5,0,2.5-2.9,2.6-5.7V33.5L111.9,33.5z M94,45.2l0.1-0.1c-2.1,1.1-4.7,2.4-4.7,3.8c0,0.3,0.2,0.4,0.4,0.4 C90.4,49.3,92.8,47.5,94,45.2L94,45.2z"></path> <path class="st0" d="M80.2,33.6h-0.1c-2,0-2.7-0.3-3.3-0.3c-1,0,0,2.2-2.8,6.3c-1.8,2.7-3.7,3.7-5.8,3.7c-2.5,0-3.8-1.7-3.8-3.9 c0-4.2,4.2-9.2,8.2-9.2c0.8,0,1.4,0.4,1.4,1.1c0,0.7-4.9,3.1-4.9,6.3c0,0.7,0.5,1.2,1.2,1.2c3.5,0,2.7-8,5.5-8 c1.1,0,2.5,0.8,4.3,0.8c2.7,0,5-1.6,6.5-1.6c0.9,0,1.4,0.3,1.4,0.9c0,1.3-6.3,3.3-6.3,6.6c0,0.4,0.3,0.7,0.9,0.7 c3.3,0,4-7.8,7.8-7.8c0.6,0,1.2,0.5,1.2,1.4c0,0.9-0.5,2.1-2.1,4.6c-1.4,2.3-1.7,2.5-2.8,4.4c1.3-0.4,2.4-2,3-2 c0.2,0,0.3,0.3,0.3,0.6c0,2-3.3,4.3-5.5,5.2c-2.7,3.7-6.1,8.2-10.2,8.2c-1.3,0-2.4-1-2.4-2.3c0-4.2,5.4-6.2,10.4-8l1.2-2l-0.1,0.1 c-1.2,0.8-2.8,1.4-3.8,1.4c-1.7,0-2.7-1.1-2.7-2.7C76.8,37.2,77.8,35.9,80.2,33.6L80.2,33.6z M80,45.7l0.1-0.1 c-1.5,0.5-4.6,2.1-4.6,3.3c0,0.3,0.2,0.5,0.5,0.5C76.7,49.3,78.4,47.9,80,45.7L80,45.7z"></path> <path class="st0" d="M30.2,31.7c0.3,0.6,0.4,0.9,0.4,1.4c0,1.9-2.5,5-2.5,9c0,2.4,1.6,4.4,4,4.4c1.4,0,2.7-0.9,2.8-1.8 c-1.2,0-1.8-0.9-1.8-2c0-2.5,1.7-6.8,1.7-9.3c0-0.9-0.2-1.4-0.6-2.2l-0.1-0.1c4.7-2.5,7.9-5.1,10.5-7.6c2.5-2.4,3.6-4,3.6-5.7 c0-1.5-0.8-2.3-2.1-2.3c-3.7,0-7.1,10.2-14.4,13.7L30.2,31.7L30.2,31.7z"></path> <path class="st0" d="M28.8,27.1c0,1.6-4.8,6.5-5.5,7.1c-4.2,3.9-5.3,5-5.3,7.1c0,1.3,0.9,2.2,2.2,2.2c2.8,0,4.4-2.4,8.8-10.5 c6.2-11.3,7.1-10.8,7.1-12.3c0-0.6-0.4-0.8-0.8-0.8c-1.6,0-2.9,1.7-9,4.9c-5.5,2.8-7.5,4.3-7.5,6.4c0,1.2,0.7,2.1,1.8,2.1 c3.3,0,5.8-6.4,8-6.4C28.8,26.8,28.8,26.9,28.8,27.1L28.8,27.1z"></path> <path class="st0" d="M105.9,26c0,1.5,1.3,1.4,1.3,2.2c0,0.7-0.8,1.2-0.8,1.7c0,0.3,0.3,0.4,0.6,0.4c2.1,0,4-3,4-4.7 c0-1.3-1.1-2.4-2.5-2.4C107.2,23.3,105.9,24.6,105.9,26L105.9,26z"></path> <path class="st0" d="M116.6,40.5c0.6,0,1.1,0.4,1.1,1c0,0.6-0.6,1-1.1,1c-0.6,0-1.1-0.4-1.1-1C115.5,40.9,116,40.5,116.6,40.5 L116.6,40.5z M116.6,40.7c-0.5,0-0.9,0.4-0.9,0.8c0,0.5,0.4,0.9,0.9,0.9c0.4,0,0.9-0.3,0.9-0.9C117.5,41.1,117,40.7,116.6,40.7 L116.6,40.7z M116.3,41.6v0.5h-0.1V41h0.5c0.2,0,0.3,0.1,0.3,0.3c0,0.2-0.1,0.2-0.1,0.3c0.1,0,0.1,0.1,0.1,0.2l0,0.2 c0,0.1,0,0.1,0.1,0.1v0h-0.2c0-0.1,0-0.2,0-0.3c0-0.1,0-0.2-0.2-0.2H116.3L116.3,41.6z M116.3,41.1v0.4h0.3c0.1,0,0.2,0,0.2-0.2 c0-0.2-0.1-0.2-0.2-0.2H116.3L116.3,41.1z"></path> </g> </svg> 