<?xml version="1.0" encoding="UTF-8"?> <svg xmlns="http://www.w3.org/2000/svg" xmlns:xlink="http://www.w3.org/1999/xlink" version="1.1" id="Layer_1" x="0px" y="0px" viewBox="221 350 170 92" xml:space="preserve"> <path fill="#B5B5B5" d="M267.5,385.7h14.7v4.3h-9.3v3.7h8.6v4.3h-8.6v4.1h9.3v4.3h-14.7 M300.5,399.6c0,1.7-0.9,2.6-3.5,2.6 c-2.6,0-3.5-0.9-3.5-2.6v-13.9h-5.3v14.5c0,3.3,2,6.5,8.8,6.5c6.9,0,8.8-3.2,8.8-6.5v-14.5h-5.3V399.6L300.5,399.6z M336.7,406.3 h5.3v-20.6h-5.3V406.3z M360.2,396.1v5.8c-1,0.1-2,0.3-3.2,0.3c-2.7,0-3.3-1-3.3-2.7v-7.1c0-1.9,0.9-2.5,3.2-2.5 c2.2,0,4.6,0.2,7.1,0.6l0.5-4.4c-2.6-0.5-5.1-0.7-7.5-0.7c-6.1,0-8.6,2.1-8.6,6.4v8.6c0,4.2,2.3,6.4,8.4,6.4c2.7,0,5.7-0.4,8.2-1.1 v-9.6H360.2z M246.2,392.7c-1.8,0-3.3,1.5-3.3,3.3c0,1.8,1.5,3.3,3.2,3.3s3.3-1.5,3.3-3.3C249.4,394.2,248,392.7,246.2,392.7z M246.2,385.3c-1.8,0-3.3,1.5-3.3,3.2s1.5,3.3,3.3,3.3s3.2-1.5,3.2-3.2S248,385.3,246.2,385.3z M246.2,400.2c-1.8,0-3.2,1.5-3.2,3.2 s1.5,3.2,3.2,3.2s3.2-1.4,3.2-3.2S248,400.2,246.2,400.2z M262.4,385.7h-6l-6,10.3l6,10.3h6l-6.2-10.3L262.4,385.7z M326.9,399.4 l4.2,6.9h-6l-3.3-5.9h-4.1v5.9h-5.3v-20.6h9.8c5.6,0,7.4,2.2,7.4,5.9v2.9C329.6,396.9,328.9,398.2,326.9,399.4z M324.4,391.8 c0-1.4-0.6-1.9-2.2-1.9h-4.4v6.3h4.3c1.7,0,2.4-0.6,2.4-2V391.8z M367.7,385.4c-0.7,0-1.4,0.6-1.4,1.4c0,0.8,0.6,1.4,1.4,1.4 c0.8,0,1.4-0.6,1.4-1.4C369.1,386,368.5,385.4,367.7,385.4z M367.7,387.9c-0.6,0-1.2-0.5-1.2-1.2c0-0.6,0.5-1.2,1.2-1.2 c0.7,0,1.2,0.5,1.2,1.2C368.9,387.4,368.4,387.9,367.7,387.9z M367.8,386.9h-0.3v0.5h-0.2V386h0.5c0.3,0,0.4,0.1,0.4,0.3v0.2 c0,0.1,0,0.2-0.2,0.3l0.3,0.5h-0.2L367.8,386.9z M367.8,386.2h-0.3v0.5h0.3c0.1,0,0.2-0.1,0.2-0.2v-0.2 C368,386.2,367.9,386.2,367.8,386.2z"></path> </svg> 