<?xml version="1.0" encoding="UTF-8"?> <svg xmlns="http://www.w3.org/2000/svg" xmlns:xlink="http://www.w3.org/1999/xlink" version="1.1" id="Layer_1" x="0px" y="0px" viewBox="0 0 136 68" xml:space="preserve"> <g> <path fill-rule="evenodd" clip-rule="evenodd" fill="#B6B6B6" d="M43.7,32l0.6,3.5l0,0l1.5-3.5c0.2-0.3,0.3-0.9,0.1-1.2 c-0.1-0.2-0.2-0.3-0.3-0.5c-0.4-0.3-0.9-0.4-1.4-0.1c-0.4,0.2-0.6,0.6-0.6,1.1l0,0l0.5,0c0,0,0.1,0,0.1,0.1 C44.1,31.5,43.7,31.6,43.7,32z"></path> <path fill-rule="evenodd" clip-rule="evenodd" fill="#B6B6B6" d="M42.5,30.2c-0.4-0.2-1-0.1-1.3,0.2c-0.3,0.3-0.5,0.8-0.3,1.3 l1.6,3.5l0.2,0.3c0,0,0,0,0,0l0.6-4c0-0.3,0-0.6-0.2-0.8C43,30.4,42.8,30.3,42.5,30.2z"></path> <path fill-rule="evenodd" clip-rule="evenodd" fill="#B6B6B6" d="M47.4,31.7c-0.5-0.1-1,0.2-1.3,0.6l-1.7,3.9l0,0.1h0l3.3-2.2 c0.2-0.2,0.4-0.3,0.6-0.5c0.2-0.3,0.3-0.9,0.1-1.2C48.1,32,47.7,31.8,47.4,31.7z"></path> <path fill-rule="evenodd" clip-rule="evenodd" fill="#B6B6B6" d="M42.6,36.4L42.6,36.4l-1.8-4c-0.3-0.5-0.9-0.8-1.5-0.6 c-0.3,0.1-0.6,0.5-0.7,0.8c-0.1,0.5,0,0.9,0.4,1.3L42.6,36.4z"></path> <path fill-rule="evenodd" clip-rule="evenodd" fill="#B6B6B6" d="M49.1,36.4c0.3-0.3,0.3-0.8,0.1-1.2c-0.1-0.3-0.4-0.5-0.6-0.6 c-0.3-0.2-0.8-0.1-1.1,0.1l-3.2,2.3l3.9,0C48.5,36.9,48.8,36.7,49.1,36.4z"></path> <path fill-rule="evenodd" clip-rule="evenodd" fill="#B6B6B6" d="M38.4,34.6c-0.3,0.1-0.5,0.4-0.6,0.6c-0.2,0.4-0.1,0.9,0.1,1.2 c0.3,0.3,0.6,0.5,1,0.5l3.9,0l-3.2-2.3C39.2,34.4,38.7,34.4,38.4,34.6z"></path> <path fill-rule="evenodd" clip-rule="evenodd" fill="#B6B6B6" d="M14.4,30.8c0.2,0,0.3,0.1,0.3,0.2v3.4c-0.9-1-3.1-3.3-3.1-3.5 c0-0.1,0.1-0.2,0.4-0.2v-0.2H8.9v0.2c0.3,0,0.4,0.1,0.4,0.2v6c0,0.1,0,0.2-0.4,0.2v0.2h2.4v-0.2c-0.3,0-0.4-0.1-0.4-0.2v-4 c3.4,3.8,3.7,3.9,3.7,4.1c0,0.1-0.1,0.1-0.3,0.1v0.2h2.4v-0.2c-0.3,0-0.4-0.1-0.4-0.2v-6c0-0.1,0-0.2,0.4-0.2v-0.2h-2.3V30.8z"></path> <path fill-rule="evenodd" clip-rule="evenodd" fill="#B6B6B6" d="M24.2,33.8L24.2,33.8c0.7-0.2,1.2-0.7,1.2-1.4 c0-1.3-1-1.8-2.4-1.8h-4.9v0.2c0.3,0,0.4,0.1,0.4,0.2v6c0,0.1,0,0.2-0.4,0.2v0.2h4.9c1.8,0,2.6-0.9,2.6-1.9 C25.7,34.5,25,34.1,24.2,33.8z M20.4,32h1.7c1.1,0,1.4,0.1,1.4,0.6c0,0.5-0.3,0.6-1.4,0.6h-1.7V32z M22.6,36h-2.2v-1.5h2.2 c0.9,0,1.3,0.2,1.3,0.8C23.8,35.8,23.5,36,22.6,36z"></path> <path fill-rule="evenodd" clip-rule="evenodd" fill="#B6B6B6" d="M32.9,34.9C33,34.9,33,35,33,35c0,0.4-1.7,0.7-2.2,0.7 c-1,0-2.4-0.4-2.4-1.8c0-1.3,1.3-1.8,2.4-1.8c1.1,0,2.1,0.3,2.1,0.6c0,0.1,0,0.1,0,0.2l0.1,0.1l1.2-2.1l-0.1,0 c-0.1,0.1-0.1,0.1-0.2,0.1c-0.1,0-0.4-0.1-0.9-0.2c-0.5-0.1-1.2-0.3-2.3-0.3c-2.1,0-4.2,1.2-4.2,3.4c0,2.3,2.2,3.4,4.2,3.4 c1.9,0,3.1-0.7,3.4-0.7c0.1,0,0.1,0,0.2,0.1l0.2-0.1l-1.3-2L32.9,34.9z"></path> <path fill-rule="evenodd" clip-rule="evenodd" fill="#B6B6B6" d="M55,37.5c2,0,3.5-0.7,3.5-3V31c0-0.1,0-0.2,0.4-0.2v-0.2h-2.6v0.2 c0.3,0,0.4,0.1,0.4,0.2v3.4c0,1-0.6,1.4-1.6,1.4c-1,0-1.6-0.4-1.6-1.4V31c0-0.1,0-0.2,0.4-0.2v-0.2h-2.6v0.2c0.3,0,0.4,0.1,0.4,0.2 v3.4C51.4,36.7,53,37.5,55,37.5z"></path> <path fill-rule="evenodd" clip-rule="evenodd" fill="#B6B6B6" d="M68.9,30.8v-0.2h-2.3v0.2c0.2,0,0.3,0.1,0.3,0.2v3.4 c-0.9-1-3.1-3.3-3.1-3.5c0-0.1,0.1-0.2,0.4-0.2v-0.2H61v0.2c0.3,0,0.4,0.1,0.4,0.2v6c0,0.1,0,0.2-0.4,0.2v0.2h2.4v-0.2 c-0.3,0-0.4-0.1-0.4-0.2v-4c3.4,3.8,3.7,3.9,3.7,4.1c0,0.1-0.1,0.1-0.3,0.1v0.2h2.4v-0.2c-0.3,0-0.4-0.1-0.4-0.2v-6 C68.6,30.9,68.6,30.8,68.9,30.8z"></path> <path fill-rule="evenodd" clip-rule="evenodd" fill="#B6B6B6" d="M73.7,30.8v-0.2h-2.6v0.2c0.3,0,0.4,0.1,0.4,0.2v6 c0,0.1,0,0.2-0.4,0.2v0.2h2.6v-0.2c-0.3,0-0.4-0.1-0.4-0.2v-6C73.4,30.9,73.4,30.8,73.7,30.8z"></path> <path fill-rule="evenodd" clip-rule="evenodd" fill="#B6B6B6" d="M83.4,30.8v-0.2h-2.2v0.2c0.2,0,0.2,0.1,0.2,0.1 c0,0.2-0.2,0.5-1.7,3.9c-1.6-3.5-1.8-3.8-1.8-3.9c0-0.1,0.1-0.1,0.3-0.2v-0.2h-2.6v0.2c0.1,0,0.2,0.1,0.3,0.4 c0.3,0.7,2.6,5.8,2.6,6c0,0.1,0,0.1-0.2,0.1v0.2h2.6v-0.2c-0.1,0-0.2-0.1-0.2-0.1c0-0.2,2.4-5.7,2.6-6.1 C83.2,30.8,83.3,30.8,83.4,30.8z"></path> <path fill-rule="evenodd" clip-rule="evenodd" fill="#B6B6B6" d="M91.1,30.6h-6.4v0.2c0.3,0,0.4,0.1,0.4,0.2v6c0,0.1,0,0.2-0.4,0.2 v0.2h6.4c0.1,0,0.2,0.1,0.2,0.3h0.2v-2.2h-0.2c0,0.3-0.1,0.4-0.2,0.4H87v-1.2h2.4c0.3,0,0.3,0.1,0.4,0.3h0.2v-2h-0.2 c0,0.2-0.1,0.3-0.4,0.3H87v-1.1h4.1c0.1,0,0.2,0.1,0.2,0.4h0.2v-2.2h-0.2C91.3,30.6,91.3,30.6,91.1,30.6z"></path> <path fill-rule="evenodd" clip-rule="evenodd" fill="#B6B6B6" d="M100.6,37l-1.5-2.1c1.1-0.3,1.8-0.9,1.8-2.1 c0-1.5-0.8-2.1-2.7-2.1h-4.7v0.2c0.3,0,0.4,0.1,0.4,0.2v6c0,0.1,0,0.2-0.4,0.2v0.2h2.6v-0.2c-0.3,0-0.4-0.1-0.4-0.2v-2.2h1.3 c0.2,0.3,1.5,2,1.5,2.2c0,0.2-0.1,0.2-0.3,0.2v0.2h2.7v-0.2C100.8,37.2,100.7,37.2,100.6,37z M98,33.5h-2.2v-1.4H98 c0.8,0,1,0.3,1,0.7C99,33.2,98.7,33.5,98,33.5z"></path> <path fill-rule="evenodd" clip-rule="evenodd" fill="#B6B6B6" d="M104.4,32.4c0-0.3,0.4-0.6,1.5-0.6c1.2,0,2.7,0.4,2.7,0.7v0.1 l0.2,0.1l0.9-1.8l-0.1-0.1c-0.1,0.1-0.2,0.2-0.3,0.2c-0.3,0-1.6-0.5-3.4-0.5c-1.9,0-3.1,0.9-3.1,2.2c0,2.5,5.3,1.4,5.3,2.4 c0,0.6-0.6,0.9-1.9,0.9c-1.3,0-2.7-0.6-2.7-0.9c0-0.1,0-0.2,0-0.3l-0.1-0.1l-0.9,2.3l0.2,0c0.1-0.1,0.2-0.2,0.3-0.2 c0.3,0,1.2,0.6,3.4,0.6c2.8,0,3.6-1.2,3.6-2.3C109.7,32.2,104.4,33.6,104.4,32.4z"></path> <path fill-rule="evenodd" clip-rule="evenodd" fill="#B6B6B6" d="M118.2,36.8c-0.8-1.9-2.4-5.8-2.4-5.9c0-0.1,0.1-0.2,0.2-0.2v-0.2 h-3.3v0.2c0.1,0,0.3,0,0.3,0.1c0,0.1-2.2,5.7-2.3,6c-0.1,0.2-0.2,0.3-0.3,0.3v0.2h2.3v-0.2c-0.2,0-0.2-0.1-0.2-0.1 c0-0.1,0.1-0.2,0.4-1.2h3c0.1,0.2,0.4,1.1,0.4,1.2c0,0.1-0.1,0.1-0.2,0.2v0.2h2.5v-0.2C118.4,37.2,118.3,37.1,118.2,36.8z M113.1,34.9l1.1-3l1.2,3H113.1z"></path> <path fill-rule="evenodd" clip-rule="evenodd" fill="#B6B6B6" d="M127,35.5c0,0.3-0.1,0.4-0.2,0.4h-4.4V31c0-0.1,0-0.2,0.4-0.2 v-0.2h-2.6v0.2c0.3,0,0.4,0.1,0.4,0.2v6c0,0.1,0,0.2-0.4,0.2v0.2h6.7c0.1,0,0.2,0.1,0.2,0.3h0.2v-2.3H127z"></path> <path fill-rule="evenodd" clip-rule="evenodd" fill="#B6B6B6" d="M46.3,27.5c3.1-8.5,11.5-14.7,21.4-14.7c9.9,0,18.3,6.1,21.4,14.6 c0.2,0.5,0.3,0.6,0.2,0C86.8,18.2,78,11,67.7,11c-10.4,0-19.2,7-21.6,16.5C45.9,28.2,46,28.3,46.3,27.5z"></path> <path fill-rule="evenodd" clip-rule="evenodd" fill="#B6B6B6" d="M89.1,40.5C86,49,77.6,55.1,67.7,55.1c-9.9,0-18.3-6.1-21.4-14.7 c-0.3-0.7-0.4-0.7-0.2,0C48.5,50,57.3,57,67.7,57c10.3,0,19.1-7.2,21.6-16.5C89.5,39.9,89.3,40,89.1,40.5z"></path> </g> </svg> 