<?xml version="1.0" encoding="UTF-8"?> <svg xmlns="http://www.w3.org/2000/svg" xmlns:xlink="http://www.w3.org/1999/xlink" version="1.1" id="Layer_1" x="0px" y="0px" viewBox="0 0 136 68.2" xml:space="preserve"> <g> <polygon fill="#B7B7B7" points="72.3,14 69.4,14 69.4,6.3 66.5,6.3 66.5,16 71.8,16 "></polygon> <polygon fill="#B7B7B7" points="53.1,12.2 56.2,12.2 56.2,16 59.2,16 59.2,6.3 56.2,6.3 56.2,10.2 53.1,10.2 53.1,6.3 50.2,6.3 50.2,16 53.1,16 "></polygon> <rect x="61.3" y="6.3" fill="#B7B7B7" width="3" height="9.7"></rect> <path fill="#B7B7B7" d="M81.4,13.7h1.1c2.7,0,4.5-1.4,4.5-3.9c0-2.7-1.9-3.7-4.9-3.7c-1.2,0-2.6,0.1-3.6,0.2V16h3V13.7z M81.4,7.9 c0.2,0,0.3,0,0.5,0c1.5,0,2.1,0.7,2.1,1.9c0,1.3-0.6,2.1-2.1,2.1h-0.5V7.9z"></path> <path fill="#B7B7B7" d="M90.9,14.2c-1,0-2.5-0.3-3.4-0.8l0.3,2.2c0.9,0.3,2.1,0.5,3.1,0.5c2.5,0,4.5-0.8,4.5-3.2 c0-3.2-4.6-2.6-4.6-4.2c0-0.5,0.5-0.8,1.4-0.8c0.9,0,1.9,0.2,2.6,0.5l-0.2-2.1c-0.8-0.2-1.5-0.3-2.7-0.3c-2.4,0-4,0.9-4,2.9 c0,3.4,4.6,2.7,4.6,4.3C92.5,13.9,92,14.2,90.9,14.2z"></path> <rect x="73.3" y="6.3" fill="#B7B7B7" width="3" height="9.7"></rect> <path fill="#B7B7B7" d="M43.5,13.7h1.1c2.7,0,4.5-1.4,4.5-3.9c0-2.7-1.9-3.7-4.9-3.7c-1.2,0-2.6,0.1-3.6,0.2V16h3V13.7z M43.5,7.9 c0.2,0,0.3,0,0.5,0c1.5,0,2.1,0.7,2.1,1.9c0,1.3-0.6,2.1-2.1,2.1h-0.5V7.9z"></path> <path fill="#B7B7B7" d="M52.2,48.6c-0.5,0-0.8,0.2-1.1,0.5c-0.3,0.3-0.4,0.8-0.4,1.4c0,0.5,0.1,1,0.4,1.3c0.3,0.3,0.6,0.5,1,0.5 c0.4,0,0.8-0.2,1-0.5c0.3-0.3,0.4-0.7,0.4-1.1V50c0-0.4-0.1-0.7-0.4-1C52.9,48.8,52.5,48.6,52.2,48.6z"></path> <path fill="#B7B7B7" d="M84.7,48.6c-0.4,0-0.8,0.2-1.1,0.5c-0.3,0.3-0.4,0.7-0.4,1.1v0.7c0,0.4,0.1,0.7,0.4,1 c0.3,0.3,0.6,0.4,1,0.4c0.5,0,0.8-0.2,1.1-0.5c0.3-0.3,0.4-0.8,0.4-1.5c0-0.5-0.1-0.9-0.4-1.2C85.5,48.8,85.2,48.6,84.7,48.6z"></path> <path fill="#B7B7B7" d="M78.5,50.8c-0.2,0.1-0.3,0.3-0.3,0.7c0,0.2,0.1,0.4,0.2,0.6c0.2,0.1,0.4,0.2,0.7,0.2c0.4,0,0.7-0.1,0.9-0.4 c0.2-0.3,0.4-0.6,0.4-1v-0.5l-1.1,0.2C78.9,50.6,78.6,50.7,78.5,50.8z"></path> <path fill="#B7B7B7" d="M63,50.8c-0.2,0.1-0.3,0.3-0.3,0.7c0,0.2,0.1,0.4,0.2,0.6c0.2,0.1,0.4,0.2,0.7,0.2c0.4,0,0.7-0.1,0.9-0.4 c0.2-0.3,0.4-0.6,0.4-1v-0.5l-1.1,0.2C63.5,50.6,63.2,50.7,63,50.8z"></path> <path fill="#B7B7B7" d="M86.3,34C62.5,34,31,34,31,34v28.1h74v-40C105,22.1,104.4,34,86.3,34z M43.7,52.8h-0.8v-4.4 c0-0.3,0-0.8,0.1-1.3h0c-0.1,0.3-0.1,0.5-0.2,0.6l-2.2,5h-0.4l-2.2-5c-0.1-0.1-0.1-0.4-0.2-0.7h0c0,0.3,0,0.7,0,1.3v4.4H37v-6.6h1 l2,4.6c0.2,0.4,0.3,0.6,0.3,0.8h0c0.1-0.4,0.2-0.6,0.3-0.8l2.1-4.6h1V52.8z M49.1,50.6h-3.3c0,0.5,0.2,0.9,0.4,1.2 c0.3,0.3,0.6,0.4,1.1,0.4c0.5,0,1-0.2,1.5-0.5v0.7c-0.4,0.3-1,0.4-1.6,0.4c-0.7,0-1.2-0.2-1.6-0.6c-0.4-0.4-0.6-1-0.6-1.8 c0-0.7,0.2-1.3,0.6-1.8c0.4-0.5,0.9-0.7,1.5-0.7c0.6,0,1.1,0.2,1.4,0.6c0.3,0.4,0.5,0.9,0.5,1.7V50.6z M54.2,52.8h-0.8V52h0 c-0.3,0.6-0.9,0.9-1.6,0.9c-0.6,0-1.1-0.2-1.4-0.6c-0.4-0.4-0.5-1-0.5-1.7c0-0.8,0.2-1.4,0.6-1.9c0.4-0.5,0.9-0.7,1.6-0.7 c0.6,0,1.1,0.3,1.4,0.8h0v-2.9h0.8V52.8z M56.5,52.8h-0.8v-4.7h0.8V52.8z M56.5,46.8c-0.1,0.1-0.2,0.1-0.4,0.1 c-0.1,0-0.2,0-0.3-0.1c-0.1-0.1-0.1-0.2-0.1-0.3c0-0.1,0-0.3,0.1-0.4c0.1-0.1,0.2-0.1,0.3-0.1c0.1,0,0.3,0,0.4,0.1 c0.1,0.1,0.1,0.2,0.1,0.4C56.6,46.6,56.6,46.7,56.5,46.8z M61.2,49c-0.3-0.2-0.7-0.4-1.1-0.4c-0.5,0-0.9,0.2-1.2,0.5 c-0.3,0.3-0.5,0.8-0.5,1.4c0,0.5,0.1,1,0.4,1.3c0.3,0.3,0.7,0.5,1.2,0.5c0.4,0,0.8-0.1,1.2-0.4v0.7c-0.4,0.2-0.8,0.3-1.3,0.3 c-0.7,0-1.2-0.2-1.6-0.7c-0.4-0.4-0.6-1-0.6-1.7c0-0.8,0.2-1.4,0.7-1.9c0.4-0.5,1-0.7,1.8-0.7c0.4,0,0.8,0.1,1.1,0.2V49z M65.7,52.8H65v-0.7h0c-0.3,0.6-0.8,0.8-1.4,0.8c-0.5,0-0.8-0.1-1.1-0.4S62,52,62,51.5c0-0.9,0.5-1.4,1.5-1.5l1.4-0.2 c0-0.8-0.3-1.2-1-1.2c-0.6,0-1.1,0.2-1.5,0.6v-0.8c0.5-0.3,1-0.4,1.6-0.4c1.1,0,1.7,0.6,1.7,1.7V52.8z M67.9,52.8h-0.8v-6.9h0.8 V52.8z M76.5,47.2c-0.5-0.3-1-0.4-1.6-0.4c-0.8,0-1.4,0.3-1.8,0.8c-0.5,0.5-0.7,1.2-0.7,2c0,0.8,0.2,1.4,0.7,1.9 c0.4,0.5,1,0.7,1.7,0.7c0.7,0,1.2-0.1,1.7-0.4v0.7c-0.5,0.3-1.1,0.4-1.8,0.4c-0.9,0-1.7-0.3-2.2-0.9c-0.6-0.6-0.8-1.4-0.8-2.4 c0-1,0.3-1.9,0.9-2.5c0.6-0.6,1.4-1,2.4-1c0.6,0,1.1,0.1,1.5,0.3V47.2z M81.1,52.8h-0.8v-0.7h0c-0.3,0.6-0.8,0.8-1.4,0.8 c-0.5,0-0.8-0.1-1.1-0.4s-0.4-0.6-0.4-1c0-0.9,0.5-1.4,1.5-1.5l1.4-0.2c0-0.8-0.3-1.2-1-1.2c-0.6,0-1.1,0.2-1.5,0.6v-0.8 c0.5-0.3,1-0.4,1.6-0.4c1.1,0,1.7,0.6,1.7,1.7V52.8z M86.3,52.2c-0.4,0.5-0.9,0.7-1.6,0.7c-0.6,0-1.1-0.3-1.4-0.8h0v2.8h-0.8v-6.8 h0.8v0.8h0c0.4-0.6,0.9-0.9,1.6-0.9c0.6,0,1.1,0.2,1.4,0.6c0.3,0.4,0.5,1,0.5,1.7C86.9,51.1,86.7,51.7,86.3,52.2z M88.8,52.8h-0.8 v-4.7h0.8V52.8z M88.8,46.8c-0.1,0.1-0.2,0.1-0.4,0.1c-0.1,0-0.2,0-0.3-0.1C88,46.7,88,46.6,88,46.4c0-0.1,0-0.3,0.1-0.4 c0.1-0.1,0.2-0.1,0.3-0.1c0.1,0,0.3,0,0.4,0.1c0.1,0.1,0.1,0.2,0.1,0.4C88.9,46.6,88.9,46.7,88.8,46.8z M92.5,48.7h-1.2v2.6 c0,0.3,0.1,0.5,0.2,0.7c0.1,0.1,0.3,0.2,0.5,0.2c0.2,0,0.4-0.1,0.5-0.2v0.6c-0.2,0.1-0.4,0.1-0.7,0.1c-0.8,0-1.2-0.5-1.2-1.4v-2.8 h-0.8v-0.6h0.8V47l0.8-0.2v1.4h1.2V48.7z M96.9,52.8h-0.8v-0.7h0c-0.3,0.6-0.8,0.8-1.4,0.8c-0.5,0-0.8-0.1-1.1-0.4s-0.4-0.6-0.4-1 c0-0.9,0.5-1.4,1.5-1.5l1.4-0.2c0-0.8-0.3-1.2-1-1.2c-0.6,0-1.1,0.2-1.5,0.6v-0.8c0.5-0.3,1-0.4,1.6-0.4c1.1,0,1.7,0.6,1.7,1.7 V52.8z M99,52.8h-0.8v-6.9H99V52.8z"></path> <path fill="#B7B7B7" d="M47.2,48.6c-0.4,0-0.7,0.1-0.9,0.4c-0.2,0.3-0.4,0.6-0.5,1h2.5c0-0.4-0.1-0.8-0.3-1 C47.8,48.7,47.5,48.6,47.2,48.6z"></path> <path fill="#B7B7B7" d="M94.2,50.8c-0.2,0.1-0.3,0.3-0.3,0.7c0,0.2,0.1,0.4,0.2,0.6c0.2,0.1,0.4,0.2,0.7,0.2c0.4,0,0.7-0.1,0.9-0.4 c0.2-0.3,0.4-0.6,0.4-1v-0.5L95,50.6C94.6,50.6,94.4,50.7,94.2,50.8z"></path> </g> </svg> 