<?xml version="1.0" encoding="UTF-8"?> <svg xmlns="http://www.w3.org/2000/svg" id="Layer_1" data-name="Layer 1" viewBox="0 0 136 68.2"><defs><style>.cls-1,.cls-2,.cls-4{isolation:isolate;}.cls-2,.cls-3,.cls-4{font-size:13.92px;}.cls-2,.cls-3,.cls-4,.cls-5{fill:#b7b7b7;}.cls-2,.cls-3{font-family:Montserrat-Bold, Montserrat;font-weight:700;}.cls-4{font-family:Helvetica-Light, Helvetica;font-weight:300;}.cls-5{fill-rule:evenodd;}</style></defs><title>pointemedia</title><g id="Page-1"><g id="Home-ideia"><g id="logo"><g id="Pointe-Media" class="cls-1"><text class="cls-2" transform="translate(36.97 38.28)">POINTE</text><text class="cls-3" transform="translate(92.66 38.28)"> </text><text class="cls-4" transform="translate(92.66 38.28)">MEDIA</text></g><path id="Fill-1" class="cls-5" d="M25.76,36.77l3.82-2.2V28L21.17,23.1a3.5,3.5,0,0,0-3.54,0l-2,1.18,10.18,5.88ZM10.43,31.94h1.36V30.57H10.43Zm8.37-5.11L13,30.16V41.91l-2-1.18a3.57,3.57,0,0,1-1.77-3.07V36.58H10.8V33.43H9.22V28L15,24.62Zm3.51,5.32L19.4,30.46l-2.91,1.69v3.36l2.91,1.68,2.91-1.68ZM6.52,34.7V31.81H2.8v3.72H5.73v1.28h2.1V34.7ZM4.76,30.11H7.62V27.25H4.76ZM1.52,37.92H2.89V36.55H1.52ZM0,33.17H1.36V31.81H0Zm4.67,6.71h2.1v-2.1H4.67Zm-4-9H2.79v-2.1H.68Zm28.9,4.44v2.37a3.54,3.54,0,0,1-1.77,3.06L19.4,45.58l-2.9-1.67V39.5l2.9,1.67Z"></path></g></g></g></svg> 