<?xml version="1.0" encoding="UTF-8"?> <svg xmlns="http://www.w3.org/2000/svg" xmlns:xlink="http://www.w3.org/1999/xlink" version="1.1" id="Layer_1" x="0px" y="0px" viewBox="0 0 136 68.2" xml:space="preserve"> <g> <path fill="#B4B4B5" d="M32,42.3h-2.4L24,26.8h2.2l4.5,13.3h0.1l4.8-13.3h2.1L32,42.3z"></path> <path fill="#B4B4B5" d="M53.4,19.6h2v22.7h-2V19.6z"></path> <path fill="#B4B4B5" d="M58.1,40c1.2,0.6,2.7,1,4.3,1c1.9,0,3.6-1,3.6-2.8c0-3.7-7.9-3.1-7.9-7.6c0-3.1,2.6-4.2,5.4-4.2 c0.9,0,2.6,0.2,4.1,0.7l-0.2,1.7c-1.1-0.5-2.5-0.7-3.6-0.7c-2.1,0-3.5,0.6-3.5,2.6c0,2.9,8.1,2.5,8.1,7.6c0,3.3-3.3,4.4-5.7,4.4 c-1.6,0-3.2-0.2-4.6-0.7L58.1,40z"></path> <path fill="#B4B4B5" d="M70.7,26.8h2l-0.1,2.8h0.1c0.5-0.8,1.8-3.2,5.3-3.2c4.8,0,6.8,3.4,6.8,8.1c0,4.6-2.3,8.1-6.8,8.1 c-2.6,0-4.1-1-5.1-3h-0.1v9h-2V26.8L70.7,26.8z M77.6,28.1c-3.6,0-4.9,3.6-4.9,6.4c0,2.8,1.3,6.4,4.9,6.4c3.9,0,4.9-3.5,4.9-6.4 S81.4,28.1,77.6,28.1z"></path> <path fill="#B4B4B5" d="M101.9,30.3c0-1.7,0-2.3-0.1-3.4h2v3h0.1c0.7-1.7,2.1-3.3,4.2-3.3c0.5,0,1.1,0.1,1.4,0.2v2 c-0.4-0.1-1-0.2-1.5-0.2c-3.2,0-4.1,3.4-4.1,6.2v7.6h-2L101.9,30.3L101.9,30.3z"></path> <path fill="#B4B4B5" d="M48.3,39.8L48.3,39.8c-1,1.8-3.3,2.8-5.3,2.8c-4.7,0-5.4-3-5.4-4.4c0-5.2,5.9-5.4,10.1-5.4h0.4v-0.8 c0-2.6-1-4-3.7-4c-1.7,0-3.3,0.4-4.8,1.3v-1.8c1.3-0.6,3.4-1.1,4.8-1.1c4.1,0,5.8,1.7,5.8,5.7V39c0,1.2,0,2.2,0.2,3.2h-2V39.8z M48.1,35.6l0-2.6c-0.6,1.1-1.6,1.5-2.3,1.6l-0.1,0c-3,0.2-6,0.8-6,3.7c0,2,1.5,2.8,3.4,2.8C47.8,41,48.1,37.4,48.1,35.6L48.1,35.6 z"></path> <path fill="#B4B4B5" d="M96.8,39.8L96.8,39.8c-1,1.8-3.3,2.8-5.3,2.8c-4.7,0-5.4-3-5.4-4.4c0-5.2,5.9-5.4,10.1-5.4h0.4v-0.8 c0-2.6-1-4-3.7-4c-1.7,0-3.3,0.4-4.8,1.3v-1.8c1.3-0.6,3.4-1.1,4.8-1.1c4.1,0,5.8,1.7,5.8,5.7V39c0,1.2,0,2.2,0.2,3.2h-2L96.8,39.8 L96.8,39.8z M96.6,35.6l0-2.6C96,34,95,34.4,94.4,34.5l-0.1,0c-3,0.2-6,0.8-6,3.7c0,2,1.5,2.8,3.4,2.8C96.3,41,96.6,37.4,96.6,35.6 L96.6,35.6z"></path> <path fill="#B4B4B5" d="M110.2,27.3c0-0.5,0.4-0.9,0.9-0.9c0.5,0,0.9,0.4,0.9,0.9c0,0.5-0.4,0.9-0.9,0.9 C110.6,28.2,110.2,27.8,110.2,27.3z M111.8,27.3c0-0.4-0.3-0.7-0.7-0.7c-0.4,0-0.7,0.3-0.7,0.7c0,0.4,0.3,0.7,0.7,0.7 C111.5,28,111.8,27.7,111.8,27.3z M110.8,26.8h0.4c0.2,0,0.4,0.1,0.4,0.3c0,0.2-0.1,0.3-0.3,0.3l0.3,0.4h-0.2l-0.3-0.4H111v0.4 h-0.2L110.8,26.8L110.8,26.8z M111,27.2h0.2c0.1,0,0.2,0,0.2-0.1c0-0.1-0.1-0.1-0.2-0.1h-0.2L111,27.2L111,27.2z"></path> </g> </svg> 