<?xml version="1.0" encoding="UTF-8"?> <svg xmlns="http://www.w3.org/2000/svg" xmlns:xlink="http://www.w3.org/1999/xlink" version="1.1" id="Camada_1" x="0px" y="0px" viewBox="0 0 160 80" style="enable-background:new 0 0 160 80;" xml:space="preserve"> <style type="text/css"> .st0{display:none;} .st1{display:inline;} .st2{fill:#B5B5B5;} .st3{fill:none;} .st4{display:inline;fill:#B5B5B5;} .st5{display:inline;opacity:0.29;} .st6{fill:url(#SVGID_1_);} </style> <g id="Camada_7"> </g> <g id="DURACELL" class="st0"> <g class="st1"> <polygon class="st2" points="103.3,41 107.8,41 107.8,37.9 103.3,37.9 103.3,35.7 109.1,35.7 109.1,32.3 98.7,32.3 98.7,47.5 109,47.5 110,43.8 103.3,43.8 "></polygon> <path class="st2" d="M51.5,41.8c0,1.3-0.7,2.6-2.3,2.6s-2.3-1.2-2.3-2.6v-9.5h-4.6v9.5c0,3.9,2.7,6.1,6.9,6.1c4.3,0,7-2.3,7-6.6 v-9h-4.6v9.5H51.5z"></path> <path class="st2" d="M33.7,32.3h-7.1v15.2H33c4.8,0,8.1-3,8.1-7.7C41.1,34,37.1,32.3,33.7,32.3z M32.4,44.1h-1.2v-8.3h1.2 c2.6,0,4.1,1.2,4.1,4.1C36.5,42.4,35.4,44,32.4,44.1z"></path> <path class="st2" d="M75.3,32.3l-4.7,13.8l-2.8-5.5l1.6-1.8c0.7-0.8,1.2-1.9,1.2-2.8c0-2.2-1.9-3.7-5-3.7c0,0-7.1,0-7.9,0v15.2 h4.6V35.6h2c0.9,0,1.5,0.5,1.5,1.2c0,0.5-0.3,1-0.8,1.6c-0.9,1-1.9,2.2-1.9,2.2l3.3,6.9h4.9l0,0h3.5l0.6-2.1h5.2l0.6,2.1h4.9 l-5.3-15.2H75.3z M76.3,42.3l1.7-5.9l1.8,5.9H76.3z"></path> <polygon class="st2" points="115.9,32.3 111.2,32.3 111.2,47.5 120.7,47.5 121.7,43.8 115.9,43.8 "></polygon> <polygon class="st2" points="127.6,32.3 122.9,32.3 122.9,47.5 132.4,47.5 133.4,43.8 127.6,43.8 "></polygon> <path class="st2" d="M94.1,35.8H97v-3.5h-4c-1,0-2.4,0.1-4,1c-2.4,1.3-3.5,3.8-3.5,6.5c0,2.6,1.1,4.4,2,5.5c2,2.1,4.6,2.2,5.8,2.2 H97v-3.6h-2.6c-1.2,0-2,0-2.9-1c-0.6-0.6-1.1-1.6-1.1-3.1c0-1.1,0.3-2.1,1-2.9C92,36,92.9,35.8,94.1,35.8z"></path> <path class="st2" d="M131.6,35.8c1,0,1.8-0.8,1.8-1.8s-0.8-1.8-1.8-1.8s-1.8,0.8-1.8,1.8C129.7,35,130.5,35.8,131.6,35.8z M131.2,32.5c0.1,0,0.4-0.1,0.5,0l0,0h0.1c0.5,0,1.1,0.5,1.2,1.1c0.2,0.6-0.1,1.2-0.6,1.6c-0.5,0.4-1.1,0.4-1.6,0.1 s-0.8-0.9-0.7-1.5C130.2,33.2,130.6,32.7,131.2,32.5z"></path> <path class="st2" d="M131.3,34.3L131.3,34.3c0.2,0,0.2,0,0.4,0c0.1,0.2,0.2,0.4,0.3,0.6c0.1,0,0.1,0,0.3,0h0.1 c-0.1-0.3-0.2-0.3-0.3-0.5c0,0,0-0.1-0.1-0.1c0.1,0,0.2-0.1,0.3-0.3s0.1-0.4,0-0.6c-0.2-0.3-0.4-0.3-0.7-0.3c-0.1,0-0.1,0-0.2,0 h-0.1l0,0H131c-0.1,0-0.1,0-0.2,0c0,0.7,0,1.1,0,1.7c0.2,0,0.3,0,0.4,0C131.3,34.6,131.3,34.5,131.3,34.3z M131.3,33.4 c0.2,0,0.3,0,0.4,0c0,0,0.2,0,0.2,0.1c0.1,0.1,0.1,0.2,0.1,0.3s-0.1,0.1-0.2,0.2c-0.1,0-0.1,0-0.6,0 C131.3,33.8,131.3,33.6,131.3,33.4z"></path> </g> </g> <g id="Parasol" class="st0"> <g class="st1"> <path class="st3" d="M78.8,43.8c-0.2,1,0.2,1.8,0.8,2.3c0.9,0.7,2.9,1.3,5.2,0c2.3-1.3,2.3-3.6,2.3-3.6v-2.9 c-1.4,1-3.9,1.6-5.5,2.1C80.1,42.1,79,42.8,78.8,43.8z"></path> <path class="st3" d="M46.9,43.8c-0.2,1,0.2,1.8,0.8,2.3c0.9,0.7,2.9,1.3,5.2,0s2.3-3.6,2.3-3.6v-2.9c-1.4,1-3.9,1.6-5.5,2.1 C48.1,42.1,47,42.8,46.9,43.8z"></path> <ellipse class="st3" cx="33.2" cy="39.3" rx="4" ry="7.3"></ellipse> <ellipse class="st3" cx="118.3" cy="39.4" rx="4.7" ry="7.8"></ellipse> <path class="st2" d="M33.5,28.5c-1.9,0-3.6,1.1-4.9,2.9v-2.8h-3.3v30.9h3.3V47.3c1.3,1.8,3,2.9,4.9,2.9c4,0,7.3-4.9,7.3-10.9 C40.8,33.3,37.6,28.5,33.5,28.5z M33.2,46.6c-2.2,0-4-3.3-4-7.3s1.8-7.3,4-7.3s4,3.3,4,7.3C37.1,43.4,35.3,46.6,33.2,46.6z"></path> <path class="st2" d="M118.4,28.5c-4.5,0-8.2,4.9-8.2,10.9s3.7,10.9,8.2,10.9s8.2-4.9,8.2-10.9C126.6,33.3,122.9,28.5,118.4,28.5z M118.3,47.1c-2.6,0-4.7-3.5-4.7-7.8s2.1-7.8,4.7-7.8s4.7,3.5,4.7,7.8C123,43.7,120.9,47.1,118.3,47.1z"></path> <path class="st2" d="M132.8,44.8V19.3h-3.3v25.5c0,0-0.5,5,6.5,5v-0.1v-3C136,46.6,132.8,46.6,132.8,44.8z"></path> <path class="st2" d="M52.4,28.8c-3-0.2-5.4,0.2-7,2.1c-1.3,1.6-1.1,3.8-1.1,3.8h3v-0.2c0,0-0.2-3.1,3.9-3s4.8,4.9,2.6,5.9 s-4.3,1.1-7.2,2.3c-2.5,1.1-4.2,3.5-2.9,6.7s4.5,3.3,6.5,3.1c2.7-0.3,5.1-2,5.1-2v2H58V35.2c0,0,0-1.4-0.4-2.5 C57.3,31.7,55.7,29,52.4,28.8z M55.1,42.4c0,0,0,2.3-2.3,3.6s-4.3,0.7-5.2,0c-0.6-0.5-1-1.3-0.8-2.3c0.2-0.9,1.3-1.7,2.8-2.1 c1.5-0.5,4-1.1,5.5-2.1V42.4z"></path> <path class="st2" d="M84.3,28.8c-3-0.2-5.4,0.2-7,2.1c-1.3,1.6-1.1,3.8-1.1,3.8h3v-0.2c0,0-0.2-3.1,3.9-3s4.8,4.9,2.6,5.9 c-2.2,1-4.3,1.1-7.2,2.3c-2.5,1.1-4.2,3.5-2.9,6.7c1.3,3.2,4.5,3.3,6.5,3.1c2.7-0.3,5.1-2,5.1-2v2H90V35.2c0,0,0-1.4-0.4-2.5 C89.2,31.7,87.6,29,84.3,28.8z M87,42.4c0,0,0,2.3-2.3,3.6s-4.3,0.7-5.2,0c-0.6-0.5-1-1.3-0.8-2.3c0.2-0.9,1.3-1.7,2.8-2.1 c1.5-0.5,4-1.1,5.5-2.1V42.4z"></path> <path class="st2" d="M66.5,30.8V29h-3.3v20.6h3.3V35c0,0,1.5-4.5,6.7-2.9v-2.6C73.2,29.6,69.4,27.7,66.5,30.8z"></path> <path class="st2" d="M106.8,34.9c0-0.1,0-0.2,0-0.4c0-3.1-2.8-5.6-6.2-5.6s-6.2,2.5-6.2,5.6c0,2.1,1.3,4,3.3,4.9 c0,0,0.5,0.3,1.3,0.6s3,1,4.2,2.1c0.7,0.8,1,1.3,0.9,2.1c-0.2,1.9-1.6,3-3.4,3s-3.3-1.3-3.3-3c0-0.2,0-0.5,0.1-0.7h-2.9 c0,0.2-0.1,0.5-0.1,0.7c0,3.1,2.8,5.6,6.2,5.6s6.2-2.5,6.2-5.6c0-1.7-0.4-3-2-4.2c0,0-0.9-0.7-2.4-1.4c-0.9-0.4-2.6-1.2-2.6-1.2 c-1.6-0.8-2.5-1.6-2.4-3.1c0-1.7,1.5-2.8,3.3-2.8s3.3,1.3,3.3,3c0,0.1,0,0.2,0,0.4C104.1,34.9,106.8,34.9,106.8,34.9z"></path> </g> </g> <path class="st2" d="M75.5,30.4c-6.1,0-11.2,5-11.2,11.2c0,6.1,5,11.1,11.2,11.1c2.6,0,5-0.9,6.9-2.4v2.4h4.2V41.3l0,0 C86.4,35.3,81.5,30.4,75.5,30.4 M75.5,48.5c-3.8,0-6.9-3.1-6.9-6.9s3.1-6.9,6.9-6.9s6.9,3.1,6.9,6.9S79.3,48.5,75.5,48.5"></path> <path class="st2" d="M100.7,30.4c-6.1,0-11.2,5-11.2,11.2c0,6.1,5,11.1,11.2,11.1c2.6,0,5-0.9,6.9-2.4v0.4c0,3.8-3.1,6.9-6.9,6.9 h-2.1v4.2h2.1c6.1,0,11.1-5,11.1-11.2v-9.3l0,0C111.7,35.3,106.7,30.4,100.7,30.4 M100.7,48.5c-3.8,0-6.9-3.1-6.9-6.9 s3.1-6.9,6.9-6.9s6.9,3.1,6.9,6.9S104.5,48.5,100.7,48.5"></path> <path class="st2" d="M122.2,48.5L135.9,34c0.6-0.6,0.7-1.5,0.4-2.3s-1.1-1.3-1.9-1.3h-18.2v4.2h13.3l-13.7,14.5 c-0.6,0.6-0.7,1.5-0.4,2.3c0.3,0.8,1.1,1.3,1.9,1.3h19.2v-4.2H122.2z"></path> <path class="st2" d="M46.4,39.4c-0.7-1.3-2-2.1-3.5-2.1s-2.8,0.8-3.5,2.1l-0.8,1.5h8.6L46.4,39.4z"></path> <path class="st2" d="M35.4,46.7c-0.6,1.1-1.7,1.8-3,1.8c-1.9,0-3.4-1.5-3.4-3.4V30.6h-4.2v14.5c0,4.2,3.4,7.6,7.6,7.6 c2.8,0,5.4-1.5,6.7-4l2.1-3.8l-2.8-3.8L35.4,46.7z"></path> <path class="st2" d="M56.8,30.6v14.5c0,1.9-1.5,3.4-3.4,3.4c-1.3,0-2.4-0.7-3-1.8l-3-5.6l-2.8,3.8l2.1,3.8c1.3,2.5,3.9,4,6.7,4 c4.2,0,7.6-3.4,7.6-7.6V30.6H56.8z"></path> <path class="st2" d="M42.9,52.3c-1.1,0-2.8-0.6-3.8-1c-1.2,1.3-1.7,1.9-3.1,2.3c1.9,1.5,4.3,2.4,6.9,2.4s5-0.9,6.9-2.4 c-1.4-0.7-1.9-1.1-3-2.3C45.9,51.8,44,52.3,42.9,52.3"></path> <path class="st2" d="M48.8,36.8l-2.3-2.3c2.5-2.5,6.5-2.5,8.9,0l-2.3,2.3C52,35.6,50,35.6,48.8,36.8"></path> <path class="st2" d="M36.9,36.8c-1.2-1.2-3.1-1.2-4.3,0l-2.3-2.3c2.5-2.4,6.5-2.5,8.9,0L36.9,36.8z"></path> <path class="st2" d="M59.5,24.6c-1.4-2.9-5.1-8.9-11.7-8.9h-2.1v8.9h-7.2c-1.4-2.9-5.1-8.9-11.7-8.9h-2.1V29h4.2v-8.7 c4.2,1.5,6.3,7.3,6.3,7.3l0.5,1.4h2.7h1.2l0,0h10.1v-8.7c4.2,1.5,6.2,7.2,6.3,7.4c0.1,0.3,0.4,1.4,0.4,1.4h4.3 C60.9,28.9,60.7,27.1,59.5,24.6"></path> <g id="Camada_4" class="st0"> <path class="st4" d="M54.3,27.3h-11H41v2.3v26.6h2.3V29.6h11c0,0,6.7,0.6,6.7,7.1c0,7.3-5,7.3-6.2,7.3s-6.1,0-6.1,0v2.5h6.2 c0,0,8.2,0.3,8.8-8c0.4-5.6-1.7-8-3.5-9.4C58.6,28,56.2,27.3,54.3,27.3z"></path> <path class="st4" d="M91,47.1V27.3h-2.3v19.8c0,0,0.4,3.9-1.5,5.7c-2.7,2.6-6.1,2.8-8,2.8c-2.2,0-4.3,0-6.9-2.5 c-2.5-2.3-2.1-6-2.1-6V27.3h-2.3v19.8c0,0-0.7,10.6,11.3,10.6c10.2,0,11.5-5.7,11.8-7.9C91,48.8,91,47.1,91,47.1z"></path> <path class="st4" d="M122,56.2l-9.4-9.8c2.4-0.4,6.8-1.9,7.2-7.8c0.4-5.6-1.7-8-3.5-9.4c-1.6-1.2-4-1.8-5.8-1.8h-11h-2.3v2.3v26.6 h2.3V29.6h11c0,0,6.7,0.6,6.7,7.1c0,7.3-5,7.3-6.2,7.3s-6.1,0-6.1,0v2.5h4.7l9.2,9.7H122z"></path> <circle class="st4" cx="69.2" cy="22.1" r="1.6"></circle> <circle class="st4" cx="90" cy="22.1" r="1.6"></circle> </g> <g id="Camada_5" class="st0"> <g class="st1"> <path class="st2" d="M29.6,34.1c1.6,0.8,3.2,3.8,3.7,4.8s1.2,2.6,1.7,2.5s0.3-0.4,4.4-6.6c3.4-5.1,8.8-4.2,10.7-3.7 c-2.7-3.7-7-6.1-12-6.1c-6.8,0-12.5,4.6-14.2,10.8C25.7,34.6,28.3,33.6,29.6,34.1z"></path> <path class="st2" d="M51.6,33.8c-0.6-0.2-1.7-0.3-3.1-0.2c-2.9,0.2-4.9,3.8-6.4,5.8s-4.3,8.9-6.6,9.6s-4.3-2.4-5.4-5 c-0.9-2.2-2.8-7-4.3-7c-0.8,0-1.7,0.5-2.3,0.9c-0.1,0.7-0.1,1.3-0.1,2c0,8.2,6.6,14.8,14.8,14.8S53,48.1,53,39.9 C52.9,37.7,52.4,35.6,51.6,33.8z"></path> </g> <g class="st5"> <linearGradient id="SVGID_1_" gradientUnits="userSpaceOnUse" x1="26.0735" y1="45.9878" x2="47.7498" y2="45.9878" gradientTransform="matrix(1 0 0 -1 0 79.89)"> <stop offset="0" style="stop-color:#FFFFFF"></stop> <stop offset="1" style="stop-color:#000000"></stop> </linearGradient> <path class="st6" d="M29.6,34.1c1.6,0.8,3.2,3.8,3.7,4.8s1.2,2.6,1.7,2.5s0.3-0.4,4.4-6.6c2.4-3.6,5.8-4.2,8.3-4.1 c-2.4-2.6-5.8-4.3-9.6-4.3c-5.5,0-10.1,3.4-12,8.2C27.4,34.1,28.8,33.7,29.6,34.1z"></path> </g> <g class="st1"> <polygon class="st2" points="89.7,33.8 85.7,33.8 85.7,47.4 95.4,47.4 95.4,45.2 89.7,45.2 "></polygon> <polygon class="st2" points="69.1,33.8 65.8,42.5 62.6,33.8 58.7,33.8 64.1,47.4 67.6,47.4 73,33.8 "></polygon> <path class="st2" d="M127.4,33.5c-5.6,0-6.7,4.9-6.7,7.2s1,7.2,6.7,7.2c5.6,0,6.7-4.9,6.7-7.2S133.1,33.5,127.4,33.5z M127.4,45.9 c-1.2,0-2.6-0.4-2.6-5.2c0-4.9,1.4-5.2,2.6-5.2c1.2,0,2.6,0.3,2.6,5.2C130.1,45.6,128.6,45.9,127.4,45.9z"></path> <path class="st2" d="M135.3,34.4c0-0.3-0.2-0.4-0.5-0.4h-0.6v1.6h0.1v-0.7h0.4l0.5,0.7h0.2l-0.5-0.7 C135.1,34.8,135.3,34.7,135.3,34.4z M134.6,34.7h-0.3v-0.6h0.4c0.2,0,0.4,0.1,0.4,0.3C135.1,34.7,134.9,34.7,134.6,34.7z"></path> <path class="st2" d="M134.7,33.4c-0.7,0-1.3,0.6-1.3,1.3s0.6,1.3,1.3,1.3s1.3-0.6,1.3-1.3S135.4,33.4,134.7,33.4z M134.7,36 c-0.7,0-1.2-0.5-1.2-1.2s0.5-1.2,1.2-1.2s1.2,0.5,1.2,1.2S135.3,36,134.7,36z"></path> <path class="st2" d="M78.3,33.5c-5.6,0-6.7,4.9-6.7,7.2s1,7.2,6.7,7.2c4.2,0,5.9-2.7,6.4-5h-3.9c-0.1,2.9-1.5,3.1-2.5,3.1 c-1.1,0-2.7-0.3-2.6-4.3H85C85.4,37.3,83.9,33.5,78.3,33.5z M75.7,39.4c0.2-3.7,1.6-3.9,2.9-3.9c1.1,0,2.5,0.1,2.5,3.9H75.7z"></path> <path class="st2" d="M101.8,45.7c-1.1,0-2.8-1.3-2.7-5.4c0.2-3.7,1.5-4.6,2.8-4.6c1.1,0,2.2,0.3,2.2,4.1h4.2c0-4-1.6-6.6-6.6-6.6 c-5.6,0-6.9,5.1-6.9,7.4c0,2.3,1.2,7.2,6.9,7.2c4.6,0,6-2.7,6.6-5.6H104C103.8,45,102.8,45.7,101.8,45.7z"></path> <path class="st2" d="M120.2,42.8c0-1.3-1-2.1-1.4-2.2c1.4-0.8,2.1-2.4,2.1-3.4s-0.8-3.3-3.1-3.3h-8.9v13.6h4v-5.8h2.2 c1.1,0,1.4,0.8,1.4,1.5c0,0,0.2,1.5,0.3,2.4c0.1,0.9,0.3,1.6,1.4,1.9h3.6C120.3,46.7,120.2,44.4,120.2,42.8z M115.3,39.4h-2.5V36 h2.5C117.8,36,117.2,39.3,115.3,39.4z"></path> </g> </g> <g id="Camada_6" class="st0"> <path class="st4" d="M94,37h-3.6c0-0.1-0.1-0.3-0.2-0.4c-0.7-1.4-4.6-7.4-4.6-7.4l-1.1,2.7c0,0-1.3-0.6-3.4-0.6H81 c-2,0-3.4,0.6-3.4,0.6l-1.1-2.7c0,0-3.8,6-4.6,7.4c-0.1,0.2-0.1,0.3-0.2,0.4h-3.6l0.9,1.2h2.6c0.1,0.5,0.4,0.8,0.5,0.9 c0.6,0.6,2,0.6,2,0.6H80l-0.8-1.1h-4.5c0,0-1.1,0.1-1.6-0.4H79L78.3,37h-5.2c0.4-1.1,1.5-2.7,1.5-2.7l1.7-2.6l0.8,1.5 c0,0,1.8-0.8,4-0.8h0.1c2.2,0,4,0.8,4,0.8l0.8-1.5l1.7,2.6c0,0,1.1,1.6,1.5,2.7H84l-0.8,1.2h5.9c-0.5,0.5-1.6,0.4-1.6,0.4H83 l-0.8,1.1H88c0,0,1.4,0,2-0.6c0.1-0.1,0.4-0.5,0.5-0.9h2.6L94,37z"></path> <path class="st4" d="M78,36.4l-0.5-0.9h-2.1c0,0-0.2,0-0.2,0.3s0,0.7,0.3,0.7C75.7,36.4,78,36.4,78,36.4z"></path> <path class="st4" d="M84.2,36.4l0.5-0.9h2.1c0,0,0.2,0,0.2,0.3s0,0.7-0.3,0.7S84.2,36.4,84.2,36.4z"></path> <path class="st4" d="M81.2,39.7c0.1,0,0.1,0,0.3-0.4c0.2-0.4,0.8-1.4,0.8-1.4s0.4-0.5,0.2-0.8c-0.1-0.3-0.3-0.5-0.6-0.5 c-0.4-0.1-0.7-0.1-0.7-0.1h-0.1c0,0-0.4,0-0.7,0.1c-0.3,0.1-0.5,0.3-0.6,0.5c-0.1,0.3,0.2,0.8,0.2,0.8s0.6,1,0.8,1.4 C80.9,39.7,81,39.7,81.2,39.7L81.2,39.7z"></path> </g> </svg> 